<?xml version="1.0" encoding="iso-8859-1"?>
<!-- Generator: Adobe Illustrator 19.1.0, SVG Export Plug-In . SVG Version: 6.00 Build 0)  -->
<svg version="1.1" id="Capa_1" xmlns="http://www.w3.org/2000/svg" xmlns:xlink="http://www.w3.org/1999/xlink" x="0px" y="0px"
	 viewBox="0 0 447.145 447.145" style="enable-background:new 0 0 447.145 447.145;" xml:space="preserve">
<g>
	<g>
		<circle style="fill:#9FBE5B;" cx="240.422" cy="223.572" r="206.723"/>
		<path style="fill:#FFFFFF;" d="M65.88,112.769c-9.468,14.882-17.077,31.056-22.519,48.2h394.123
			c-5.441-17.143-13.054-33.318-22.519-48.2H65.88z"/>
		<path style="fill:#FFFFFF;" d="M40.355,275.777c2.356,9.052,5.316,17.856,8.822,26.38l17.389-26.38H40.355z"/>
		<path style="fill:#FFFFFF;" d="M377.898,323.977h43.251c8.363-15.017,14.912-31.179,19.341-48.2h-30.82L377.898,323.977z"/>
		<polygon style="fill:#FFFFFF;" points="198.771,275.777 166.997,323.977 245.694,323.977 277.467,275.777 		"/>
	</g>
	<g>
		<g>
			<path style="fill:#EA7053;" d="M271.96,68.431c-4.066-2.08-100.454-50.507-175.175-13.997
				C22.067,90.944,1.038,196.746,0.181,201.231c-0.844,4.415,1.325,8.854,5.326,10.897c4.065,2.082,100.454,50.509,175.176,13.998
				c74.718-36.51,95.745-142.312,96.601-146.799C278.132,74.916,275.96,70.475,271.96,68.431z"/>
		</g>
		<g>
			<path style="fill:#FFFFFF;" d="M7.408,174.126l23.924,48.959c6.612,2.42,14.249,4.957,22.656,7.302l-38.419-78.623
				C12.254,159.837,9.562,167.423,7.408,174.126z"/>
		</g>
		<g>
			<path style="fill:#FFFFFF;" d="M226.729,51.1l36.432,74.562c3.303-8.312,5.938-16.035,7.992-22.706l-21.602-44.206
				C243.027,56.271,235.315,53.602,226.729,51.1z"/>
		</g>
		<path style="fill:#FFFFFF;" d="M218.311,95.26l-11.953,5.84l-6.452-13.207c-1.336-2.735-4.64-3.869-7.374-2.532
			c-2.736,1.337-3.87,4.638-2.533,7.373l6.454,13.207l-11.795,5.764l-6.455-13.207c-1.337-2.734-4.637-3.869-7.373-2.533
			c-2.734,1.336-3.867,4.637-2.535,7.372l6.456,13.208l-11.796,5.765l-6.455-13.209c-1.336-2.735-4.636-3.869-7.372-2.532
			c-2.736,1.337-3.87,4.639-2.535,7.374l6.454,13.207l-11.795,5.762l-6.454-13.206c-1.336-2.735-4.636-3.87-7.372-2.532
			c-2.738,1.336-3.872,4.637-2.535,7.372l6.454,13.207l-11.797,5.764l-6.453-13.207c-1.336-2.735-4.639-3.869-7.374-2.533
			c-2.734,1.337-3.869,4.639-2.533,7.373l6.453,13.208l-11.795,5.763l-6.453-13.206c-1.337-2.735-4.638-3.87-7.374-2.534
			c-2.734,1.337-3.868,4.637-2.531,7.372l6.451,13.208l-11.795,5.764l-6.454-13.208c-1.336-2.735-4.637-3.869-7.37-2.532
			c-2.738,1.337-3.87,4.638-2.535,7.373l6.455,13.207l-11.924,5.825c-2.735,1.338-3.868,4.638-2.532,7.373
			c1.337,2.736,4.638,3.87,7.374,2.534l11.921-5.826l6.455,13.207c1.334,2.736,4.636,3.869,7.372,2.532
			c2.734-1.337,3.867-4.637,2.531-7.372l-6.453-13.208l11.798-5.763l6.452,13.207c1.337,2.735,4.638,3.87,7.372,2.533
			c2.738-1.337,3.87-4.639,2.535-7.373l-6.454-13.208l11.797-5.765l6.452,13.208c1.336,2.736,4.639,3.869,7.374,2.532
			c2.736-1.337,3.869-4.637,2.533-7.372l-6.454-13.207l11.795-5.765l6.454,13.207c1.337,2.735,4.636,3.869,7.372,2.533
			c2.738-1.338,3.872-4.639,2.535-7.373l-6.454-13.208l11.795-5.764l6.456,13.208c1.336,2.735,4.634,3.869,7.372,2.532
			c2.738-1.338,3.87-4.639,2.535-7.373l-6.456-13.208l11.799-5.764l6.451,13.207c1.338,2.735,4.64,3.87,7.374,2.534
			c2.736-1.337,3.869-4.638,2.533-7.373l-6.452-13.209l11.795-5.765l6.452,13.209c1.338,2.734,4.64,3.868,7.375,2.532
			c2.735-1.338,3.868-4.639,2.534-7.373l-6.454-13.208l11.951-5.84c2.736-1.337,3.869-4.637,2.533-7.374
			C224.347,95.058,221.047,93.924,218.311,95.26z"/>
	</g>
	<ellipse style="opacity:0.42;fill:#7D9548;" cx="191.369" cy="270.842" rx="86.098" ry="24.59"/>
	<path style="opacity:0.48;fill:#A47368;" d="M271.96,68.431c-0.847-0.432-5.692-2.872-13.503-6.133
		c0.042,0.797,0.019,1.602-0.137,2.412c-0.238,1.249-2.043,10.356-6.129,23.628v0.001c-0.004,0.01-0.008,0.022-0.011,0.032
		c-1.015,3.291-2.17,6.838-3.475,10.583c-0.033,0.095-0.067,0.191-0.101,0.286c-0.629,1.797-1.292,3.639-1.991,5.521
		c-0.038,0.104-0.078,0.208-0.115,0.311c-0.723,1.937-1.48,3.912-2.279,5.923c-0.006,0.016-0.013,0.032-0.019,0.049v-0.001
		c-13.728,34.55-39.018,79.227-82.48,100.464c-44.637,21.811-97.002,13.31-132.804,2.485c-0.044-0.013-0.084-0.026-0.125-0.038
		c-1.947-0.59-3.844-1.186-5.687-1.784c-0.059-0.02-0.12-0.039-0.179-0.059c-1.836-0.597-3.62-1.196-5.347-1.793
		c-0.041-0.014-0.082-0.028-0.122-0.042c-1.741-0.603-3.425-1.202-5.045-1.796c-0.012-0.004-0.028-0.009-0.041-0.014v0
		c-4.653-1.703-8.791-3.347-12.323-4.823c0.181,3.545,2.194,6.816,5.461,8.484c1.227,0.629,10.889,5.488,25.825,10.956v0.001
		c0.013,0.005,0.029,0.009,0.042,0.014c1.62,0.594,3.302,1.193,5.044,1.796c0.041,0.014,0.083,0.028,0.123,0.042
		c1.726,0.598,3.508,1.196,5.346,1.793c0.06,0.02,0.12,0.039,0.179,0.059c1.844,0.598,3.739,1.194,5.686,1.784
		c0.043,0.012,0.086,0.025,0.126,0.038c35.8,10.824,88.167,19.327,132.805-2.485c43.462-21.237,68.753-65.915,82.479-100.465v0.001
		c0.008-0.017,0.013-0.033,0.019-0.049c0.8-2.012,1.558-3.986,2.28-5.923c0.039-0.104,0.076-0.207,0.116-0.311
		c0.698-1.882,1.362-3.725,1.99-5.521c0.033-0.096,0.068-0.191,0.1-0.286c1.307-3.745,2.462-7.292,3.477-10.583
		c0.002-0.01,0.006-0.022,0.01-0.032v-0.001c4.087-13.272,5.892-22.379,6.13-23.628C278.132,74.916,275.96,70.475,271.96,68.431z"/>
</g>
<g>
</g>
<g>
</g>
<g>
</g>
<g>
</g>
<g>
</g>
<g>
</g>
<g>
</g>
<g>
</g>
<g>
</g>
<g>
</g>
<g>
</g>
<g>
</g>
<g>
</g>
<g>
</g>
<g>
</g>
</svg>
