<?xml version="1.0" encoding="iso-8859-1"?>
<!-- Generator: Adobe Illustrator 19.1.0, SVG Export Plug-In . SVG Version: 6.00 Build 0)  -->
<svg version="1.1" id="Capa_1" xmlns="http://www.w3.org/2000/svg" xmlns:xlink="http://www.w3.org/1999/xlink" x="0px" y="0px"
	 viewBox="0 0 482.339 482.339" style="enable-background:new 0 0 482.339 482.339;" xml:space="preserve">
<g>
	<circle style="fill:#9FBE5B;" cx="274.754" cy="241.17" r="207.585"/>
	<path style="fill:#EA7053;" d="M294.368,285.952c-2.807,8.679-12.122,13.439-20.8,10.631l0,0
		c-8.681-2.807-13.439-12.118-10.632-20.801l58.82-181.808c2.807-8.678,12.122-13.438,20.8-10.63l0,0
		c8.682,2.808,13.439,12.12,10.633,20.8L294.368,285.952z"/>
	<path style="fill:#EA7053;" d="M441.55,285.952c2.811,8.679,12.121,13.439,20.802,10.631l0,0
		c8.677-2.807,13.439-12.118,10.632-20.801L414.16,93.975c-2.807-8.678-12.117-13.438-20.795-10.63l0,0
		c-8.681,2.808-13.444,12.12-10.637,20.8L441.55,285.952z"/>
	<path style="fill:#F9F4ED;" d="M367.96,226.351c42.142,0,79.661-19.705,103.919-50.374c-4.578-13.855-10.575-27.061-17.819-39.448
		c-15.712,31.662-48.356,53.437-86.099,53.437c-53.062,0-96.075-43.017-96.075-96.076c0-22.492,7.748-43.162,20.697-59.534
		c-5.881-0.5-11.821-0.77-17.829-0.77c-8.641,0-17.158,0.538-25.52,1.563c-8.776,17.706-13.736,37.64-13.736,58.741
		C235.498,167.044,294.804,226.351,367.96,226.351z"/>
	<path style="fill:#69AFF3;" d="M367.96,158.902c-35.904,0-65.015-29.106-65.015-65.013c0-21.775,10.715-41.033,27.149-52.831
		c-12.1-3.34-24.637-5.607-37.512-6.703c-12.949,16.372-20.697,37.043-20.697,59.534c0,53.06,43.014,96.076,96.075,96.076
		c37.743,0,70.387-21.775,86.099-53.437c-6.442-11.011-13.859-21.381-22.148-30.978C426.413,135.888,399.882,158.902,367.96,158.902
		z"/>
	<path style="fill:#E96660;" d="M302.945,93.889c0,35.907,29.111,65.013,65.015,65.013c31.922,0,58.453-23.014,63.952-53.352
		c-26.447-30.623-61.701-53.424-101.818-64.493C313.66,52.855,302.945,72.114,302.945,93.889z M367.96,64.322
		c16.325,0,29.567,13.238,29.567,29.567c0,16.329-13.242,29.565-29.567,29.565c-16.325,0-29.566-13.236-29.566-29.565
		C338.394,77.56,351.635,64.322,367.96,64.322z"/>
	<path style="fill:#F9D363;" d="M367.96,123.454c16.325,0,29.567-13.236,29.567-29.565c0-16.329-13.242-29.567-29.567-29.567
		c-16.325,0-29.566,13.238-29.566,29.567C338.394,110.218,351.635,123.454,367.96,123.454z"/>
	<path style="opacity:0.1;fill:#F9D363;" d="M381.7,221.876c-73.154,0-132.459-59.306-132.459-132.462
		c0-19.781,4.357-38.538,12.133-55.394c-4.08,0.263-8.129,0.634-12.14,1.127c-8.776,17.706-13.736,37.64-13.736,58.741
		c0,73.155,59.307,132.462,132.463,132.462c16.838,0,32.94-3.155,47.749-8.892C404.861,220.338,393.463,221.876,381.7,221.876z"/>
	<g style="opacity:0.08;">
		<path style="fill:#EA7053;" d="M286.353,284.29c-8.68-2.808-13.44-12.12-10.631-20.802l19.129-59.126
			c-7.149-5.12-7.149-5.12-7.149-5.12l-24.766,76.539c-2.807,8.682,1.951,17.994,10.632,20.801
			c8.677,2.808,17.993-1.952,20.8-10.631l0.393-1.208C292.051,285.305,289.172,285.201,286.353,284.29z"/>
		<path style="fill:#EA7053;" d="M461,186.942l0.284,0.869c1.622-1.611,3.205-3.266,4.743-4.961
			C464.377,184.242,462.718,185.629,461,186.942z"/>
		<path style="fill:#EA7053;" d="M454.333,273.658c0,0-22.421-32.489-35.366-57.511l22.583,69.805
			c2.811,8.679,12.121,13.439,20.802,10.631c5.66-1.831,9.635-6.437,10.951-11.822C465.182,286.401,456.946,281.729,454.333,273.658
			z"/>
	</g>
	<g>
		<polygon style="fill:#F5ECE1;" points="39.164,283.424 11.184,297.612 22.408,304.442 50.38,290.252 		"/>
		<polygon style="fill:#F5ECE1;" points="48.995,302.804 21.017,316.989 22.138,303.904 50.109,289.716 		"/>
		
			<rect x="3.393" y="250.615" transform="matrix(0.8919 -0.4523 0.4523 0.8919 -101.5996 82.7256)" style="fill:#EA7053;" width="237.615" height="6.438"/>
		<path style="fill:#414141;" d="M260.194,182.131l-38.237,9.096c-0.47,0.117-0.863,0.43-1.064,0.871
			c-0.203,0.438-0.191,0.943,0.026,1.372l8.307,16.375c0.217,0.433,0.618,0.735,1.09,0.832c0.353,0.071,0.712,0.019,1.022-0.142
			c0.112-0.054,0.213-0.123,0.311-0.204l29.93-25.471c0.55-0.476,0.711-1.262,0.377-1.908
			C261.631,182.301,260.901,181.966,260.194,182.131z"/>
		<path style="fill:#B9E252;" d="M21.523,304.895c1.24,2.452,0.263,5.445-2.194,6.695l-12.096,6.132
			c-2.451,1.245-5.451,0.264-6.697-2.19l0,0c-1.239-2.454-0.263-5.449,2.194-6.69l12.096-6.138
			C17.279,301.458,20.278,302.441,21.523,304.895L21.523,304.895z"/>
	</g>
	<path style="fill:#9FBE5B;" d="M287.297,335.269c-1.805-3.722-45.743,13.827-98.15,39.199
		c-18.058,8.745-34.767,17.277-48.836,24.857c3.676,3.128,7.463,6.131,11.352,9.001c13.305-5.846,28.271-12.755,44.013-20.377
		C248.079,362.576,289.098,338.991,287.297,335.269z"/>
	<path style="opacity:0.29;fill:#6F8540;" d="M287.297,335.269c-1.805-3.722-45.743,13.827-98.15,39.199
		c-18.058,8.745-34.767,17.277-48.836,24.857c3.676,3.128,7.463,6.131,11.352,9.001c13.305-5.846,28.271-12.755,44.013-20.377
		C248.079,362.576,289.098,338.991,287.297,335.269z"/>
</g>
<g>
</g>
<g>
</g>
<g>
</g>
<g>
</g>
<g>
</g>
<g>
</g>
<g>
</g>
<g>
</g>
<g>
</g>
<g>
</g>
<g>
</g>
<g>
</g>
<g>
</g>
<g>
</g>
<g>
</g>
</svg>
