<?xml version="1.0" encoding="iso-8859-1"?>
<!-- Generator: Adobe Illustrator 19.1.0, SVG Export Plug-In . SVG Version: 6.00 Build 0)  -->
<svg version="1.1" id="Capa_1" xmlns="http://www.w3.org/2000/svg" xmlns:xlink="http://www.w3.org/1999/xlink" x="0px" y="0px"
	 viewBox="0 0 447.836 447.836" style="enable-background:new 0 0 447.836 447.836;" xml:space="preserve">
<g>
	<g>
		<path style="fill:#F5ECE1;" d="M433.438,209.579c0-115.713-93.804-209.519-209.518-209.519
			c-115.719,0-209.523,93.806-209.523,209.519c0,115.717,93.804,209.523,209.523,209.523
			C339.635,419.102,433.438,325.296,433.438,209.579z"/>
		<path style="fill:#F5ECE1;" d="M433.438,209.579c0-115.713-93.804-209.519-209.518-209.519
			c-115.719,0-209.523,93.806-209.523,209.519c0,115.717,93.804,209.523,209.523,209.523
			C339.635,419.102,433.438,325.296,433.438,209.579z"/>
		<path style="fill:#F5ECE1;" d="M433.438,209.579c0-115.713-93.804-209.519-209.518-209.519
			c-115.719,0-209.523,93.806-209.523,209.519c0,115.717,93.804,209.523,209.523,209.523
			C339.635,419.102,433.438,325.296,433.438,209.579z"/>
		<path style="fill:#F5ECE1;" d="M433.438,209.579c0-115.713-93.804-209.519-209.518-209.519
			c-115.719,0-209.523,93.806-209.523,209.519c0,115.717,93.804,209.523,209.523,209.523
			C339.635,419.102,433.438,325.296,433.438,209.579z"/>
		<path style="fill:#F5ECE1;" d="M433.438,209.579c0-115.713-93.804-209.519-209.518-209.519
			c-115.719,0-209.523,93.806-209.523,209.519c0,115.717,93.804,209.523,209.523,209.523
			C339.635,419.102,433.438,325.296,433.438,209.579z"/>
	</g>
	<path style="fill:#F4B7A9;" d="M223.754,0.002c-1.549,0.002-3.093,0.024-4.635,0.059l-11.126,304.118l-0.266,4.532l1.319,11.702
		l0.425,3.776l5.691,50.525v-0.002l2.559,22.721c0,21.636-6.571,39.176-28.207,39.176h-10.969c-9.953,0-16.687-3.743-21.09-9.855
		l0.002,0.01c0.149,0.566,0.319,1.115,0.485,1.66c0.117,0.382,0.238,0.76,0.365,1.134c0.176,0.524,0.356,1.045,0.55,1.551
		c0.177,0.457,0.372,0.9,0.562,1.342c0.303,0.699,0.624,1.379,0.966,2.039c0.216,0.415,0.433,0.829,0.665,1.228
		c0.223,0.387,0.454,0.766,0.692,1.139c0.298,0.462,0.614,0.906,0.937,1.347c0.291,0.395,0.589,0.78,0.899,1.154
		c0.412,0.495,0.837,0.977,1.287,1.433c0.247,0.253,0.505,0.494,0.763,0.736c0.442,0.409,0.901,0.799,1.375,1.17
		c0.223,0.175,0.437,0.361,0.666,0.529c0.687,0.498,1.411,0.954,2.166,1.377c0.242,0.136,0.5,0.257,0.751,0.385
		c0.613,0.314,1.248,0.603,1.908,0.867c0.256,0.104,0.508,0.212,0.77,0.306c0.892,0.323,1.818,0.607,2.791,0.839
		c0.189,0.044,0.391,0.074,0.582,0.116c0.841,0.181,1.714,0.326,2.615,0.438c0.299,0.038,0.599,0.074,0.905,0.102
		c1.113,0.108,2.254,0.181,3.459,0.181h10.969c21.636,0,28.207-17.54,28.207-39.176l-9.992-88.721l9.57-277.557l1.963-33.502
		L223.754,0.002z"/>
	<path style="opacity:0.33;fill:#B0543E;" d="M223.754,0.002c-1.549,0.002-3.093,0.024-4.635,0.059l-11.126,304.118l-0.266,4.532
		l1.319,11.702l0.425,3.776l5.691,50.525v-0.002l2.559,22.721c0,21.636-6.571,39.176-28.207,39.176h-10.969
		c-9.953,0-16.687-3.743-21.09-9.855l0.002,0.01c0.149,0.566,0.319,1.115,0.485,1.66c0.117,0.382,0.238,0.76,0.365,1.134
		c0.176,0.524,0.356,1.045,0.55,1.551c0.177,0.457,0.372,0.9,0.562,1.342c0.303,0.699,0.624,1.379,0.966,2.039
		c0.216,0.415,0.433,0.829,0.665,1.228c0.223,0.387,0.454,0.766,0.692,1.139c0.298,0.462,0.614,0.906,0.937,1.347
		c0.291,0.395,0.589,0.78,0.899,1.154c0.412,0.495,0.837,0.977,1.287,1.433c0.247,0.253,0.505,0.494,0.763,0.736
		c0.442,0.409,0.901,0.799,1.375,1.17c0.223,0.175,0.437,0.361,0.666,0.529c0.687,0.498,1.411,0.954,2.166,1.377
		c0.242,0.136,0.5,0.257,0.751,0.385c0.613,0.314,1.248,0.603,1.908,0.867c0.256,0.104,0.508,0.212,0.77,0.306
		c0.892,0.323,1.818,0.607,2.791,0.839c0.189,0.044,0.391,0.074,0.582,0.116c0.841,0.181,1.714,0.326,2.615,0.438
		c0.299,0.038,0.599,0.074,0.905,0.102c1.113,0.108,2.254,0.181,3.459,0.181h10.969c21.636,0,28.207-17.54,28.207-39.176
		l-9.992-88.721l9.57-277.557l1.963-33.502L223.754,0.002z"/>
	<path style="fill:#F4B7A9;" d="M289.047,10.336l-8.711,262.895l-0.266,4.531l1.318,11.703l0.426,3.776l5.691,50.524v-0.002
		l2.557,22.721c0,21.636-6.571,39.176-28.207,39.176h-10.969c-9.952,0-16.688-3.74-21.089-9.856c0.154,0.588,0.33,1.158,0.506,1.729
		c0.106,0.348,0.218,0.695,0.332,1.04c0.183,0.541,0.369,1.08,0.571,1.603c0.16,0.417,0.337,0.819,0.512,1.223
		c0.317,0.741,0.656,1.46,1.018,2.157c0.212,0.409,0.425,0.817,0.652,1.21c0.225,0.389,0.457,0.77,0.697,1.145
		c0.299,0.462,0.614,0.906,0.937,1.345c0.287,0.392,0.582,0.775,0.89,1.146c0.413,0.5,0.844,0.985,1.296,1.446
		c0.245,0.249,0.501,0.487,0.758,0.725c0.444,0.413,0.907,0.807,1.386,1.182c0.219,0.172,0.429,0.355,0.656,0.52
		c0.69,0.499,1.415,0.958,2.172,1.381c0.24,0.134,0.491,0.253,0.739,0.379c0.618,0.316,1.259,0.609,1.922,0.875
		c0.252,0.099,0.503,0.208,0.761,0.302c0.894,0.321,1.821,0.608,2.796,0.839c0.185,0.044,0.386,0.073,0.575,0.115
		c0.843,0.18,1.718,0.326,2.62,0.438c0.299,0.039,0.599,0.074,0.905,0.103c1.114,0.106,2.255,0.18,3.459,0.18h10.969
		c21.637,0,28.207-17.54,28.207-39.176l-9.992-88.721l9.522-276.736C292.802,11.59,290.93,10.952,289.047,10.336z"/>
	<path style="opacity:0.33;fill:#B0543E;" d="M289.047,10.336l-8.711,262.895l-0.266,4.531l1.318,11.703l0.426,3.776l5.691,50.524
		v-0.002l2.557,22.721c0,21.636-6.571,39.176-28.207,39.176h-10.969c-9.952,0-16.688-3.74-21.089-9.856
		c0.154,0.588,0.33,1.158,0.506,1.729c0.106,0.348,0.218,0.695,0.332,1.04c0.183,0.541,0.369,1.08,0.571,1.603
		c0.16,0.417,0.337,0.819,0.512,1.223c0.317,0.741,0.656,1.46,1.018,2.157c0.212,0.409,0.425,0.817,0.652,1.21
		c0.225,0.389,0.457,0.77,0.697,1.145c0.299,0.462,0.614,0.906,0.937,1.345c0.287,0.392,0.582,0.775,0.89,1.146
		c0.413,0.5,0.844,0.985,1.296,1.446c0.245,0.249,0.501,0.487,0.758,0.725c0.444,0.413,0.907,0.807,1.386,1.182
		c0.219,0.172,0.429,0.355,0.656,0.52c0.69,0.499,1.415,0.958,2.172,1.381c0.24,0.134,0.491,0.253,0.739,0.379
		c0.618,0.316,1.259,0.609,1.922,0.875c0.252,0.099,0.503,0.208,0.761,0.302c0.894,0.321,1.821,0.608,2.796,0.839
		c0.185,0.044,0.386,0.073,0.575,0.115c0.843,0.18,1.718,0.326,2.62,0.438c0.299,0.039,0.599,0.074,0.905,0.103
		c1.114,0.106,2.255,0.18,3.459,0.18h10.969c21.637,0,28.207-17.54,28.207-39.176l-9.992-88.721l9.522-276.736
		C292.802,11.59,290.93,10.952,289.047,10.336z"/>
	<path style="fill:#F4B7A9;" d="M155.408,408.66c0,6.534,0.614,12.677,2.046,18.093c4.404,6.112,11.137,9.855,21.09,9.855h10.969
		c21.636,0,28.207-17.54,28.207-39.176l-2.559-22.721v0.002l-5.691-50.525l-0.425-3.776l-1.319-11.702l0.266-4.532L219.119,0.061
		c-22.606,0.508-44.324,4.604-64.618,11.73l12.834,311.05L155.408,408.66z"/>
	<path style="fill:#F57078;" d="M194.583,405.275h-10.969c-13.84,0-21.496-7.196-25.23-18.031l-2.977,21.417
		c0,21.636,6.571,39.176,28.207,39.176h10.969c21.636,0,28.207-17.54,28.207-39.176l-2.558-22.72
		C216.669,397.496,208.968,405.275,194.583,405.275z"/>
	<polygon style="fill:#F4B7A9;" points="165.187,338.295 164.99,339.71 166.765,338.812 	"/>
	<path style="fill:#F4B7A9;" d="M250.885,405.66h10.969c21.636,0,28.207-17.54,28.207-39.176l-2.557-22.721v0.002l-5.691-50.524
		l-0.426-3.776l-1.318-11.703l0.266-4.531l8.711-262.895c-19.244-6.286-39.709-9.867-60.951-10.283l11.581,291.84l-11.927,85.82
		c0,7.241,0.762,14,2.552,19.82c-0.175-0.57-0.352-1.141-0.506-1.729C234.198,401.92,240.933,405.66,250.885,405.66z"/>
	<polygon style="fill:#F57078;" points="214.907,338.664 214.116,331.64 212.798,319.939 213.064,315.406 194.011,325.038 
		166.898,316.133 167.335,322.841 165.187,338.295 166.765,338.812 164.99,339.71 161.374,365.729 195.77,348.339 216.773,355.238 	
		"/>
	<polygon style="fill:#F4B7A9;" points="247.706,371.674 247.509,373.09 249.283,372.192 	"/>
	<path style="fill:#F57078;" d="M266.924,374.326h-10.969c-13.84,0-21.496-7.196-25.229-18.03l-2.978,21.417
		c0,21.636,6.571,39.176,28.207,39.176h10.969c21.637,0,28.207-17.54,28.207-39.176l-2.557-22.72
		C289.01,366.548,281.31,374.326,266.924,374.326z"/>
	<polygon style="fill:#F57078;" points="287.248,307.717 286.458,300.693 285.139,288.991 285.406,284.458 266.353,294.09 
		239.24,285.185 239.676,291.892 237.528,307.346 239.106,307.865 237.332,308.762 233.715,334.781 268.111,317.392 289.114,324.29 
			"/>
	<path style="fill:#F4B7A9;" d="M163.577,439.356c-0.31-0.374-0.608-0.759-0.899-1.154
		C162.969,438.597,163.265,438.982,163.577,439.356z"/>
	<path style="fill:#F4B7A9;" d="M160.384,434.489c-0.341-0.66-0.663-1.34-0.966-2.039
		C159.721,433.149,160.043,433.829,160.384,434.489z"/>
	<path style="fill:#F4B7A9;" d="M223.754,0.002l0.578,8.877l-1.963,33.502l2.483-42.37C224.54,0.01,224.232,0,223.92,0
		C223.863,0,223.808,0.002,223.754,0.002z"/>
	<path style="fill:#F4B7A9;" d="M158.856,431.108c-0.195-0.507-0.374-1.028-0.55-1.551
		C158.482,430.081,158.661,430.602,158.856,431.108z"/>
	<path style="fill:#F4B7A9;" d="M161.741,436.856c-0.238-0.373-0.469-0.752-0.692-1.139
		C161.272,436.104,161.503,436.483,161.741,436.856z"/>
	<path style="fill:#F4B7A9;" d="M157.941,428.423c-0.166-0.545-0.336-1.093-0.485-1.656
		C157.604,427.33,157.775,427.876,157.941,428.423z"/>
	<path style="fill:#F4B7A9;" d="M180.155,447.654c-0.306-0.028-0.606-0.064-0.905-0.102
		C179.549,447.59,179.849,447.626,180.155,447.654z"/>
	<path style="fill:#F4B7A9;" d="M165.627,441.525c-0.258-0.241-0.516-0.482-0.763-0.736
		C165.111,441.043,165.368,441.284,165.627,441.525z"/>
	<path style="fill:#F4B7A9;" d="M173.263,446.16c-0.263-0.094-0.514-0.202-0.77-0.306C172.749,445.958,173,446.065,173.263,446.16z"
		/>
	<path style="fill:#F4B7A9;" d="M170.585,444.986c-0.251-0.128-0.509-0.249-0.751-0.385
		C170.078,444.737,170.333,444.858,170.585,444.986z"/>
	<path style="fill:#F4B7A9;" d="M167.667,443.224c-0.229-0.168-0.443-0.354-0.666-0.529
		C167.225,442.87,167.436,443.056,167.667,443.224z"/>
	<path style="fill:#F4B7A9;" d="M176.635,447.114c-0.191-0.042-0.392-0.072-0.582-0.116
		C176.243,447.042,176.445,447.073,176.635,447.114z"/>
	<path style="fill:#F4B7A9;" d="M235.911,408.401c-0.308-0.371-0.603-0.754-0.89-1.146
		C235.308,407.646,235.603,408.031,235.911,408.401z"/>
	<path style="fill:#F4B7A9;" d="M252.496,416.708c-0.306-0.029-0.606-0.065-0.905-0.103
		C251.891,416.643,252.19,416.678,252.496,416.708z"/>
	<path style="fill:#F4B7A9;" d="M248.971,416.166c-0.188-0.043-0.389-0.071-0.575-0.115
		C248.582,416.095,248.783,416.124,248.971,416.166z"/>
	<path style="fill:#F4B7A9;" d="M231.205,400.175c-0.203-0.523-0.388-1.062-0.571-1.603
		C230.817,399.113,231.003,399.652,231.205,400.175z"/>
	<path style="fill:#F4B7A9;" d="M245.601,415.212c-0.258-0.094-0.509-0.203-0.761-0.302
		C245.092,415.009,245.343,415.118,245.601,415.212z"/>
	<path style="fill:#F4B7A9;" d="M237.965,410.572c-0.257-0.238-0.513-0.476-0.758-0.725
		C237.452,410.096,237.708,410.334,237.965,410.572z"/>
	<path style="fill:#F4B7A9;" d="M234.084,405.91c-0.24-0.375-0.472-0.756-0.697-1.145
		C233.612,405.154,233.844,405.535,234.084,405.91z"/>
	<path style="fill:#F4B7A9;" d="M240.007,412.274c-0.227-0.165-0.437-0.348-0.656-0.52
		C239.57,411.927,239.78,412.109,240.007,412.274z"/>
	<path style="fill:#F4B7A9;" d="M242.918,414.034c-0.247-0.126-0.498-0.245-0.739-0.379
		C242.419,413.789,242.671,413.909,242.918,414.034z"/>
	<path style="fill:#F4B7A9;" d="M232.735,403.555c-0.363-0.697-0.701-1.417-1.018-2.157
		C232.034,402.139,232.373,402.858,232.735,403.555z"/>
	<path style="fill:#F57078;" d="M162.678,438.202c-0.323-0.441-0.639-0.885-0.937-1.347
		C162.039,437.318,162.355,437.762,162.678,438.202z"/>
	<path style="fill:#F57078;" d="M164.864,440.789c-0.45-0.456-0.874-0.937-1.287-1.433
		C163.989,439.853,164.414,440.331,164.864,440.789z"/>
	<path style="fill:#F57078;" d="M161.049,435.717c-0.232-0.399-0.449-0.813-0.665-1.228
		C160.6,434.904,160.817,435.315,161.049,435.717z"/>
	<path style="fill:#F57078;" d="M176.053,446.999c-0.973-0.232-1.899-0.516-2.791-0.839
		C174.154,446.483,175.081,446.767,176.053,446.999z"/>
	<path style="fill:#F57078;" d="M159.418,432.45c-0.191-0.442-0.385-0.885-0.562-1.342
		C159.033,431.565,159.228,432.008,159.418,432.45z"/>
	<path style="fill:#F57078;" d="M157.452,426.751c0.002,0.006,0.004,0.012,0.004,0.012l-0.002-0.01L157.452,426.751z"/>
	<path style="fill:#F57078;" d="M158.306,429.557c-0.127-0.374-0.247-0.752-0.365-1.134
		C158.058,428.805,158.179,429.183,158.306,429.557z"/>
	<path style="fill:#F57078;" d="M183.614,447.836c-1.206,0-2.347-0.073-3.459-0.181
		C181.268,447.763,182.409,447.836,183.614,447.836z"/>
	<path style="fill:#F57078;" d="M172.493,445.854c-0.66-0.264-1.295-0.553-1.908-0.867
		C171.198,445.3,171.833,445.589,172.493,445.854z"/>
	<path style="fill:#F57078;" d="M179.25,447.552c-0.901-0.111-1.774-0.256-2.615-0.438
		C177.476,447.296,178.349,447.44,179.25,447.552z"/>
	<polygon style="fill:#F57078;" points="220.232,385.94 220.232,385.942 214.542,335.418 214.116,331.64 212.798,319.939 
		222.79,408.66 	"/>
	<path style="fill:#F57078;" d="M167.002,442.695c-0.474-0.372-0.933-0.761-1.375-1.17
		C166.067,441.934,166.528,442.323,167.002,442.695z"/>
	<path style="fill:#F57078;" d="M169.834,444.601c-0.755-0.424-1.479-0.88-2.166-1.377
		C168.354,443.722,169.079,444.178,169.834,444.601z"/>
	<path style="fill:#F57078;" d="M255.956,416.888c-1.205,0-2.346-0.074-3.459-0.18C253.61,416.814,254.751,416.888,255.956,416.888z
		"/>
	<polygon style="fill:#F57078;" points="292.574,354.993 292.574,354.993 286.883,304.469 286.458,300.693 285.139,288.991 
		295.131,377.712 	"/>
	<path style="fill:#F57078;" d="M230.634,398.572c-0.115-0.345-0.226-0.692-0.332-1.04
		C230.408,397.88,230.519,398.227,230.634,398.572z"/>
	<path style="fill:#F57078;" d="M235.021,407.255c-0.323-0.439-0.638-0.883-0.937-1.345
		C234.383,406.372,234.698,406.816,235.021,407.255z"/>
	<path style="fill:#F57078;" d="M233.387,404.765c-0.227-0.393-0.44-0.801-0.652-1.21
		C232.947,403.964,233.16,404.372,233.387,404.765z"/>
	<path style="fill:#F57078;" d="M231.717,401.398c-0.174-0.404-0.352-0.806-0.512-1.223
		C231.365,400.592,231.543,400.993,231.717,401.398z"/>
	<path style="fill:#F57078;" d="M237.207,409.847c-0.452-0.461-0.883-0.946-1.296-1.446
		C236.324,408.901,236.755,409.385,237.207,409.847z"/>
	<path style="fill:#F57078;" d="M239.351,411.755c-0.479-0.376-0.942-0.769-1.386-1.182
		C238.409,410.985,238.873,411.377,239.351,411.755z"/>
	<path style="fill:#F57078;" d="M244.84,414.91c-0.664-0.266-1.304-0.559-1.922-0.875
		C243.536,414.351,244.176,414.641,244.84,414.91z"/>
	<path style="fill:#F57078;" d="M251.592,416.604c-0.903-0.112-1.777-0.257-2.62-0.438
		C249.814,416.347,250.689,416.493,251.592,416.604z"/>
	<path style="fill:#F57078;" d="M248.397,416.051c-0.975-0.231-1.902-0.518-2.796-0.839
		C246.495,415.535,247.422,415.82,248.397,416.051z"/>
	<path style="fill:#F57078;" d="M242.179,413.656c-0.757-0.424-1.482-0.883-2.172-1.381
		C240.695,412.775,241.422,413.232,242.179,413.656z"/>
	<circle style="opacity:0.09;fill:#F57078;" cx="258.905" cy="32.79" r="18.45"/>
	<circle style="opacity:0.09;fill:#F57078;" cx="184.716" cy="32.79" r="18.45"/>
</g>
<g>
</g>
<g>
</g>
<g>
</g>
<g>
</g>
<g>
</g>
<g>
</g>
<g>
</g>
<g>
</g>
<g>
</g>
<g>
</g>
<g>
</g>
<g>
</g>
<g>
</g>
<g>
</g>
<g>
</g>
</svg>
