<?xml version="1.0" encoding="iso-8859-1"?>
<!-- Generator: Adobe Illustrator 19.1.0, SVG Export Plug-In . SVG Version: 6.00 Build 0)  -->
<svg version="1.1" id="Capa_1" xmlns="http://www.w3.org/2000/svg" xmlns:xlink="http://www.w3.org/1999/xlink" x="0px" y="0px"
	 viewBox="0 0 429.483 429.483" style="enable-background:new 0 0 429.483 429.483;" xml:space="preserve">
<g>
	<circle style="fill:#B6A875;" cx="214.742" cy="222.817" r="206.666"/>
	<circle style="opacity:0.67;fill:#EA7053;" cx="214.742" cy="222.817" r="206.666"/>
	<g>
		<polygon style="fill:#EAEBED;" points="92.804,182.608 117.934,270.633 247.313,325.036 341.283,270.012 309.117,180.981 		"/>
	</g>
	<path style="opacity:0.31;fill:#EA7053;" d="M237.385,248.372c0,10.062-23.264,18.219-51.96,18.219
		c-28.696,0-51.961-8.157-51.961-18.219c0-10.065,23.264-18.222,51.961-18.222C214.121,230.15,237.385,238.307,237.385,248.372z"/>
	<path style="fill:#EAEBED;" d="M353.434,69.602l67.458,167.75c-1.902,27.338-9.117,53.207-20.622,76.589L285.522,28.594
		C310.84,37.822,333.845,51.859,353.434,69.602z"/>
	<path style="fill:#EAEBED;" d="M45.933,103.57l72.812,302.295c-23.183-12.182-43.767-28.629-60.706-48.313L13.858,174.131
		C20.075,148.397,31.094,124.54,45.933,103.57z"/>
	<g>
		<g>
			<circle style="fill:#F9D363;" cx="144.198" cy="58.468" r="58.464"/>
			<path style="fill:#E96660;" d="M140.118,49.834c15.24-11.319,23.94-28.217,25.401-45.8c-3.251-1.269-6.599-2.255-10.007-2.925
				c-0.685,15.505-8.061,30.597-21.465,40.553c-14.192,10.541-31.929,12.906-47.647,8.042c-0.526,3.451-0.73,6.947-0.633,10.448
				C103.872,64.989,123.935,61.848,140.118,49.834z"/>
			<path style="fill:#E96660;" d="M135.877,116.333c-0.111-16.454,7.284-32.749,21.474-43.287
				c13.405-9.955,29.984-12.653,45.029-8.823c0.341-3.46,0.363-6.949,0.088-10.429c-17.25-3.682-35.942-0.24-51.186,11.079
				c-16.178,12.014-24.985,30.311-25.589,49.042C129.016,115.021,132.422,115.833,135.877,116.333z"/>
		</g>
		<path style="opacity:0.47;fill:#A88F43;" d="M90.591,69.723c8.549,11.51,20.522,18.965,33.463,22.023
			c0.013,0.005,0.025,0.005,0.038,0.008c1.688,0.4,3.391,0.728,5.106,0.977c0.004-0.002,0.008,0.001,0.012-0.001l0,0
			c14.735,2.119,30.278-1.349,43.175-10.929c13.771-10.227,21.755-25.356,23.326-41.18c0.004-0.015,0.001-0.033,0.003-0.047
			c0.167-1.703,0.254-3.416,0.271-5.129c0.001-0.014,0.001-0.027,0.001-0.043c0.014-1.416-0.037-2.838-0.122-4.256
			c4.649,8.776,6.884,18.353,6.791,27.859c0.001,0.014,0,0.028-0.002,0.042c-0.018,1.714-0.103,3.425-0.271,5.129
			c-0.003,0.016-0.001,0.033-0.002,0.048c-1.572,15.823-9.555,30.953-23.327,41.182c-12.897,9.576-28.44,13.045-43.175,10.927
			c-0.001,0.001-0.001,0.001-0.001,0.001l-0.011-0.001c-1.716-0.249-3.417-0.576-5.106-0.976c-0.014-0.001-0.026-0.003-0.037-0.006
			c-12.943-3.06-24.917-10.514-33.465-22.023c-6.984-9.406-10.662-20.223-11.349-31.105C87.275,64.793,88.8,67.312,90.591,69.723z"
			/>
	</g>
	<path style="fill:#505B66;" d="M408.35,159.967l-39.695-20.336l10.168-19.847l20.832,10.672
		c-6.631-13.25-14.643-25.686-23.849-37.123l-103,201.058c-9.329,18.209-2.13,40.533,16.08,49.862
		c18.21,9.329,40.533,2.129,49.862-16.08l77.521-151.323c-1.61-7.086-3.582-14.035-5.899-20.824L408.35,159.967z"/>
	<g style="opacity:0.16;">
		<path style="fill:#505B66;" d="M338.748,314.909c-9.329,18.21-31.652,25.409-49.862,16.081
			c-10.677-5.469-17.561-15.408-19.555-26.364c-2.866,15.661,4.655,31.994,19.555,39.626c18.21,9.329,40.533,2.129,49.862-16.08
			l77.521-151.323c-0.679-2.989-1.437-5.946-2.243-8.884L338.748,314.909z"/>
	</g>
	
		<rect x="300.457" y="266.984" transform="matrix(0.89 0.456 -0.456 0.89 162.3183 -116.5682)" style="fill:#EA7053;" width="44.6" height="22.3"/>
	
		<rect x="318.164" y="232.419" transform="matrix(0.89 0.4559 -0.4559 0.89 148.4964 -128.4391)" style="fill:#EA7053;" width="44.6" height="22.301"/>
	
		<rect x="335.871" y="197.854" transform="matrix(0.89 0.4559 -0.4559 0.89 134.684 -140.3136)" style="fill:#EA7053;" width="44.601" height="22.301"/>
	
		<rect x="353.579" y="163.29" transform="matrix(0.89 0.4559 -0.4559 0.89 120.8799 -152.1942)" style="fill:#EA7053;" width="44.601" height="22.3"/>
	<path style="fill:#EA7053;" d="M368.655,139.631l39.695,20.336l2.019-3.942c-3.006-8.808-6.597-17.342-10.715-25.569
		l-20.832-10.672L368.655,139.631z"/>
</g>
<g>
</g>
<g>
</g>
<g>
</g>
<g>
</g>
<g>
</g>
<g>
</g>
<g>
</g>
<g>
</g>
<g>
</g>
<g>
</g>
<g>
</g>
<g>
</g>
<g>
</g>
<g>
</g>
<g>
</g>
</svg>
