<?xml version="1.0" encoding="iso-8859-1"?>
<!-- Generator: Adobe Illustrator 19.1.0, SVG Export Plug-In . SVG Version: 6.00 Build 0)  -->
<svg version="1.1" id="Capa_1" xmlns="http://www.w3.org/2000/svg" xmlns:xlink="http://www.w3.org/1999/xlink" x="0px" y="0px"
	 viewBox="0 0 412.983 412.983" style="enable-background:new 0 0 412.983 412.983;" xml:space="preserve">
<g>
	<g>
		<circle style="fill:#B6A875;" cx="206.492" cy="206.492" r="206.492"/>
		<circle style="opacity:0.67;fill:#EA7053;" cx="206.492" cy="206.492" r="206.492"/>
	</g>
	<g>
		<polygon style="fill:#FFFFFF;" points="325.606,149.112 305.519,238.068 179.353,293.046 86.704,238.068 120.851,149.112 		"/>
	</g>
	<ellipse style="opacity:0.31;fill:#EA7053;" cx="293.105" cy="170.353" rx="51.917" ry="18.206"/>
	<g>
		<g>
			<circle style="fill:#EAEBED;" cx="318.398" cy="68.129" r="52.252"/>
			<path style="fill:#E96660;" d="M326.037,64.322c-4.447-16.376-1.217-33.052,7.476-46.208c2.987,0.906,5.883,2.063,8.645,3.478
				c-8.089,11.268-11.252,25.944-7.34,40.346c4.14,15.248,15.289,26.714,29.016,31.988c-1.54,2.713-3.327,5.284-5.331,7.687
				C343.114,95.001,330.76,81.705,326.037,64.322z"/>
			<path style="fill:#E96660;" d="M292.254,113.368c9.175-11.494,12.988-27.026,8.848-42.272
				c-3.912-14.402-14.063-25.46-26.746-31.087c1.673-2.618,3.585-5.082,5.701-7.373c14.152,6.951,25.376,19.699,29.826,36.076
				c4.719,17.381,0.79,35.101-9.14,48.589C297.798,116.24,294.958,114.928,292.254,113.368z"/>
		</g>
		<path style="opacity:0.47;fill:#EAEBED;" d="M349.825,105.667c-12.367,3.358-24.896,1.974-35.676-3.031
			c-0.011-0.005-0.02-0.01-0.031-0.016c-1.406-0.653-2.783-1.362-4.125-2.137c-0.002-0.002-0.007-0.003-0.007-0.003
			s-0.002-0.001-0.002-0.003c-11.519-6.657-20.518-17.686-24.281-31.541c-4.019-14.796-1.263-29.835,6.382-41.816
			c0.006-0.012,0.017-0.022,0.024-0.035c0.824-1.289,1.711-2.539,2.646-3.753c0.007-0.01,0.014-0.019,0.022-0.029
			c0.773-1.003,1.596-1.974,2.439-2.92c-8.116,3.591-14.98,9.083-20.169,15.81c-0.009,0.01-0.016,0.02-0.023,0.03
			c-0.935,1.214-1.821,2.464-2.645,3.753c-0.007,0.013-0.019,0.023-0.024,0.035c-7.644,11.982-10.4,27.02-6.382,41.817
			c3.763,13.856,12.761,24.884,24.28,31.541v0.001c0.003,0.002,0.007,0.003,0.01,0.005c1.341,0.774,2.718,1.484,4.125,2.137
			c0.011,0.006,0.02,0.011,0.03,0.017c10.781,5.005,23.311,6.389,35.676,3.03c10.105-2.744,18.667-8.307,25.164-15.57
			C354.878,104.038,352.415,104.964,349.825,105.667z"/>
	</g>
	<g>
		<defs>
			<path id="SVGID_1_" d="M412.603,206.492c0,113.832-92.279,206.111-206.111,206.111S0.381,320.324,0.381,206.492
				C0.381,90.073,92.66,0.381,206.492,0.381S412.603,92.66,412.603,206.492z"/>
		</defs>
		<clipPath id="SVGID_2_">
			<use xlink:href="#SVGID_1_"  style="overflow:visible;"/>
		</clipPath>
		<g style="clip-path:url(#SVGID_2_);">
			<path style="fill:#505B66;" d="M135.221,343.131c18.684-4.318,30.33-22.965,26.012-41.65L87.037,25.453
				c-15.616,7.531-30.492,16.562-44.402,26.973l50.936,264.692C97.889,335.802,116.536,347.448,135.221,343.131z"/>
			<path style="opacity:0.27;fill:#505B66;" d="M148.758,325.304c-18.685,4.318-37.332-7.328-41.65-26.013L57.633,42.192
				c-5.068,3.285-10.034,6.73-14.877,10.355l50.936,264.692c4.319,18.684,22.966,30.331,41.65,26.013
				c12.318-2.847,21.574-11.923,25.216-23.132C157.081,322.504,153.114,324.298,148.758,325.304z"/>
		</g>
	</g>
</g>
<g>
</g>
<g>
</g>
<g>
</g>
<g>
</g>
<g>
</g>
<g>
</g>
<g>
</g>
<g>
</g>
<g>
</g>
<g>
</g>
<g>
</g>
<g>
</g>
<g>
</g>
<g>
</g>
<g>
</g>
</svg>
