<?xml version="1.0" encoding="iso-8859-1"?>
<!-- Generator: Adobe Illustrator 19.1.0, SVG Export Plug-In . SVG Version: 6.00 Build 0)  -->
<svg version="1.1" id="Capa_1" xmlns="http://www.w3.org/2000/svg" xmlns:xlink="http://www.w3.org/1999/xlink" x="0px" y="0px"
	 viewBox="0 0 430.836 430.836" style="enable-background:new 0 0 430.836 430.836;" xml:space="preserve">
<g>
	<path style="fill:#F2AA99;" d="M423.345,222.91c0-114.837-93.09-207.928-207.925-207.928
		c-114.839,0-207.929,93.091-207.929,207.928c0,114.835,93.09,207.926,207.929,207.926
		C330.256,430.836,423.345,337.745,423.345,222.91z"/>
	<path style="opacity:0.7;fill:#52615C;" d="M423.345,222.91c0-114.837-93.09-207.928-207.925-207.928
		c-114.839,0-207.929,93.091-207.929,207.928c0,114.835,93.09,207.926,207.929,207.926
		C330.256,430.836,423.345,337.745,423.345,222.91z"/>
	<g>
		<path style="fill:#F1F3E0;" d="M370.238,51.011C331.437-3.573,255.734-16.365,201.15,22.44
			c-54.581,38.803-67.378,114.506-28.569,169.089c38.799,54.58,114.506,67.373,169.087,28.57
			C396.25,181.295,409.043,105.594,370.238,51.011z"/>
		<path style="fill:#A54338;" d="M226.433,58.001c41.334-29.386,87.272-40.676,119.423-32.456
			c-6.109-4.755-12.609-8.859-19.392-12.312c-32.106-0.763-70.684,11.625-105.832,36.611
			c-35.144,24.986-59.522,57.352-69.348,87.926c1.029,7.539,2.771,15.025,5.251,22.358
			C159.34,127.062,185.096,87.386,226.433,58.001z"/>
		<path style="fill:#A54338;" d="M172.547,191.483c0.983,1.384,2.006,2.723,3.032,4.053L373.035,55.165
			c-0.898-1.38-1.804-2.759-2.763-4.11c-0.986-1.384-2.008-2.722-3.036-4.049l-197.456,140.37
			C170.679,188.755,171.586,190.13,172.547,191.483z"/>
		<path style="fill:#A54338;" d="M316.387,184.538c-41.337,29.382-87.278,40.672-119.423,32.456
			c6.109,4.755,12.605,8.859,19.39,12.308c32.108,0.767,70.682-11.623,105.829-36.607c35.149-24.986,59.526-57.354,69.349-87.926
			c-1.028-7.541-2.767-15.025-5.25-22.36C383.474,115.476,357.715,155.156,316.387,184.538z"/>
	</g>
	<path style="opacity:0.28;fill:#A2A39C;" d="M388.012,87.963c-0.013-0.041-0.026-0.082-0.037-0.122
		c-0.519-1.81-1.078-3.612-1.686-5.406c-0.002-0.008-0.004-0.016-0.008-0.025v0.004c-3.189-9.418-7.593-18.572-13.246-27.249
		c-0.898-1.38-1.804-2.759-2.763-4.11c-0.986-1.384-2.008-2.722-3.036-4.049h-0.002c-7.544-9.749-16.31-18.043-25.928-24.827
		c-0.045-0.033-0.088-0.065-0.133-0.098c-1.537-1.08-3.095-2.118-4.674-3.123c-0.037-0.024-0.075-0.051-0.114-0.073
		c-1.592-1.01-3.206-1.98-4.837-2.908c-0.022-0.014-0.047-0.027-0.069-0.043c-0.806-0.457-1.629-0.878-2.443-1.316
		c6.759,5.596,13.004,12,18.58,19.204h0.002c1.028,1.327,2.049,2.665,3.036,4.049c0.96,1.351,1.865,2.731,2.763,4.11
		c5.653,8.678,10.057,17.831,13.246,27.25v-0.004c0.004,0.008,0.006,0.016,0.008,0.025c0.607,1.794,1.166,3.596,1.685,5.404
		c0.011,0.043,0.024,0.084,0.038,0.124c13.717,48.029-3.315,101.547-46.344,132.135c-38.062,27.06-86.384,29-125.312,9.204h-0.002
		c-0.009-0.006-0.017-0.01-0.026-0.012c-0.786-0.402-1.555-0.841-2.331-1.257c0.864,0.712,1.705,1.461,2.585,2.145l0,0
		c0.004,0.004,0.008,0.008,0.011,0.012c1.487,1.153,2.998,2.267,4.528,3.347c0.048,0.037,0.097,0.071,0.146,0.108
		c1.535,1.078,3.093,2.116,4.67,3.118c0.037,0.024,0.076,0.051,0.114,0.076c1.597,1.012,3.213,1.982,4.85,2.916
		c0.017,0.008,0.034,0.018,0.05,0.029c1.646,0.939,3.311,1.831,4.993,2.69c0.01,0.004,0.017,0.006,0.026,0.012h0.002
		c38.929,19.798,87.25,17.855,125.312-9.204C384.697,189.51,401.728,135.992,388.012,87.963z"/>
	<path style="fill:#FFFFFF;" d="M250.969,401.089c5.555-8.529,9.854-16.79,12.98-24.786h91.834
		c10.735-9.829,20.438-20.768,28.92-32.637H269.904c-0.383-7.529-2.085-14.733-5.161-21.58
		c-12.551-27.933-46.37-46.217-100.517-54.344c-16.936-2.543-34.253-3.831-51.468-3.831c-25.317,0-60.681,2.916-97.624,15.023
		c3.136,11.233,7.195,22.084,12.085,32.466c32.278-10.423,63.304-12.931,85.538-12.931c15.505,0,31.095,1.159,46.338,3.449
		c40.589,6.092,66.913,18.286,74.124,34.333c1.033,2.296,1.678,4.776,1.98,7.414H46.134c8.482,11.87,18.184,22.809,28.92,32.637
		h150.591c-1.122,1.939-2.321,3.908-3.637,5.929c-12.213,18.758-28.75,33.294-47.84,44.507c13.334,2.686,27.126,4.098,41.251,4.098
		c3.666,0,7.309-0.098,10.927-0.284C235.498,421.848,243.803,412.095,250.969,401.089z"/>
	<ellipse style="opacity:0.31;fill:#3A4441;" cx="248.57" cy="307.336" rx="97.286" ry="22.507"/>
</g>
<g>
</g>
<g>
</g>
<g>
</g>
<g>
</g>
<g>
</g>
<g>
</g>
<g>
</g>
<g>
</g>
<g>
</g>
<g>
</g>
<g>
</g>
<g>
</g>
<g>
</g>
<g>
</g>
<g>
</g>
</svg>
