<?xml version="1.0" encoding="iso-8859-1"?>
<!-- Generator: Adobe Illustrator 19.1.0, SVG Export Plug-In . SVG Version: 6.00 Build 0)  -->
<svg version="1.1" id="Capa_1" xmlns="http://www.w3.org/2000/svg" xmlns:xlink="http://www.w3.org/1999/xlink" x="0px" y="0px"
	 viewBox="0 0 437.396 437.396" style="enable-background:new 0 0 437.396 437.396;" xml:space="preserve">
<g>
	<path style="fill:#EAEBED;" d="M427.272,208.574C427.272,93.381,333.89,0,218.699,0C103.504,0,10.125,93.381,10.125,208.574
		s93.379,208.574,208.575,208.574C333.89,417.149,427.272,323.768,427.272,208.574z"/>
	<polygon style="fill:none;" points="420.877,148.462 420.876,148.462 420.868,148.466 	"/>
	<path style="fill:#3D3C3C;" d="M60.221,72.981c-0.009,0.454-0.025,0.907-0.025,1.363v206.589c0,39.858,36.267,75.719,91.588,90.53
		c2.384,0.638,4.741,1.267,7.06,1.883c34.793,9.246,73.568,9.179,108.285-0.193c2.333-0.63,4.714-1.275,7.135-1.933
		c54.956-14.948,90.918-50.667,90.918-90.349V74.327c0-5.502-0.014-7.753-0.014-14.132C328.056,23.082,274.785,0,218.699,0
		C155.277,0,98.475,28.313,60.221,72.981z"/>
	<g>
		<path style="fill:#00B5AE;" d="M309.618,20.814C282.137,7.482,251.292,0,218.697,0c-37.436,0-72.564,9.871-102.936,27.139
			c-10.473,5.955-20.384,12.783-29.624,20.397l12.617,118.542c3.373,17.34,18.582,29.842,36.248,29.789
			c28.669-0.085,77.687-0.2,77.687-0.2s48.712,0.114,77.344,0.199c17.817,0.053,33.115-12.66,36.325-30.185l12.883-127.336
			C329.907,31.723,320.002,25.852,309.618,20.814z"/>
		<path style="fill:#F4B7A9;" d="M212.688,178.571c-21.951,0-39.743,3.127-39.743,6.986v125.351h79.488V185.557
			C252.434,181.698,234.639,178.571,212.688,178.571z"/>
		<g>
			<path style="fill:#4E82B7;" d="M303.341,346.746c0,50.066-40.584,90.65-90.65,90.65l0,0c-50.066,0-90.653-40.584-90.653-90.65
				v-46.222c0-50.068,40.587-90.655,90.653-90.655l0,0c50.066,0,90.65,40.587,90.65,90.655V346.746z"/>
			<path style="opacity:0.22;fill:#505B66;" d="M212.691,209.869c-1.796,0-3.573,0.067-5.341,0.168
				c47.574,2.771,85.305,42.214,85.305,90.487v46.222c0,48.269-37.732,87.714-85.305,90.483c1.769,0.101,3.546,0.167,5.341,0.167
				c50.066,0,90.65-40.584,90.65-90.65v-46.222C303.341,250.456,262.757,209.869,212.691,209.869z"/>
			<path style="fill:#AFEBFF;" d="M163.473,412.01c-4.092,0-8.03,0.655-11.732,1.84c16.1,14.629,37.483,23.546,60.95,23.546
				c23.409,0,44.743-8.875,60.829-23.445c-3.781-1.243-7.813-1.942-12.012-1.942H163.473z"/>
			<path style="fill:#AFEBFF;" d="M170.633,412.01l-8.132,10.212c1.637,1.091,3.309,2.134,5.017,3.116l10.618-13.328H170.633z"/>
			<path style="fill:#AFEBFF;" d="M184.433,412.01l-12.519,15.72c1.796,0.906,3.637,1.73,5.497,2.518l14.527-18.238H184.433z"/>
		</g>
	</g>
	<path style="fill:#015A56;" d="M258.889,189.838c0,5.845-3.272,10.583-7.307,10.583h-76.728c-4.036,0-7.307-4.738-7.307-10.583
		v-0.756c0-5.845,3.272-10.583,7.307-10.583h76.728c4.036,0,7.307,4.738,7.307,10.583V189.838z"/>
	<path style="fill:#00B5AE;" d="M115.761,27.139c0,0,16.305,99.779,18.902,98.643c7.147-0.041-14.549-101.028-14.549-101.028
		L115.761,27.139z"/>
	<path style="fill:#00B5AE;" d="M313.555,22.767c0,0-16.75,103.443-19.658,103.014c-5.042-0.887,15.344-105.244,15.344-105.244
		L313.555,22.767z"/>
	<g style="opacity:0.46;">
		<path style="fill:#FFFFFF;" d="M136.862,328.086c-2.663-0.075-4.868-2.284-5.02-5.133c-1.542-29.021,3.245-52.26,14.226-69.072
			c10.08-15.434,22.951-21.45,29.726-23.663c2.739-0.892,5.641,0.714,6.484,3.59c0.842,2.877-0.694,5.935-3.432,6.829
			c-12.113,3.956-39.931,19.834-36.645,81.677c0.16,3.008-2.03,5.589-4.89,5.765C137.16,328.088,137.01,328.09,136.862,328.086z"/>
	</g>
	<g style="opacity:0.46;">
		<circle style="fill:#FFFFFF;" cx="136.903" cy="336.783" r="4.909"/>
	</g>
</g>
<g>
</g>
<g>
</g>
<g>
</g>
<g>
</g>
<g>
</g>
<g>
</g>
<g>
</g>
<g>
</g>
<g>
</g>
<g>
</g>
<g>
</g>
<g>
</g>
<g>
</g>
<g>
</g>
<g>
</g>
</svg>
