<?xml version="1.0" encoding="iso-8859-1"?>
<!-- Generator: Adobe Illustrator 19.1.0, SVG Export Plug-In . SVG Version: 6.00 Build 0)  -->
<svg version="1.1" id="Capa_1" xmlns="http://www.w3.org/2000/svg" xmlns:xlink="http://www.w3.org/1999/xlink" x="0px" y="0px"
	 viewBox="0 0 467 467" style="enable-background:new 0 0 467 467;" xml:space="preserve">
<g>
	<circle style="fill:#F5ECE1;" cx="259.431" cy="233.5" r="207.57"/>
	<circle style="fill:#F5ECE1;" cx="259.431" cy="233.5" r="207.57"/>
	<circle style="fill:#F5ECE1;" cx="259.431" cy="233.5" r="207.57"/>
	<circle style="fill:#F5ECE1;" cx="259.431" cy="233.5" r="207.57"/>
	<path style="fill:#505B66;" d="M266.84,440.922l182.934-290.311c-4.245-9.73-9.207-19.072-14.829-27.957L235.197,439.652
		c7.951,0.926,16.036,1.416,24.236,1.416C261.915,441.069,264.382,441.008,266.84,440.922z"/>
	<path style="fill:#505B66;" d="M458.715,175.293L292.948,438.362c13.457-2.188,26.48-5.661,38.936-10.302l134.282-213.102
		C464.959,201.313,462.434,188.049,458.715,175.293z"/>
	<path style="fill:#EAEBED;" d="M266.84,440.922c8.855-0.31,17.569-1.176,26.108-2.56l165.767-263.069
		c-2.469-8.464-5.462-16.703-8.941-24.681L266.84,440.922z"/>
	<path style="fill:#D4CCC2;" d="M235.902,249.564c-17.216-20.495-70.029-4.459-117.966,35.807
		c-17.287,14.519-31.557,30.206-41.957,45.296c12.857,24.223,30.359,45.601,51.336,62.932c16.967-7.641,35.296-19.177,52.964-34.019
		C228.212,319.313,253.116,270.057,235.902,249.564z"/>
	<g>
		<circle style="fill:#00B5AE;" cx="107.769" cy="249.966" r="107.744"/>
		<path style="opacity:0.18;fill:#007A76;" d="M194.222,185.685c10.814,21.831,14.339,47.425,8.198,72.966
			c-13.912,57.856-72.093,93.479-129.949,79.568c-25.54-6.141-46.735-20.918-61.263-40.474
			c13.685,27.619,39.054,49.209,71.37,56.979c57.857,13.912,116.035-21.711,129.949-79.567
			C220.298,242.841,212.602,210.431,194.222,185.685z"/>
		<circle style="fill:#505B66;" cx="90.259" cy="223.85" r="7.666"/>
		<circle style="fill:#505B66;" cx="137.467" cy="235.202" r="7.666"/>
		<circle style="fill:#505B66;" cx="118.076" cy="203.533" r="7.666"/>
	</g>
</g>
<g>
</g>
<g>
</g>
<g>
</g>
<g>
</g>
<g>
</g>
<g>
</g>
<g>
</g>
<g>
</g>
<g>
</g>
<g>
</g>
<g>
</g>
<g>
</g>
<g>
</g>
<g>
</g>
<g>
</g>
</svg>
