<?xml version="1.0" encoding="iso-8859-1"?>
<!-- Generator: Adobe Illustrator 19.1.0, SVG Export Plug-In . SVG Version: 6.00 Build 0)  -->
<svg version="1.1" id="Capa_1" xmlns="http://www.w3.org/2000/svg" xmlns:xlink="http://www.w3.org/1999/xlink" x="0px" y="0px"
	 viewBox="0 0 476.218 476.218" style="enable-background:new 0 0 476.218 476.218;" xml:space="preserve">
<g>
	<path style="fill:#505B66;" d="M445.092,238.108c0-114.314-92.667-206.983-206.981-206.983
		c-114.318,0-206.986,92.67-206.986,206.983c0,114.316,92.668,206.985,206.986,206.985
		C352.426,445.093,445.092,352.424,445.092,238.108z"/>
	<ellipse style="opacity:0.29;fill:#333332;" cx="243.734" cy="378.862" rx="125.617" ry="25.505"/>
	<g>
		<g>
			<g>
				<path style="fill:#EA7053;" d="M319.33,312.023l57.126-24.762c6.855-4.065,14.886-7.851,31.078-26.014l26.864-14.792
					c19.757-8.564,33.474-20.801,24.91-40.556l-24.978-57.626c-8.564-19.755-31.519-28.829-51.275-20.265l-20.814,9.023
					c-2.457-0.629-5.599-1.37-9.65-2.262c-10.222-2.249-17.401-4.694-27.534-2.081l-62.478,5.723
					c-10.135,2.613-16.231,12.948-13.616,23.081c1.335,5.184,4.696,9.299,9.01,11.744c-19.05,8.9-27.692,31.372-19.276,50.788
					l34.009,78.455C281.266,322.234,299.575,320.587,319.33,312.023z M354.127,140.547l-1.009,0.439
					C353.132,140.787,353.511,140.645,354.127,140.547z"/>
				<path style="fill:#F5ECE1;" d="M475.279,216.661l-40.922-94.399c-3.324-7.667-12.233-11.188-19.9-7.864l-34.625,15.01
					l51.45,118.69l38.1-16.516C475.13,229.09,477.771,222.409,475.279,216.661z"/>
				<path style="fill:#F5ECE1;" d="M356.113,258.79l-32.37-74.672c-2.796-6.451-10.292-9.413-16.743-6.617l-16.727,7.251
					c-6.451,2.796-9.413,10.292-6.617,16.743l32.369,74.673c2.796,6.451,10.293,9.413,16.744,6.617l16.728-7.252
					C355.947,272.736,358.91,265.24,356.113,258.79z"/>
			</g>
			<g style="opacity:0.25;">
				<path style="fill:#A04C39;" d="M245.779,195.132l34.009,78.455c8.562,19.754,26.871,18.107,46.626,9.543l57.126-24.762
					c6.854-4.064,14.886-7.85,31.078-26.014l24.376-13.422l31.373-13.601l4.911,11.33c2.492,5.749-0.148,12.429-5.897,14.921
					l-37.471,16.243l-24.376,13.422c-16.192,18.164-24.223,21.95-31.078,26.014l-57.126,24.762
					c-19.755,8.564-38.064,10.211-46.626-9.543l-34.009-78.455c-5.707-13.164-3.552-27.72,4.352-38.513
					C243.543,188.753,244.412,191.984,245.779,195.132z"/>
			</g>
		</g>
		<g>
			<g>
				<path style="fill:#EA7053;" d="M203.514,302.48l34.009-78.455c8.416-19.416-0.226-41.887-19.276-50.788
					c4.313-2.445,7.675-6.56,9.01-11.744c2.616-10.134-3.481-20.468-13.616-23.081l-62.478-5.723
					c-10.133-2.613-17.313-0.169-27.534,2.081c-4.052,0.891-7.194,1.633-9.65,2.262l-20.814-9.023
					c-19.757-8.564-42.711,0.51-51.275,20.265L16.91,205.899c-8.564,19.755,5.153,31.992,24.91,40.556l26.864,14.792
					c16.192,18.164,24.223,21.95,31.078,26.014l57.126,24.762C176.643,320.587,194.952,322.234,203.514,302.48z M123.1,140.986
					l-1.009-0.439C122.707,140.645,123.086,140.787,123.1,140.986z"/>
				<path style="fill:#F5ECE1;" d="M0.939,216.661l40.922-94.399c3.324-7.667,12.233-11.188,19.9-7.864l34.625,15.01l-51.45,118.69
					l-38.1-16.516C1.087,229.09-1.553,222.409,0.939,216.661z"/>
				<path style="fill:#F5ECE1;" d="M120.104,258.79l32.37-74.672c2.796-6.451,10.292-9.413,16.743-6.617l16.727,7.251
					c6.451,2.796,9.413,10.292,6.617,16.743l-32.369,74.673c-2.796,6.451-10.293,9.413-16.744,6.617l-16.728-7.252
					C120.27,272.736,117.308,265.24,120.104,258.79z"/>
			</g>
			<g style="opacity:0.25;">
				<path style="fill:#A04C39;" d="M230.439,195.132l-34.009,78.455c-8.562,19.754-26.871,18.107-46.626,9.543l-57.126-24.762
					c-6.854-4.064-14.886-7.85-31.078-26.014l-24.376-13.422L5.85,205.331l-4.911,11.33c-2.492,5.749,0.148,12.429,5.897,14.921
					l37.471,16.243l24.376,13.422c16.192,18.164,24.223,21.95,31.078,26.014l57.126,24.762c19.755,8.564,38.064,10.211,46.626-9.543
					l34.009-78.455c5.707-13.164,3.552-27.72-4.352-38.513C232.674,188.753,231.805,191.984,230.439,195.132z"/>
			</g>
		</g>
	</g>
</g>
<g>
</g>
<g>
</g>
<g>
</g>
<g>
</g>
<g>
</g>
<g>
</g>
<g>
</g>
<g>
</g>
<g>
</g>
<g>
</g>
<g>
</g>
<g>
</g>
<g>
</g>
<g>
</g>
<g>
</g>
</svg>
