<?xml version="1.0" encoding="iso-8859-1"?>
<!-- Generator: Adobe Illustrator 19.1.0, SVG Export Plug-In . SVG Version: 6.00 Build 0)  -->
<svg version="1.1" id="Capa_1" xmlns="http://www.w3.org/2000/svg" xmlns:xlink="http://www.w3.org/1999/xlink" x="0px" y="0px"
	 viewBox="0 0 448.43 448.43" style="enable-background:new 0 0 448.43 448.43;" xml:space="preserve">
<g>
	<circle style="fill:#9FBE5B;" cx="222.222" cy="239.738" r="208.692"/>
	<g>
		<circle style="fill:#F1F3E0;" cx="404.691" cy="277.278" r="30.204"/>
		<path style="opacity:0.81;fill:#B5B6A8;" d="M428.163,258.269c3.176,5.975,4.373,13.047,2.916,20.192
			c-3.332,16.348-19.282,26.896-35.627,23.565c-7.147-1.457-13.184-5.326-17.44-10.587c4.086,7.688,11.449,13.561,20.647,15.437
			c16.346,3.329,32.296-7.219,35.627-23.565C436.16,274.113,433.639,265.038,428.163,258.269z"/>
	</g>
	<ellipse style="opacity:0.36;fill:#778F44;" cx="362.251" cy="346.896" rx="36.131" ry="13.612"/>
	<path style="fill:#EA7053;" d="M300.248,240.892c0.047,0.542,0.092,1.087,0.114,1.631
		C300.34,241.976,300.296,241.434,300.248,240.892z"/>
	<path style="fill:#EA7053;" d="M299.789,237.487c0.1,0.546,0.192,1.095,0.267,1.645
		C299.981,238.582,299.889,238.035,299.789,237.487z"/>
	<path style="fill:#EA7053;" d="M300.386,244.34c-0.002,0.534-0.004,1.068-0.031,1.602
		C300.381,245.408,300.383,244.876,300.386,244.34z"/>
	<path style="fill:#EA7053;" d="M299.016,234.152c0.154,0.544,0.294,1.093,0.421,1.643
		C299.309,235.242,299.17,234.696,299.016,234.152z"/>
	<path style="fill:#EA7053;" d="M298.78,254.792c-0.141,0.456-0.26,0.913-0.418,1.367
		C298.52,255.705,298.639,255.248,298.78,254.792z"/>
	<path style="fill:#EA7053;" d="M299.666,251.297c-0.099,0.497-0.184,0.994-0.306,1.488
		C299.482,252.292,299.567,251.794,299.666,251.297z"/>
	<path style="fill:#EA7053;" d="M300.195,247.812c-0.052,0.522-0.097,1.042-0.173,1.561
		C300.1,248.854,300.143,248.334,300.195,247.812z"/>
	<path style="fill:#EA7053;" d="M297.939,230.904c0.207,0.538,0.395,1.082,0.577,1.629
		C298.334,231.987,298.146,231.442,297.939,230.904z"/>
	<path style="fill:#EA7053;" d="M290.711,219.253c0.427,0.46,0.816,0.947,1.216,1.428
		C291.527,220.2,291.138,219.715,290.711,219.253z"/>
	<path style="fill:#EA7053;" d="M288.208,216.787c0.484,0.43,0.926,0.892,1.383,1.346
		C289.134,217.679,288.692,217.217,288.208,216.787z"/>
	<path style="fill:#EA7053;" d="M285.441,214.54c0.543,0.397,1.042,0.835,1.56,1.256
		C286.482,215.375,285.984,214.937,285.441,214.54z"/>
	<path style="fill:#EA7053;" d="M292.943,221.921c0.371,0.489,0.711,0.995,1.054,1.5
		C293.652,222.916,293.315,222.41,292.943,221.921z"/>
	<path style="fill:#EA7053;" d="M297.48,258.355c-0.159,0.368-0.287,0.745-0.459,1.113C297.19,259.1,297.321,258.723,297.48,258.355
		z"/>
	<path style="fill:#EA7053;" d="M294.896,224.767c0.316,0.51,0.604,1.033,0.894,1.559
		C295.5,225.801,295.213,225.277,294.896,224.767z"/>
	<path style="fill:#EA7053;" d="M296.563,227.767c0.26,0.528,0.498,1.064,0.735,1.6
		C297.061,228.831,296.825,228.295,296.563,227.767z"/>
	<path style="fill:#EA7053;" d="M118.179,229.461c-1.8-1.649-3.408-3.448-4.815-5.376
		C114.771,226.014,116.378,227.814,118.179,229.461z"/>
	<path style="fill:#EA7053;" d="M124.292,233.992c-1.101-0.653-2.155-1.35-3.161-2.095
		C122.137,232.639,123.191,233.341,124.292,233.992z"/>
	<polygon style="fill:#EA7053;" points="124.292,233.992 131.756,238.399 131.756,238.399 	"/>
	<path style="fill:#EA7053;" d="M120.842,231.661c-0.903-0.681-1.778-1.387-2.601-2.138
		C119.065,230.272,119.938,230.98,120.842,231.661z"/>
	<path style="fill:#EA7053;" d="M174.58,148.849c-17.412-10.282-39.86-4.506-50.145,12.906l-13.05,22.093
		c-7.673,12.992-6.393,28.785,1.979,40.238c0.961,0.702,1.962,1.371,3.01,1.991l7.466,4.408v0.002l100.379,59.288
		c17.41,10.284,39.858,4.506,50.143-12.904l13.05-22.093c7.673-12.996,6.396-28.787-1.978-40.24
		c-0.962-0.704-1.962-1.371-3.011-1.991l-38.159-22.54l1.419-2.4l-9.336-5.515l76.9-130.195c-4.861-2.359-9.827-4.537-14.89-6.524
		l-77.322,130.916L174.58,148.849z"/>
	<path style="fill:#EA7053;" d="M295.791,226.327c0.265,0.477,0.53,0.954,0.772,1.441
		C296.321,227.28,296.056,226.803,295.791,226.327z"/>
	<path style="fill:#EA7053;" d="M297.298,229.367c0.224,0.509,0.442,1.021,0.642,1.537
		C297.74,230.388,297.522,229.877,297.298,229.367z"/>
	<path style="fill:#EA7053;" d="M298.516,232.533c0.177,0.536,0.347,1.076,0.499,1.619
		C298.863,233.607,298.693,233.071,298.516,232.533z"/>
	<path style="fill:#EA7053;" d="M291.926,220.681c0.343,0.411,0.695,0.816,1.017,1.24
		C292.621,221.497,292.269,221.092,291.926,220.681z"/>
	<polygon style="fill:#EA7053;" points="285.435,214.536 285.435,214.538 285.441,214.54 	"/>
	<path style="fill:#EA7053;" d="M287.001,215.796c0.402,0.331,0.822,0.645,1.207,0.99
		C287.823,216.441,287.403,216.128,287.001,215.796z"/>
	<path style="fill:#EA7053;" d="M297.02,259.468c-0.508,1.091-1.066,2.167-1.692,3.225
		C295.954,261.635,296.513,260.558,297.02,259.468z"/>
	<path style="fill:#EA7053;" d="M289.592,218.133c0.374,0.372,0.764,0.733,1.119,1.119
		C290.356,218.866,289.966,218.506,289.592,218.133z"/>
	<path style="fill:#EA7053;" d="M293.997,223.421c0.304,0.446,0.615,0.888,0.899,1.346
		C294.612,224.309,294.301,223.867,293.997,223.421z"/>
	<polygon style="fill:#EA7053;" points="113.365,224.086 113.365,224.086 113.365,224.086 	"/>
	<path style="fill:#EA7053;" d="M121.13,231.896c-0.102-0.076-0.188-0.16-0.289-0.235
		C120.942,231.737,121.028,231.821,121.13,231.896z"/>
	<path style="fill:#EA7053;" d="M299.437,235.795c0.13,0.563,0.247,1.125,0.352,1.692
		C299.684,236.92,299.569,236.357,299.437,235.795z"/>
	<path style="fill:#EA7053;" d="M300.355,245.942c-0.031,0.624-0.095,1.248-0.16,1.87
		C300.26,247.19,300.324,246.566,300.355,245.942z"/>
	<path style="fill:#EA7053;" d="M298.363,256.159c-0.26,0.739-0.572,1.465-0.883,2.196
		C297.791,257.624,298.103,256.898,298.363,256.159z"/>
	<path style="fill:#EA7053;" d="M300.022,249.374c-0.094,0.642-0.226,1.285-0.356,1.923
		C299.796,250.659,299.928,250.016,300.022,249.374z"/>
	<path style="fill:#EA7053;" d="M299.36,252.785c-0.165,0.673-0.378,1.338-0.58,2.007
		C298.983,254.123,299.196,253.458,299.36,252.785z"/>
	<polygon style="fill:#EA7053;" points="131.756,238.402 232.137,297.69 131.756,238.399 	"/>
	<path style="fill:#EA7053;" d="M118.241,229.523c-0.023-0.02-0.039-0.043-0.061-0.061
		C118.202,229.48,118.218,229.502,118.241,229.523z"/>
	<path style="fill:#EA7053;" d="M300.362,242.523c0.028,0.604,0.028,1.209,0.024,1.817
		C300.39,243.732,300.39,243.126,300.362,242.523z"/>
	<path style="fill:#EA7053;" d="M300.056,239.132c0.079,0.585,0.139,1.17,0.192,1.76
		C300.195,240.303,300.135,239.717,300.056,239.132z"/>
	<path style="fill:#EA7053;" d="M339.418,0c0.363,0.172,0.722,0.354,1.074,0.565C340.138,0.354,339.781,0.168,339.418,0z"/>
	<rect x="284.285" y="46.35" style="fill:#EA7053;" width="0" height="151.806"/>
	<ellipse style="opacity:0.36;fill:#778F44;" cx="189.467" cy="338.662" rx="103.414" ry="19.37"/>
	<path style="fill:#EA7053;" d="M287.412,254.778l-13.05,22.093c-10.284,17.409-32.733,23.188-50.143,12.904L123.84,230.487v-0.002
		l-7.466-4.408c-1.048-0.62-2.049-1.289-3.01-1.991l0,0c1.407,1.928,3.015,3.726,4.815,5.376c0.023,0.018,0.039,0.041,0.061,0.061
		c0.823,0.751,1.697,1.457,2.601,2.138c0.1,0.076,0.186,0.16,0.289,0.235c1.007,0.745,2.061,1.443,3.161,2.095l7.465,4.408l0,0
		l100.38,59.29c17.409,10.285,39.858,4.506,50.143-12.904l13.049-22.093c0.626-1.058,1.185-2.134,1.692-3.225
		c0.172-0.368,0.301-0.745,0.459-1.113c0.311-0.73,0.623-1.457,0.883-2.196c0.158-0.454,0.276-0.911,0.418-1.367
		c0.203-0.669,0.415-1.334,0.58-2.007c0.122-0.493,0.207-0.99,0.306-1.488c0.13-0.638,0.262-1.281,0.356-1.923
		c0.076-0.52,0.121-1.04,0.173-1.561c0.064-0.622,0.129-1.246,0.16-1.87c0.027-0.534,0.029-1.068,0.031-1.602
		c0.004-0.608,0.004-1.213-0.024-1.817c-0.021-0.544-0.066-1.089-0.114-1.631c-0.053-0.589-0.114-1.175-0.192-1.76
		c-0.075-0.55-0.167-1.099-0.267-1.645c-0.105-0.567-0.222-1.13-0.352-1.692c-0.128-0.55-0.267-1.099-0.421-1.643
		c-0.152-0.542-0.322-1.082-0.499-1.619c-0.182-0.546-0.37-1.091-0.577-1.629c-0.199-0.516-0.417-1.027-0.642-1.537
		c-0.236-0.536-0.475-1.072-0.735-1.6c-0.243-0.487-0.508-0.964-0.772-1.441c-0.291-0.526-0.578-1.05-0.894-1.559
		c-0.284-0.458-0.595-0.9-0.899-1.346c-0.343-0.505-0.682-1.011-1.054-1.5c-0.322-0.424-0.674-0.829-1.017-1.24
		c-0.399-0.481-0.789-0.968-1.216-1.428c-0.355-0.387-0.745-0.747-1.119-1.119c-0.457-0.454-0.899-0.917-1.383-1.346
		c-0.386-0.346-0.805-0.659-1.207-0.99c-0.519-0.421-1.017-0.859-1.56-1.256c-0.002-0.002-0.004-0.002-0.006-0.002
		C293.808,225.991,295.086,241.782,287.412,254.778z"/>
	<path style="fill:#EA7053;" d="M313.248,51.897l-76.9,130.195l9.336,5.515l77.202-130.709
		C319.721,55.151,316.511,53.479,313.248,51.897z"/>
	<path style="opacity:0.15;fill:#B0543E;" d="M287.412,254.778l-13.05,22.093c-10.284,17.409-32.733,23.188-50.143,12.904
		L123.84,230.487v-0.002l-7.466-4.408c-1.048-0.62-2.049-1.289-3.01-1.991l0,0c1.407,1.928,3.015,3.726,4.815,5.376
		c0.023,0.018,0.039,0.041,0.061,0.061c0.823,0.751,1.697,1.457,2.601,2.138c0.1,0.076,0.186,0.16,0.289,0.235
		c1.007,0.745,2.061,1.443,3.161,2.095l7.465,4.408l0,0l100.38,59.29c17.409,10.285,39.858,4.506,50.143-12.904l13.049-22.093
		c0.626-1.058,1.185-2.134,1.692-3.225c0.172-0.368,0.301-0.745,0.459-1.113c0.311-0.73,0.623-1.457,0.883-2.196
		c0.158-0.454,0.276-0.911,0.418-1.367c0.203-0.669,0.415-1.334,0.58-2.007c0.122-0.493,0.207-0.99,0.306-1.488
		c0.13-0.638,0.262-1.281,0.356-1.923c0.076-0.52,0.121-1.04,0.173-1.561c0.064-0.622,0.129-1.246,0.16-1.87
		c0.027-0.534,0.029-1.068,0.031-1.602c0.004-0.608,0.004-1.213-0.024-1.817c-0.021-0.544-0.066-1.089-0.114-1.631
		c-0.053-0.589-0.114-1.175-0.192-1.76c-0.075-0.55-0.167-1.099-0.267-1.645c-0.105-0.567-0.222-1.13-0.352-1.692
		c-0.128-0.55-0.267-1.099-0.421-1.643c-0.152-0.542-0.322-1.082-0.499-1.619c-0.182-0.546-0.37-1.091-0.577-1.629
		c-0.199-0.516-0.417-1.027-0.642-1.537c-0.236-0.536-0.475-1.072-0.735-1.6c-0.243-0.487-0.508-0.964-0.772-1.441
		c-0.291-0.526-0.578-1.05-0.894-1.559c-0.284-0.458-0.595-0.9-0.899-1.346c-0.343-0.505-0.682-1.011-1.054-1.5
		c-0.322-0.424-0.674-0.829-1.017-1.24c-0.399-0.481-0.789-0.968-1.216-1.428c-0.355-0.387-0.745-0.747-1.119-1.119
		c-0.457-0.454-0.899-0.917-1.383-1.346c-0.386-0.346-0.805-0.659-1.207-0.99c-0.519-0.421-1.017-0.859-1.56-1.256
		c-0.002-0.002-0.004-0.002-0.006-0.002C293.808,225.991,295.086,241.782,287.412,254.778z"/>
	<path style="opacity:0.15;fill:#EA7053;" d="M313.248,51.897l-76.9,130.195l9.336,5.515l77.202-130.709
		C319.721,55.151,316.511,53.479,313.248,51.897z"/>
	<path style="fill:#F9D363;" d="M282.423,212.547l-100.378-59.286l-50.289,85.141l100.38,59.288c0.28,0.166,0.57,0.289,0.854,0.448
		l50.238-85.059C282.954,212.909,282.704,212.713,282.423,212.547z"/>
</g>
<g>
</g>
<g>
</g>
<g>
</g>
<g>
</g>
<g>
</g>
<g>
</g>
<g>
</g>
<g>
</g>
<g>
</g>
<g>
</g>
<g>
</g>
<g>
</g>
<g>
</g>
<g>
</g>
<g>
</g>
</svg>
