<?xml version="1.0" encoding="iso-8859-1"?>
<!-- Generator: Adobe Illustrator 19.1.0, SVG Export Plug-In . SVG Version: 6.00 Build 0)  -->
<svg version="1.1" id="Capa_1" xmlns="http://www.w3.org/2000/svg" xmlns:xlink="http://www.w3.org/1999/xlink" x="0px" y="0px"
	 viewBox="0 0 422.363 422.363" style="enable-background:new 0 0 422.363 422.363;" xml:space="preserve">
<g>
	<circle style="fill:#9FBE5B;" cx="215.274" cy="211.181" r="207.089"/>
	<g>
		<circle style="fill:#505B66;" cx="29.978" cy="192.598" r="29.972"/>
		<path style="opacity:0.49;fill:#2D343A;" d="M53.27,173.736c3.152,5.929,4.339,12.946,2.894,20.037
			c-3.307,16.221-19.135,26.689-35.354,23.382c-7.093-1.445-13.083-5.284-17.307-10.506c4.056,7.63,11.361,13.457,20.488,15.318
			c16.22,3.305,32.048-7.163,35.355-23.383C61.206,189.458,58.704,180.453,53.27,173.736z"/>
	</g>
	<ellipse style="opacity:0.36;fill:#788F45;" cx="59.955" cy="271.079" rx="35.853" ry="13.507"/>
	<ellipse style="opacity:0.36;fill:#788F45;" cx="156.04" cy="183.872" rx="35.853" ry="13.508"/>
	<path style="opacity:0.36;fill:#788F45;" d="M349.618,302.811c0,7.46-16.052,13.508-35.853,13.508
		c-19.801,0-35.853-6.048-35.853-13.508c0-7.457,16.052-13.506,35.853-13.506C333.566,289.305,349.618,295.354,349.618,302.811z"/>
	<ellipse style="opacity:0.36;fill:#788F45;" cx="154.804" cy="336.142" rx="35.853" ry="13.508"/>
	<g>
		<circle style="fill:#F9D363;" cx="154.288" cy="156.06" r="29.972"/>
		<path style="opacity:0.49;fill:#CDAE51;" d="M177.579,137.199c3.152,5.928,4.34,12.945,2.895,20.036
			c-3.307,16.221-19.135,26.689-35.355,23.383c-7.092-1.445-13.083-5.285-17.306-10.506c4.055,7.63,11.36,13.456,20.488,15.318
			c16.219,3.304,32.047-7.164,35.354-23.383C185.516,152.919,183.014,143.915,177.579,137.199z"/>
	</g>
	<g>
		<path style="fill:#EA7053;" d="M343.167,269.88c-3.21-16.239-18.978-26.798-35.214-23.588
			c-16.24,3.212-26.802,18.977-23.592,35.214c3.211,16.243,18.978,26.802,35.218,23.592
			C335.817,301.886,346.378,286.12,343.167,269.88z"/>
		<path style="opacity:0.49;fill:#BE5B43;" d="M327.971,249.301c5.197,4.255,9.001,10.269,10.405,17.369
			c3.21,16.24-7.35,32.006-23.59,35.216c-7.1,1.404-14.108,0.176-20.02-3.01c6.687,5.473,15.675,8.027,24.813,6.222
			c16.238-3.212,26.798-18.978,23.588-35.218C341.362,260.743,335.577,253.402,327.971,249.301z"/>
	</g>
	<g>
		<path style="fill:#00B5AE;" d="M181.572,323.399c6.852-15.069,0.189-32.837-14.879-39.688
			c-15.071-6.852-32.841-0.189-39.69,14.878c-6.851,15.071-0.187,32.839,14.881,39.691
			C156.953,345.131,174.722,338.467,181.572,323.399z"/>
		<path style="opacity:0.49;fill:#008983;" d="M181.208,297.82c1.748,6.484,1.335,13.589-1.661,20.177
			c-6.85,15.071-24.618,21.734-39.687,14.882c-6.59-2.996-11.571-8.078-14.519-14.111c2.246,8.342,8.063,15.657,16.542,19.512
			c15.069,6.851,32.838,0.187,39.688-14.881C185.428,314.92,185.003,305.583,181.208,297.82z"/>
	</g>
	<g style="opacity:0.36;">
		<g>
			<path style="fill:#9FBE5B;" d="M365.06,163.529h-15.297l28.15-41.918c3.54-5.272-4.531-9.561-17.994-9.561h-34.877
				c-13.462,0-27.968,4.289-32.335,9.561l-34.726,41.918h-15.298l35.822-41.918c7.08-8.284,29.875-15.024,50.813-15.024h34.52
				c20.939,0,33.623,6.74,28.276,15.024L365.06,163.529z"/>
		</g>
	</g>
	<g>
		<path style="fill:#505B66;" d="M365.06,163.529h-15.297V46.16c0-14.761-12.009-26.77-26.77-26.77H284.75
			c-14.761,0-26.77,12.009-26.77,26.77v117.369h-15.298V46.16c0-23.196,18.872-42.068,42.068-42.068h38.242
			c23.197,0,42.068,18.871,42.068,42.068V163.529z"/>
	</g>
	<g style="opacity:0.24;">
		<path style="fill:#282E33;" d="M319.169,13.109h-38.243c-14.761,0-26.77,12.009-26.77,26.77v117.369h-11.473v6.282h15.298V46.16
			c0-14.761,12.009-26.77,26.77-26.77h38.242c8.357,0,15.826,3.852,20.739,9.871C339.612,19.769,330.158,13.109,319.169,13.109z"/>
		<path style="fill:#282E33;" d="M356.893,21.287c2.775,5.611,4.343,11.919,4.343,18.591v117.369h-11.473v6.282h15.297V46.16
			C365.06,36.861,362.023,28.26,356.893,21.287z"/>
	</g>
</g>
<g>
</g>
<g>
</g>
<g>
</g>
<g>
</g>
<g>
</g>
<g>
</g>
<g>
</g>
<g>
</g>
<g>
</g>
<g>
</g>
<g>
</g>
<g>
</g>
<g>
</g>
<g>
</g>
<g>
</g>
</svg>
