<?xml version="1.0" encoding="iso-8859-1"?>
<!-- Generator: Adobe Illustrator 19.1.0, SVG Export Plug-In . SVG Version: 6.00 Build 0)  -->
<svg version="1.1" id="Capa_1" xmlns="http://www.w3.org/2000/svg" xmlns:xlink="http://www.w3.org/1999/xlink" x="0px" y="0px"
	 viewBox="0 0 436.611 436.611" style="enable-background:new 0 0 436.611 436.611;" xml:space="preserve">
<g>
	<path style="fill:#EAEBED;" d="M436.611,218.304c0-114.864-93.114-207.979-207.977-207.979
		c-114.868,0-207.983,93.116-207.983,207.979c0,114.866,93.116,207.981,207.983,207.981
		C343.497,426.286,436.611,333.17,436.611,218.304z"/>
	<path style="fill:#7C848C;" d="M28.514,275.145c5.023,17.723,12.345,34.474,21.61,49.929h357.014
		c9.264-15.455,16.587-32.206,21.612-49.929H28.514z"/>
	<path style="fill:#29546C;" d="M254.478,176.139c66.489,0,124.604-23.535,156.117-58.608
		c-9.893-17.823-22.327-34.039-36.816-48.162c-8.943,37.995-58.948,67.082-119.301,67.082c-66.68,0-120.732-35.504-120.732-79.297
		c0-9.724,2.679-19.036,7.555-27.645c-24.853,11.515-47.046,27.79-65.414,47.657C90.377,133.35,164.815,176.139,254.478,176.139z"/>
	<path style="fill:#E96660;" d="M173.784,57.155c0,29.271,36.125,52.999,80.694,52.999c44.567,0,80.692-23.728,80.692-52.999
		c0-7.636-2.476-14.891-6.904-21.448c-29.587-16.179-63.534-25.382-99.633-25.382c-4.418,0-8.797,0.154-13.147,0.427
		C190.625,19.781,173.784,37.174,173.784,57.155z M254.478,32.121c21.051,0,38.114,11.207,38.114,25.034
		c0,13.825-17.064,25.033-38.114,25.033c-21.053,0-38.116-11.207-38.116-25.033C216.362,43.328,233.426,32.121,254.478,32.121z"/>
	<path style="opacity:0.81;fill:#C7C8C9;" d="M258.531,380.478c0-9.366-46.571-16.961-104.021-16.961
		c-27.095,0-51.766,1.689-70.278,4.46c11.258,10.861,23.731,20.468,37.207,28.586c10.392,0.569,21.505,0.882,33.071,0.882
		C211.961,397.444,258.531,389.849,258.531,380.478z"/>
	<g>
		<path style="fill:#505B66;" d="M112.506,258.895C50.286,259.234-0.086,272.21,0,287.877l0.154,28.365l0.014,2.218l0.102,18.941
			c0.104,19.091,15.665,34.482,34.754,34.378l156.191-0.854c19.091-0.104,34.482-15.665,34.378-34.756l-0.104-18.943l-0.014-2.214
			l-0.152-28.367C225.238,270.978,174.726,258.554,112.506,258.895z"/>
		<path style="opacity:0.35;fill:#21262B;" d="M112.506,258.895c-1.088,0.006-2.154,0.036-3.236,0.05
			c59.714,0.385,107.326,12.538,107.411,27.746l0.154,28.369l0.014,2.214l0.102,18.941c0.106,19.093-15.287,34.654-34.378,34.756
			l8.643-0.046c19.091-0.104,34.482-15.665,34.378-34.756l-0.104-18.943l-0.014-2.214l-0.152-28.367
			C225.238,270.978,174.726,258.554,112.506,258.895z"/>
		<path style="fill:#F9D363;" d="M110.5,248c-19.64,0.108-37.796,2.018-52.621,5.165l-0.046-8.635l40.006-0.22
			c4.241-0.022,7.661-3.48,7.639-7.722c-0.024-4.242-3.482-7.662-7.725-7.64l-46.405,0.252c-4.243,0.025-7.663,3.484-7.641,7.725
			c0.002,0.275,0.056,0.531,0.086,0.801c-0.03,0.262-0.078,0.525-0.076,0.797l0.1,18.312c-14.8,4.74-23.823,10.999-23.785,17.825
			c0.078,14.453,40.711,25.943,90.754,25.671c50.045-0.274,90.551-12.209,90.471-26.66C201.178,259.22,160.543,247.728,110.5,248z"
			/>
		<path style="opacity:0.6;fill:#BEA14B;" d="M194.518,263.841c0.93,1.493,1.451,3.031,1.457,4.606
			c0.08,14.451-40.424,26.386-90.469,26.66c-37.952,0.208-70.475-6.353-84.018-15.841c7.619,12.209,44.71,21.309,89.297,21.065
			c50.045-0.274,90.551-12.209,90.471-26.66C201.238,270.179,198.832,266.863,194.518,263.841z"/>
	</g>
</g>
<g>
</g>
<g>
</g>
<g>
</g>
<g>
</g>
<g>
</g>
<g>
</g>
<g>
</g>
<g>
</g>
<g>
</g>
<g>
</g>
<g>
</g>
<g>
</g>
<g>
</g>
<g>
</g>
<g>
</g>
</svg>
