<?xml version="1.0" encoding="iso-8859-1"?>
<!-- Generator: Adobe Illustrator 19.1.0, SVG Export Plug-In . SVG Version: 6.00 Build 0)  -->
<svg version="1.1" id="Capa_1" xmlns="http://www.w3.org/2000/svg" xmlns:xlink="http://www.w3.org/1999/xlink" x="0px" y="0px"
	 viewBox="0 0 452.09 452.09" style="enable-background:new 0 0 452.09 452.09;" xml:space="preserve">
<g>
	<circle style="fill:#71BE5B;" cx="226.045" cy="226.045" r="208.123"/>
	<g>
		<g>
			<g>
				<g>
					<polygon style="fill:#EAEBED;" points="69.107,282.304 69.107,282.304 362.131,177.637 367.845,195.275 					"/>
					<path style="fill:#414141;" d="M444.155,172.865c6.023-1.953,9.326-8.418,7.374-14.443l0,0
						c-1.955-6.026-8.416-9.328-14.441-7.377l-73.619,23.849c-6.025,1.951-9.33,8.417-7.375,14.441l0,0
						c1.951,6.027,8.419,9.328,14.443,7.377L444.155,172.865z"/>
					<path style="fill:#505B66;" d="M406.633,228.811c-27.919,9.044-57.875-6.256-66.919-34.169
						c-9.038-27.913,6.256-57.87,34.172-66.913L406.633,228.811z"/>
				</g>
				<path style="opacity:0.24;fill:#373F46;" d="M342.986,202.516L69.107,282.304l382.422-123.881
					c1.953,6.025-1.35,12.49-7.374,14.443l-50.362,16.314l12.84,39.631C381.468,236.964,354.651,225.329,342.986,202.516z"/>
			</g>
			<g>
				<circle style="fill:#EAEBED;" cx="75.822" cy="280.016" r="6.893"/>
				<path style="opacity:0.24;fill:#505B66;" d="M82.411,277.99c1.12,3.639-0.923,7.495-4.563,8.613
					c-3.637,1.12-7.493-0.922-8.614-4.562L82.411,277.99z"/>
			</g>
		</g>
		<g>
			<g>
				<g>
					<polygon style="fill:#EAEBED;" points="382.983,282.304 382.983,282.304 89.958,177.637 84.245,195.275 					"/>
					<path style="fill:#414141;" d="M7.935,172.865c-6.023-1.953-9.326-8.418-7.374-14.443l0,0
						c1.955-6.026,8.416-9.328,14.441-7.377l73.619,23.849c6.025,1.951,9.33,8.417,7.375,14.441l0,0
						c-1.951,6.027-8.419,9.328-14.443,7.377L7.935,172.865z"/>
					<path style="fill:#505B66;" d="M45.457,228.811c27.919,9.044,57.875-6.256,66.919-34.169
						c9.038-27.913-6.256-57.87-34.172-66.913L45.457,228.811z"/>
				</g>
				<path style="opacity:0.24;fill:#373F46;" d="M109.104,202.516l273.879,79.788L0.562,158.423
					c-1.953,6.025,1.35,12.49,7.374,14.443l50.362,16.314l-12.84,39.631C70.621,236.964,97.439,225.329,109.104,202.516z"/>
			</g>
			<g>
				<circle style="fill:#EAEBED;" cx="376.268" cy="280.016" r="6.893"/>
				<path style="opacity:0.24;fill:#505B66;" d="M369.679,277.99c-1.12,3.639,0.923,7.495,4.563,8.613
					c3.637,1.12,7.493-0.922,8.614-4.562L369.679,277.99z"/>
			</g>
		</g>
	</g>
	<ellipse style="fill:#518942;" cx="226.045" cy="338.076" rx="143.88" ry="7.583"/>
</g>
<g>
</g>
<g>
</g>
<g>
</g>
<g>
</g>
<g>
</g>
<g>
</g>
<g>
</g>
<g>
</g>
<g>
</g>
<g>
</g>
<g>
</g>
<g>
</g>
<g>
</g>
<g>
</g>
<g>
</g>
</svg>
