<?xml version="1.0" encoding="iso-8859-1"?>
<!-- Generator: Adobe Illustrator 19.1.0, SVG Export Plug-In . SVG Version: 6.00 Build 0)  -->
<svg version="1.1" id="Capa_1" xmlns="http://www.w3.org/2000/svg" xmlns:xlink="http://www.w3.org/1999/xlink" x="0px" y="0px"
	 viewBox="0 0 476.814 476.814" style="enable-background:new 0 0 476.814 476.814;" xml:space="preserve">
<g>
	<circle style="fill:#9FBE5B;" cx="269.052" cy="238.407" r="207.762"/>
	<g>
		<path style="fill:#EA7053;" d="M285.276,196.682c-24.829-22.714-86.588-27.137-153.185-8.409
			c-66.596,18.728-116.998,54.693-126.35,87.018l-5.385,1.514l4.955,17.618c10.146,36.082,83.358,47.056,163.523,24.513
			c80.166-22.545,136.927-70.069,126.78-106.151l-4.954-17.618L285.276,196.682z"/>
		<path style="opacity:0.47;fill:#A14D39;" d="M285.276,196.682c-24.829-22.714-86.588-27.137-153.185-8.409
			c-66.596,18.728-116.998,54.693-126.35,87.018l-5.385,1.514l4.955,17.618c10.146,36.082,83.358,47.056,163.523,24.513
			c80.166-22.545,136.927-70.069,126.78-106.151l-4.954-17.618L285.276,196.682z"/>
		<path style="fill:#EA7053;" d="M291.479,198.074c10.146,36.078-46.615,83.604-126.781,106.149
			C84.532,326.766,11.321,315.792,1.173,279.711c-10.145-36.08,46.616-83.604,126.781-106.149
			C208.12,151.018,281.332,161.993,291.479,198.074z"/>
		
			<ellipse transform="matrix(0.9627 -0.2707 0.2707 0.9627 -59.2038 48.529)" style="opacity:0.47;fill:#A14D39;" cx="146.326" cy="238.89" rx="63.151" ry="28.422"/>
	</g>
	
		<ellipse transform="matrix(0.9719 -0.2353 0.2353 0.9719 -76.1137 70.058)" style="opacity:0.36;fill:#687C3C;" cx="255.478" cy="353.936" rx="92.318" ry="26.726"/>
</g>
<g>
</g>
<g>
</g>
<g>
</g>
<g>
</g>
<g>
</g>
<g>
</g>
<g>
</g>
<g>
</g>
<g>
</g>
<g>
</g>
<g>
</g>
<g>
</g>
<g>
</g>
<g>
</g>
<g>
</g>
</svg>
