<?xml version="1.0" encoding="iso-8859-1"?>
<!-- Generator: Adobe Illustrator 19.1.0, SVG Export Plug-In . SVG Version: 6.00 Build 0)  -->
<svg version="1.1" id="Capa_1" xmlns="http://www.w3.org/2000/svg" xmlns:xlink="http://www.w3.org/1999/xlink" x="0px" y="0px"
	 viewBox="0 0 439.477 439.477" style="enable-background:new 0 0 439.477 439.477;" xml:space="preserve">
<g>
	<circle style="fill:#71BE5B;" cx="231.297" cy="219.739" r="208.18"/>
	<ellipse style="fill:#414141;" cx="277.337" cy="191.878" rx="62.271" ry="22.155"/>
	<ellipse cx="277.337" cy="196.3" rx="49.844" ry="17.733"/>
	<path style="fill:#FFFFFF;" d="M272.633,199.997c0,0.792,2.108,1.435,4.705,1.435c2.599,0,4.704-0.643,4.704-1.435V18.042
		c-3.107-0.796-6.246-1.521-9.41-2.175L272.633,199.997L272.633,199.997z"/>
	<g>
		<circle style="fill:#EAEBED;" cx="43.447" cy="231.868" r="43.447"/>
		<path style="opacity:0.68;fill:#B8B9BB;" d="M65.73,194.623c5.573,7.305,8.917,16.396,8.917,26.29
			c0,23.996-19.452,43.446-43.444,43.446c-8.159,0-15.765-2.29-22.287-6.2c7.936,10.408,20.432,17.155,34.532,17.155
			c23.993,0,43.445-19.452,43.445-43.446C86.893,216.031,78.392,202.214,65.73,194.623z"/>
	</g>
	<ellipse style="opacity:0.52;fill:#4E833F;" cx="125.43" cy="325.218" rx="50.242" ry="17.372"/>
</g>
<g>
</g>
<g>
</g>
<g>
</g>
<g>
</g>
<g>
</g>
<g>
</g>
<g>
</g>
<g>
</g>
<g>
</g>
<g>
</g>
<g>
</g>
<g>
</g>
<g>
</g>
<g>
</g>
<g>
</g>
</svg>
