<?xml version="1.0" encoding="iso-8859-1"?>
<!-- Generator: Adobe Illustrator 19.1.0, SVG Export Plug-In . SVG Version: 6.00 Build 0)  -->
<svg version="1.1" id="Capa_1" xmlns="http://www.w3.org/2000/svg" xmlns:xlink="http://www.w3.org/1999/xlink" x="0px" y="0px"
	 viewBox="0 0 434.053 434.053" style="enable-background:new 0 0 434.053 434.053;" xml:space="preserve">
<g>
	<path style="fill:#EAEBED;" d="M434.053,217.024c0-114.639-92.933-207.574-207.574-207.574
		c-114.645,0-207.578,92.934-207.578,207.574c0,114.644,92.933,207.578,207.578,207.578
		C341.12,424.602,434.053,331.668,434.053,217.024z"/>
	<path style="fill:#7C848C;" d="M26.749,273.515c5.013,17.688,12.321,34.408,21.568,49.832h356.32
		c9.247-15.424,16.553-32.145,21.568-49.832H26.749z"/>
	<ellipse style="opacity:0.16;fill:#BDBEBF;" cx="189.61" cy="276.255" rx="83.244" ry="16.917"/>
	<path style="fill:#EAEBED;" d="M152.895,238.853c0-9.345-37.271-16.917-83.245-16.917c-19.024,0-36.546,1.3-50.566,3.482
		c0.369,9.269,1.339,18.381,2.885,27.299c13.507,1.921,29.94,3.053,47.681,3.053C115.624,255.77,152.895,248.197,152.895,238.853z"
		/>
	<path style="opacity:0.16;fill:#BDBEBF;" d="M152.895,238.853c0-9.345-37.271-16.917-83.245-16.917
		c-19.024,0-36.546,1.3-50.566,3.482c0.369,9.269,1.339,18.381,2.885,27.299c13.507,1.921,29.94,3.053,47.681,3.053
		C115.624,255.77,152.895,248.197,152.895,238.853z"/>
	<path style="fill:#F4B7A9;" d="M157.953,233.023c-0.243-0.166-0.484-0.325-0.721-0.49
		C157.469,232.698,157.71,232.857,157.953,233.023z"/>
	<path style="fill:#F4B7A9;" d="M155.132,230.991c-0.02-0.015-0.042-0.033-0.063-0.047
		C155.09,230.958,155.112,230.976,155.132,230.991z"/>
	<path style="fill:#F4B7A9;" d="M163.281,236.329c-0.086-0.049-0.176-0.099-0.263-0.149
		C163.104,236.23,163.195,236.281,163.281,236.329z"/>
	<path style="fill:#F4B7A9;" d="M160.478,234.663c-0.264-0.164-0.521-0.33-0.782-0.495
		C159.958,234.333,160.214,234.5,160.478,234.663z"/>
	<path style="fill:#F4B7A9;" d="M151.564,227.787c-0.144-0.155-0.296-0.31-0.432-0.462
		C151.268,227.476,151.42,227.632,151.564,227.787z"/>
	<path style="fill:#F4B7A9;" d="M153.22,229.391c-0.176-0.156-0.337-0.31-0.505-0.466
		C152.882,229.081,153.043,229.235,153.22,229.391z"/>
	<path style="fill:#F4B7A9;" d="M170.083,239.914c-0.348-0.173-0.687-0.342-1.028-0.513
		C169.396,239.572,169.734,239.741,170.083,239.914z"/>
	<path style="fill:#F4B7A9;" d="M239.121,283.838c-0.169-0.077-0.338-0.154-0.503-0.232
		C238.783,283.684,238.952,283.761,239.121,283.838z"/>
	<path style="fill:#F4B7A9;" d="M166.913,238.305c-0.323-0.169-0.648-0.338-0.966-0.508
		C166.265,237.968,166.59,238.137,166.913,238.305z"/>
	<path style="opacity:0.67;fill:#EA7053;" d="M238.618,283.606c-1.009-0.471-2.001-0.946-2.975-1.423
		C236.617,282.66,237.609,283.135,238.618,283.606z"/>
	<path style="opacity:0.44;fill:#F2AA99;" d="M238.618,283.606c-1.009-0.471-2.001-0.946-2.975-1.423
		C236.617,282.66,237.609,283.135,238.618,283.606z"/>
	<path style="opacity:0.67;fill:#EA7053;" d="M169.055,239.401c-0.727-0.363-1.439-0.728-2.142-1.096
		C167.616,238.673,168.328,239.038,169.055,239.401z"/>
	<path style="opacity:0.44;fill:#F2AA99;" d="M169.055,239.401c-0.727-0.363-1.439-0.728-2.142-1.096
		C167.616,238.673,168.328,239.038,169.055,239.401z"/>
	<path style="opacity:0.67;fill:#EA7053;" d="M165.947,237.798c-0.913-0.487-1.805-0.975-2.667-1.468
		C164.142,236.822,165.034,237.311,165.947,237.798z"/>
	<path style="opacity:0.44;fill:#F2AA99;" d="M165.947,237.798c-0.913-0.487-1.805-0.975-2.667-1.468
		C164.142,236.822,165.034,237.311,165.947,237.798z"/>
	<path style="opacity:0.67;fill:#EA7053;" d="M163.017,236.18c-0.879-0.504-1.719-1.011-2.539-1.517
		C161.299,235.169,162.138,235.677,163.017,236.18z"/>
	<path style="opacity:0.44;fill:#F2AA99;" d="M163.017,236.18c-0.879-0.504-1.719-1.011-2.539-1.517
		C161.299,235.169,162.138,235.677,163.017,236.18z"/>
	<path style="opacity:0.67;fill:#EA7053;" d="M159.697,234.168c-0.599-0.382-1.182-0.763-1.743-1.145
		C158.515,233.405,159.095,233.786,159.697,234.168z"/>
	<path style="opacity:0.44;fill:#F2AA99;" d="M159.697,234.168c-0.599-0.382-1.182-0.763-1.743-1.145
		C158.515,233.405,159.095,233.786,159.697,234.168z"/>
	<path style="opacity:0.67;fill:#EA7053;" d="M157.233,232.533c-0.735-0.515-1.445-1.03-2.101-1.542
		C155.787,231.503,156.497,232.018,157.233,232.533z"/>
	<path style="opacity:0.44;fill:#F2AA99;" d="M157.233,232.533c-0.735-0.515-1.445-1.03-2.101-1.542
		C155.787,231.503,156.497,232.018,157.233,232.533z"/>
	<path style="opacity:0.67;fill:#EA7053;" d="M152.715,228.926c-0.41-0.381-0.794-0.762-1.151-1.139
		C151.921,228.164,152.305,228.545,152.715,228.926z"/>
	<path style="opacity:0.44;fill:#F2AA99;" d="M152.715,228.926c-0.41-0.381-0.794-0.762-1.151-1.139
		C151.921,228.164,152.305,228.545,152.715,228.926z"/>
	<path style="opacity:0.67;fill:#EA7053;" d="M151.131,227.324c-0.457-0.513-0.88-1.021-1.234-1.523
		C150.252,226.304,150.674,226.811,151.131,227.324z"/>
	<path style="opacity:0.44;fill:#F2AA99;" d="M151.131,227.324c-0.457-0.513-0.88-1.021-1.234-1.523
		C150.252,226.304,150.674,226.811,151.131,227.324z"/>
	<path style="opacity:0.67;fill:#EA7053;" d="M155.069,230.943c-0.665-0.52-1.273-1.037-1.85-1.552
		C153.796,229.907,154.405,230.423,155.069,230.943z"/>
	<path style="opacity:0.44;fill:#F2AA99;" d="M155.069,230.943c-0.665-0.52-1.273-1.037-1.85-1.552
		C153.796,229.907,154.405,230.423,155.069,230.943z"/>
	<path style="fill:#F4B7A9;" d="M24.769,163.856c-0.163-0.245-0.324-0.486-0.479-0.726C24.446,163.37,24.607,163.611,24.769,163.856
		z"/>
	<path style="fill:#F4B7A9;" d="M22.934,160.901c-0.012-0.02-0.026-0.045-0.041-0.065C22.907,160.856,22.922,160.881,22.934,160.901
		z"/>
	<path style="fill:#F4B7A9;" d="M28.434,168.942c-0.059-0.077-0.124-0.158-0.187-0.237
		C28.311,168.784,28.375,168.865,28.434,168.942z"/>
	<path style="fill:#F4B7A9;" d="M51.234,192.557c-0.35-0.31-0.699-0.625-1.048-0.935C50.538,191.937,50.884,192.247,51.234,192.557z
		"/>
	<path style="fill:#F4B7A9;" d="M26.478,166.337c-0.183-0.254-0.357-0.505-0.535-0.756
		C26.123,165.832,26.295,166.082,26.478,166.337z"/>
	<path style="fill:#F4B7A9;" d="M54.549,195.44c-0.269-0.232-0.536-0.457-0.801-0.686C54.013,194.983,54.279,195.208,54.549,195.44z
		"/>
	<path style="fill:#F4B7A9;" d="M20.855,156.579c-0.074-0.196-0.156-0.397-0.224-0.59C20.699,156.182,20.781,156.383,20.855,156.579
		z"/>
	<path style="fill:#F4B7A9;" d="M21.775,158.697c-0.103-0.212-0.194-0.417-0.288-0.624C21.58,158.28,21.672,158.485,21.775,158.697z
		"/>
	<path style="fill:#F4B7A9;" d="M48.28,189.896c-0.345-0.318-0.687-0.629-1.026-0.942C47.595,189.269,47.935,189.578,48.28,189.896z
		"/>
	<path style="fill:#F4B7A9;" d="M41.811,183.75c-0.316-0.309-0.624-0.622-0.935-0.936C41.189,183.128,41.495,183.441,41.811,183.75z
		"/>
	<path style="fill:#F4B7A9;" d="M33.358,174.85c-0.256-0.291-0.506-0.578-0.755-0.866C32.853,174.271,33.102,174.558,33.358,174.85z
		"/>
	<path style="fill:#F4B7A9;" d="M39.086,181.001c-0.3-0.307-0.603-0.618-0.902-0.924C38.483,180.383,38.787,180.694,39.086,181.001z
		"/>
	<path style="fill:#F4B7A9;" d="M35.943,177.704c-0.127-0.135-0.252-0.271-0.376-0.406
		C35.691,177.433,35.816,177.569,35.943,177.704z"/>
	<path style="fill:#F4B7A9;" d="M31.042,172.153c-0.236-0.278-0.47-0.56-0.701-0.836C30.572,171.594,30.805,171.876,31.042,172.153z
		"/>
	<path style="fill:#F4B7A9;" d="M44.841,186.69c-0.19-0.182-0.387-0.365-0.576-0.549C44.454,186.325,44.651,186.508,44.841,186.69z"
		/>
	<path style="opacity:0.67;fill:#EA7053;" d="M44.265,186.141c-0.829-0.796-1.645-1.594-2.454-2.391
		C42.62,184.547,43.436,185.345,44.265,186.141z"/>
	<path style="opacity:0.44;fill:#F2AA99;" d="M44.265,186.141c-0.829-0.796-1.645-1.594-2.454-2.391
		C42.62,184.547,43.436,185.345,44.265,186.141z"/>
	<path style="opacity:0.67;fill:#EA7053;" d="M35.567,177.298c-0.754-0.819-1.49-1.636-2.208-2.448
		C34.077,175.661,34.813,176.479,35.567,177.298z"/>
	<path style="opacity:0.44;fill:#F2AA99;" d="M35.567,177.298c-0.754-0.819-1.49-1.636-2.208-2.448
		C34.077,175.661,34.813,176.479,35.567,177.298z"/>
	<path style="opacity:0.67;fill:#EA7053;" d="M32.603,173.984c-0.532-0.613-1.052-1.222-1.561-1.83
		C31.55,172.762,32.071,173.371,32.603,173.984z"/>
	<path style="opacity:0.44;fill:#F2AA99;" d="M32.603,173.984c-0.532-0.613-1.052-1.222-1.561-1.83
		C31.55,172.762,32.071,173.371,32.603,173.984z"/>
	<path style="opacity:0.67;fill:#EA7053;" d="M30.341,171.317c-0.658-0.798-1.299-1.591-1.907-2.375
		C29.042,169.727,29.682,170.519,30.341,171.317z"/>
	<path style="opacity:0.44;fill:#F2AA99;" d="M30.341,171.317c-0.658-0.798-1.299-1.591-1.907-2.375
		C29.042,169.727,29.682,170.519,30.341,171.317z"/>
	<path style="opacity:0.67;fill:#EA7053;" d="M28.247,168.705c-0.619-0.799-1.203-1.589-1.769-2.368
		C27.044,167.116,27.628,167.905,28.247,168.705z"/>
	<path style="opacity:0.44;fill:#F2AA99;" d="M28.247,168.705c-0.619-0.799-1.203-1.589-1.769-2.368
		C27.044,167.116,27.628,167.905,28.247,168.705z"/>
	<path style="opacity:0.67;fill:#EA7053;" d="M47.255,188.954c-0.809-0.751-1.616-1.505-2.413-2.264
		C45.638,187.449,46.446,188.204,47.255,188.954z"/>
	<path style="opacity:0.44;fill:#F2AA99;" d="M47.255,188.954c-0.809-0.751-1.616-1.505-2.413-2.264
		C45.638,187.449,46.446,188.204,47.255,188.954z"/>
	<path style="opacity:0.67;fill:#EA7053;" d="M38.184,180.077c-0.761-0.794-1.511-1.586-2.241-2.373
		C36.673,178.492,37.424,179.283,38.184,180.077z"/>
	<path style="opacity:0.44;fill:#F2AA99;" d="M38.184,180.077c-0.761-0.794-1.511-1.586-2.241-2.373
		C36.673,178.492,37.424,179.283,38.184,180.077z"/>
	<path style="opacity:0.67;fill:#EA7053;" d="M40.876,182.813c-0.605-0.603-1.2-1.206-1.789-1.812
		C39.675,181.608,40.27,182.211,40.876,182.813z"/>
	<path style="opacity:0.44;fill:#F2AA99;" d="M40.876,182.813c-0.605-0.603-1.2-1.206-1.789-1.812
		C39.675,181.608,40.27,182.211,40.876,182.813z"/>
	<path style="opacity:0.67;fill:#EA7053;" d="M25.943,165.581c-0.409-0.583-0.801-1.157-1.173-1.725
		C25.142,164.424,25.533,164.998,25.943,165.581z"/>
	<path style="opacity:0.44;fill:#F2AA99;" d="M25.943,165.581c-0.409-0.583-0.801-1.157-1.173-1.725
		C25.142,164.424,25.533,164.998,25.943,165.581z"/>
	<path style="opacity:0.67;fill:#EA7053;" d="M53.747,194.754c-0.842-0.724-1.678-1.459-2.513-2.197
		C52.069,193.295,52.905,194.03,53.747,194.754z"/>
	<path style="opacity:0.44;fill:#F2AA99;" d="M53.747,194.754c-0.842-0.724-1.678-1.459-2.513-2.197
		C52.069,193.295,52.905,194.03,53.747,194.754z"/>
	<path style="opacity:0.67;fill:#EA7053;" d="M24.29,163.13c-0.485-0.758-0.945-1.503-1.357-2.228
		C23.345,161.626,23.805,162.372,24.29,163.13z"/>
	<path style="opacity:0.44;fill:#F2AA99;" d="M24.29,163.13c-0.485-0.758-0.945-1.503-1.357-2.228
		C23.345,161.626,23.805,162.372,24.29,163.13z"/>
	<path style="opacity:0.67;fill:#EA7053;" d="M56.949,197.465c-0.803-0.665-1.602-1.343-2.4-2.025
		C55.346,196.122,56.145,196.8,56.949,197.465z"/>
	<path style="opacity:0.44;fill:#F2AA99;" d="M56.949,197.465c-0.803-0.665-1.602-1.343-2.4-2.025
		C55.346,196.122,56.145,196.8,56.949,197.465z"/>
	<path style="opacity:0.67;fill:#EA7053;" d="M50.187,191.622c-0.638-0.573-1.277-1.15-1.907-1.726
		C48.912,190.474,49.549,191.049,50.187,191.622z"/>
	<path style="opacity:0.44;fill:#F2AA99;" d="M50.187,191.622c-0.638-0.573-1.277-1.15-1.907-1.726
		C48.912,190.474,49.549,191.049,50.187,191.622z"/>
	<path style="opacity:0.67;fill:#EA7053;" d="M21.486,158.073c-0.237-0.508-0.443-1.006-0.631-1.494
		C21.044,157.067,21.25,157.565,21.486,158.073z"/>
	<path style="opacity:0.44;fill:#F2AA99;" d="M21.486,158.073c-0.237-0.508-0.443-1.006-0.631-1.494
		C21.044,157.067,21.25,157.565,21.486,158.073z"/>
	<path style="opacity:0.67;fill:#EA7053;" d="M20.631,155.989c-0.226-0.647-0.425-1.279-0.559-1.879
		C20.206,154.71,20.405,155.342,20.631,155.989z"/>
	<path style="opacity:0.44;fill:#F2AA99;" d="M20.631,155.989c-0.226-0.647-0.425-1.279-0.559-1.879
		C20.206,154.71,20.405,155.342,20.631,155.989z"/>
	<path style="opacity:0.67;fill:#EA7053;" d="M22.893,160.836c-0.415-0.736-0.782-1.444-1.118-2.139
		C22.111,159.392,22.478,160.1,22.893,160.836z"/>
	<path style="opacity:0.44;fill:#F2AA99;" d="M22.893,160.836c-0.415-0.736-0.782-1.444-1.118-2.139
		C22.111,159.392,22.478,160.1,22.893,160.836z"/>
	<path style="fill:#F57078;" d="M156.522,227.842c0.631,1.372-5.724,22.116-5.724,22.116l-13.536-6.813
		c0,0-10.859,3.145-2.725,8.217c8.132,5.074,79.92,30.39,90.954,23.808c4.881-2.917,2.321-6.366-4.919-7.184
		c-7.24-0.817,1.456-21.864,1.456-21.864l-11.305-6.512l-6.763,26.195l-42.533-14.45l5.042-22.475L156.522,227.842z"/>
	<path style="fill:#F57078;" d="M32.05,157.18c-0.183,1.499-16.493,15.808-16.493,15.808l-7.935-12.912c0,0-10.89-3.033-6.637,5.557
		c4.253,8.592,52.015,67.863,64.86,68.064c5.686,0.083,5.322-4.196-0.408-8.695c-5.729-4.502,12.731-17.836,12.731-17.836
		l-6.194-11.48l-19.523,18.729l-28.586-34.651l16.102-16.471L32.05,157.18z"/>
	<path style="fill:#F4B7A9;" d="M164.602,232.38c-7.428-10.582,5.156-38.769,5.156-38.769s5.61-34.568,15.553-75.559h-16.375
		c-9.504,39.716-14.854,72.673-14.854,72.673s-12.585,28.186-5.158,38.768c0.353,0.502,0.776,1.011,1.232,1.524
		c0.138,0.15,0.289,0.306,0.433,0.459c0.358,0.379,0.741,0.759,1.152,1.14c0.166,0.155,0.329,0.311,0.505,0.467
		c0.577,0.514,1.185,1.03,1.85,1.551c0.02,0.015,0.043,0.032,0.061,0.048c0.658,0.513,1.367,1.028,2.102,1.542
		c0.235,0.165,0.477,0.325,0.722,0.49c0.561,0.383,1.143,0.763,1.742,1.147c0.26,0.164,0.516,0.331,0.783,0.494
		c0.82,0.506,1.661,1.013,2.538,1.517c0.088,0.05,0.177,0.1,0.263,0.148c0.861,0.495,1.754,0.983,2.668,1.469
		c0.319,0.171,0.641,0.339,0.966,0.508c0.701,0.368,1.415,0.733,2.141,1.096c0.341,0.171,0.679,0.342,1.027,0.513
		c0.976,0.478,1.966,0.953,2.976,1.423c0.164,0.078,0.333,0.155,0.501,0.232c0.976,0.452,1.972,0.897,2.976,1.34
		c0.394,0.17,0.792,0.341,1.187,0.513c0.774,0.335,1.555,0.666,2.345,0.995c0.406,0.169,0.811,0.341,1.221,0.506
		c1.051,0.432,2.111,0.857,3.18,1.276c0.245,0.097,0.496,0.194,0.743,0.288c1.026,0.397,2.058,0.79,3.093,1.177
		c0.433,0.16,0.868,0.317,1.305,0.478c0.803,0.294,1.614,0.584,2.422,0.87c0.441,0.156,0.881,0.314,1.325,0.467
		c1.054,0.364,2.106,0.723,3.161,1.075c0.333,0.109,0.663,0.216,1,0.327c0.998,0.327,1.996,0.649,2.992,0.959
		c0.452,0.142,0.9,0.278,1.348,0.416c0.794,0.243,1.583,0.484,2.37,0.716c0.443,0.131,0.886,0.262,1.323,0.389
		c1.045,0.304,2.084,0.595,3.114,0.88c0.308,0.081,0.611,0.162,0.917,0.245c0.962,0.26,1.916,0.511,2.861,0.751
		c0.429,0.109,0.851,0.21,1.277,0.316c0.739,0.182,1.474,0.357,2.201,0.526c0.415,0.098,0.833,0.195,1.24,0.288
		c0.951,0.214,1.885,0.419,2.808,0.607c0.296,0.061,0.588,0.119,0.881,0.179c0.855,0.169,1.696,0.328,2.515,0.475
		c0.378,0.07,0.748,0.129,1.122,0.192c0.644,0.112,1.28,0.209,1.904,0.307c0.353,0.05,0.709,0.105,1.054,0.153
		c0.821,0.114,1.621,0.212,2.397,0.296c0.08,0.007,0.169,0.02,0.247,0.03C204.611,256.361,172.19,243.197,164.602,232.38z"/>
	<path style="fill:#F4B7A9;" d="M191.91,92.451h-16.463c-2.345,8.669-4.518,17.281-6.51,25.601h16.375
		C187.334,109.702,189.537,101.092,191.91,92.451z"/>
	<path style="fill:#F4B7A9;" d="M69.648,211.686c-0.343-0.243-0.69-0.492-1.037-0.74C68.958,211.194,69.305,211.443,69.648,211.686z
		"/>
	<path style="fill:#F4B7A9;" d="M57.063,202.055c-0.362-0.301-0.723-0.594-1.088-0.898C56.34,201.461,56.699,201.754,57.063,202.055
		z"/>
	<path style="fill:#F4B7A9;" d="M66.775,209.62c-0.353-0.259-0.703-0.512-1.06-0.779C66.072,209.108,66.422,209.361,66.775,209.62z"
		/>
	<path style="fill:#F4B7A9;" d="M60.056,204.482c-0.355-0.282-0.714-0.574-1.073-0.862C59.342,203.908,59.701,204.2,60.056,204.482z
		"/>
	<path style="fill:#F4B7A9;" d="M78.428,217.371c-0.302-0.175-0.608-0.361-0.917-0.542C77.82,217.01,78.126,217.195,78.428,217.371z
		"/>
	<path style="fill:#F4B7A9;" d="M63.355,207.06c-0.254-0.195-0.503-0.384-0.755-0.576C62.853,206.676,63.101,206.865,63.355,207.06z
		"/>
	<path style="fill:#F4B7A9;" d="M72.758,213.816c-0.248-0.167-0.495-0.33-0.746-0.501C72.263,213.486,72.512,213.647,72.758,213.816
		z"/>
	<path style="fill:#F4B7A9;" d="M75.868,215.82c-0.32-0.198-0.641-0.398-0.963-0.603C75.227,215.422,75.547,215.621,75.868,215.82z"
		/>
	<path style="opacity:0.67;fill:#EA7053;" d="M74.904,215.217c-0.704-0.449-1.417-0.917-2.147-1.401
		C73.487,214.3,74.201,214.768,74.904,215.217z"/>
	<path style="opacity:0.44;fill:#F2AA99;" d="M74.904,215.217c-0.704-0.449-1.417-0.917-2.147-1.401
		C73.487,214.3,74.201,214.768,74.904,215.217z"/>
	<path style="opacity:0.67;fill:#EA7053;" d="M62.6,206.484c-0.844-0.656-1.692-1.322-2.544-2.002
		C60.908,205.162,61.756,205.828,62.6,206.484z"/>
	<path style="opacity:0.44;fill:#F2AA99;" d="M62.6,206.484c-0.844-0.656-1.692-1.322-2.544-2.002
		C60.908,205.162,61.756,205.828,62.6,206.484z"/>
	<path style="opacity:0.67;fill:#EA7053;" d="M68.612,210.946c-0.609-0.432-1.222-0.874-1.837-1.326
		C67.392,210.072,68.003,210.514,68.612,210.946z"/>
	<path style="opacity:0.44;fill:#F2AA99;" d="M68.612,210.946c-0.609-0.432-1.222-0.874-1.837-1.326
		C67.392,210.072,68.003,210.514,68.612,210.946z"/>
	<path style="opacity:0.67;fill:#EA7053;" d="M77.511,216.829c-0.54-0.328-1.089-0.661-1.643-1.009
		C76.421,216.168,76.971,216.501,77.511,216.829z"/>
	<path style="opacity:0.44;fill:#F2AA99;" d="M77.511,216.829c-0.54-0.328-1.089-0.661-1.643-1.009
		C76.421,216.168,76.971,216.501,77.511,216.829z"/>
	<path style="opacity:0.67;fill:#EA7053;" d="M65.714,208.841c-0.782-0.58-1.568-1.174-2.359-1.781
		C64.147,207.667,64.933,208.261,65.714,208.841z"/>
	<path style="opacity:0.44;fill:#F2AA99;" d="M65.714,208.841c-0.782-0.58-1.568-1.174-2.359-1.781
		C64.147,207.667,64.933,208.261,65.714,208.841z"/>
	<path style="opacity:0.67;fill:#EA7053;" d="M58.983,203.62c-0.641-0.514-1.278-1.037-1.92-1.565
		C57.704,202.583,58.342,203.105,58.983,203.62z"/>
	<path style="opacity:0.44;fill:#F2AA99;" d="M58.983,203.62c-0.641-0.514-1.278-1.037-1.92-1.565
		C57.704,202.583,58.342,203.105,58.983,203.62z"/>
	<path style="opacity:0.67;fill:#EA7053;" d="M72.011,213.315c-0.781-0.525-1.567-1.07-2.363-1.629
		C70.445,212.244,71.231,212.79,72.011,213.315z"/>
	<path style="opacity:0.44;fill:#F2AA99;" d="M72.011,213.315c-0.781-0.525-1.567-1.07-2.363-1.629
		C70.445,212.244,71.231,212.79,72.011,213.315z"/>
	<path style="opacity:0.67;fill:#EA7053;" d="M80.533,218.558c-0.686-0.373-1.389-0.77-2.104-1.188
		C79.143,217.789,79.846,218.186,80.533,218.558z"/>
	<path style="opacity:0.44;fill:#F2AA99;" d="M80.533,218.558c-0.686-0.373-1.389-0.77-2.104-1.188
		C79.143,217.789,79.846,218.186,80.533,218.558z"/>
	<path style="fill:#EAEBED;" d="M76.857,215.778c0.256,0.193,0.506,0.38,0.76,0.571C77.362,216.158,77.113,215.971,76.857,215.778z"
		/>
	<path style="fill:#EAEBED;" d="M206.963,255.669c-18.835-6.632-36.936-15.559-42.361-23.289
		C170.025,240.109,188.129,249.037,206.963,255.669z"/>
	<path style="fill:#EAEBED;" d="M74.893,214.256c0.284,0.222,0.563,0.437,0.846,0.653C75.456,214.693,75.177,214.478,74.893,214.256
		z"/>
	<path style="fill:#EAEBED;" d="M78.808,217.251c0.176,0.131,0.35,0.258,0.527,0.386C79.158,217.509,78.984,217.382,78.808,217.251z
		"/>
	<path style="fill:#EAEBED;" d="M68.762,209.285c-17.13-14.361-33.922-32.407-36.268-42.84
		C34.838,176.876,51.632,194.925,68.762,209.285z"/>
	<path style="fill:#EAEBED;" d="M72.919,212.694c0.288,0.23,0.574,0.455,0.861,0.683C73.493,213.149,73.207,212.924,72.919,212.694z
		"/>
	<path style="fill:#EAEBED;" d="M70.928,211.08c0.356,0.292,0.71,0.575,1.065,0.863C71.638,211.655,71.283,211.372,70.928,211.08z"
		/>
	<path style="fill:#EAEBED;" d="M68.934,209.431c0.475,0.397,0.953,0.791,1.43,1.183C69.887,210.222,69.409,209.828,68.934,209.431z
		"/>
	<path style="fill:#EAEBED;" d="M203.882,53.621c-4.355,12.454-8.359,25.674-11.972,38.83c-2.373,8.641-4.576,17.251-6.598,25.601
		c-9.944,40.991-15.553,75.559-15.553,75.559s-12.584,28.187-5.156,38.769c5.425,7.729,23.526,16.657,42.361,23.289
		c0.098,0.035,0.193,0.07,0.289,0.105c0.596,0.208,1.193,0.412,1.788,0.617c0.231,0.077,0.462,0.161,0.694,0.239
		c0.476,0.162,0.953,0.318,1.43,0.475c0.35,0.118,0.703,0.237,1.052,0.353c0.368,0.119,0.733,0.235,1.099,0.352
		c0.46,0.15,0.922,0.3,1.381,0.445c0.258,0.08,0.514,0.158,0.77,0.238c0.568,0.178,1.134,0.355,1.698,0.527
		c0.146,0.044,0.29,0.086,0.434,0.131c1.492,0.449,2.975,0.883,4.443,1.295c0.029,0.006,0.057,0.015,0.087,0.024
		c2.361,0.661,4.682,1.269,6.938,1.816c7.828,0.818,12.988,0.016,13.121-3.107c0.875-20.808-53.127-51.186-53.127-51.186
		c10.751-15.25,35.164-51.544,58.801-89.939c5.232-8.499,10.424-17.1,15.424-25.601c15.455-26.282,29.026-51.565,36.119-69.814
		c-16.321-6.126-33.613-10.266-51.59-12.102C241.478,21.008,224.85,36.527,203.882,53.621z"/>
	<path style="fill:#F4B7A9;" d="M204.242,53.621c-4.355,12.454-8.359,25.674-11.972,38.83c-2.373,8.641-4.576,17.251-6.598,25.601
		c-9.944,40.991-15.554,75.559-15.554,75.559s-12.583,28.187-5.156,38.769c5.425,7.729,23.526,16.657,42.361,23.289
		c0.098,0.035,0.193,0.07,0.289,0.105c0.596,0.208,1.193,0.412,1.788,0.617c0.231,0.077,0.462,0.161,0.694,0.239
		c0.476,0.162,0.953,0.318,1.43,0.475c0.35,0.118,0.703,0.237,1.052,0.353c0.368,0.119,0.733,0.235,1.099,0.352
		c0.46,0.15,0.922,0.3,1.381,0.445c0.258,0.08,0.514,0.158,0.77,0.238c0.568,0.178,1.134,0.355,1.698,0.527
		c0.146,0.044,0.29,0.086,0.434,0.131c1.492,0.449,2.975,0.883,4.443,1.295c0.029,0.006,0.057,0.015,0.087,0.024
		c2.361,0.661,4.682,1.269,6.938,1.816c7.828,0.818,12.988,0.016,13.121-3.107c0.875-20.808-53.127-51.186-53.127-51.186
		c10.751-15.25,35.164-51.544,58.801-89.939c5.232-8.499,10.424-17.1,15.424-25.601c15.455-26.282,29.026-51.565,36.119-69.814
		c-16.321-6.126-33.613-10.266-51.59-12.102C241.838,21.008,225.21,36.527,204.242,53.621z"/>
	<path style="fill:#F2AA99;" d="M222.128,260.468c-0.03-0.01-0.058-0.018-0.087-0.024c-1.468-0.412-2.952-0.847-4.443-1.295
		c-0.144-0.044-0.288-0.087-0.434-0.131c-0.564-0.172-1.13-0.348-1.698-0.527c-0.256-0.079-0.512-0.157-0.77-0.238
		c-0.459-0.146-0.921-0.296-1.381-0.445c-0.366-0.116-0.731-0.232-1.099-0.352c-0.349-0.116-0.701-0.234-1.052-0.353
		c-0.477-0.157-0.954-0.313-1.43-0.475c-0.231-0.077-0.462-0.161-0.694-0.239c-0.595-0.205-1.192-0.409-1.788-0.617
		c-0.097-0.035-0.192-0.07-0.289-0.105c-18.835-6.632-36.939-15.559-42.361-23.289c-7.428-10.582,5.156-38.769,5.156-38.769
		s5.61-34.568,15.553-75.559c2.023-8.35,4.226-16.96,6.598-25.601c3.613-13.157,7.617-26.377,11.972-38.83
		c-7.037,5.735-14.559,11.648-22.347,17.606c-2.138,7.028-4.173,14.142-6.088,21.224c-2.345,8.669-4.518,17.281-6.51,25.601
		c-9.504,39.716-14.854,72.673-14.854,72.673s-12.585,28.186-5.158,38.768c0.353,0.502,0.776,1.011,1.232,1.524
		c0.138,0.15,0.289,0.306,0.433,0.459c0.358,0.379,0.741,0.759,1.152,1.14c0.166,0.155,0.329,0.311,0.505,0.467
		c0.577,0.514,1.185,1.03,1.85,1.551c0.02,0.015,0.043,0.032,0.061,0.048c0.658,0.513,1.367,1.028,2.102,1.542
		c0.235,0.165,0.477,0.325,0.722,0.49c0.561,0.383,1.143,0.763,1.742,1.147c0.26,0.164,0.516,0.331,0.783,0.494
		c0.82,0.506,1.661,1.013,2.538,1.517c0.088,0.05,0.177,0.1,0.263,0.148c0.861,0.495,1.754,0.983,2.668,1.469
		c0.319,0.171,0.641,0.339,0.966,0.508c0.701,0.368,1.415,0.733,2.141,1.096c0.341,0.171,0.679,0.342,1.027,0.513
		c0.976,0.478,1.966,0.953,2.976,1.423c0.164,0.078,0.333,0.155,0.501,0.232c0.976,0.452,1.972,0.897,2.976,1.34
		c0.394,0.17,0.792,0.341,1.187,0.513c0.774,0.335,1.555,0.666,2.345,0.995c0.406,0.169,0.811,0.341,1.221,0.506
		c1.051,0.432,2.111,0.857,3.18,1.276c0.245,0.097,0.496,0.194,0.743,0.288c1.026,0.397,2.058,0.79,3.093,1.177
		c0.433,0.16,0.868,0.317,1.305,0.478c0.803,0.294,1.614,0.584,2.422,0.87c0.441,0.156,0.881,0.314,1.325,0.467
		c1.054,0.364,2.106,0.723,3.161,1.075c0.333,0.109,0.663,0.216,1,0.327c0.998,0.327,1.996,0.649,2.992,0.959
		c0.452,0.142,0.9,0.278,1.348,0.416c0.794,0.243,1.583,0.484,2.37,0.716c0.443,0.131,0.886,0.262,1.323,0.389
		c1.045,0.304,2.084,0.595,3.114,0.88c0.308,0.081,0.611,0.162,0.917,0.245c0.962,0.26,1.916,0.511,2.861,0.751
		c0.429,0.109,0.851,0.21,1.277,0.316c0.739,0.182,1.474,0.357,2.201,0.526c0.415,0.098,0.833,0.195,1.24,0.288
		c0.951,0.214,1.885,0.419,2.808,0.607c0.296,0.061,0.588,0.119,0.881,0.179c0.855,0.169,1.696,0.328,2.515,0.475
		c0.378,0.07,0.748,0.129,1.122,0.192c0.644,0.112,1.28,0.209,1.904,0.307c0.353,0.05,0.709,0.105,1.054,0.153
		c0.821,0.114,1.621,0.212,2.397,0.296c0.065,0.005,0.123,0.007,0.19,0.017C226.807,261.737,224.488,261.129,222.128,260.468z"/>
	<path style="opacity:0.43;fill:#F2AA99;" d="M222.128,260.468c-0.03-0.01-0.058-0.018-0.087-0.024
		c-1.468-0.412-2.952-0.847-4.443-1.295c-0.144-0.044-0.288-0.087-0.434-0.131c-0.564-0.172-1.13-0.348-1.698-0.527
		c-0.256-0.079-0.512-0.157-0.77-0.238c-0.459-0.146-0.921-0.296-1.381-0.445c-0.366-0.116-0.731-0.232-1.099-0.352
		c-0.349-0.116-0.701-0.234-1.052-0.353c-0.477-0.157-0.954-0.313-1.43-0.475c-0.231-0.077-0.462-0.161-0.694-0.239
		c-0.595-0.205-1.192-0.409-1.788-0.617c-0.097-0.035-0.192-0.07-0.289-0.105c-18.835-6.632-36.939-15.559-42.361-23.289
		c-7.428-10.582,5.156-38.769,5.156-38.769s5.61-34.568,15.553-75.559c2.023-8.35,4.226-16.96,6.598-25.601
		c3.613-13.157,7.617-26.377,11.972-38.83c-7.037,5.735-14.559,11.648-22.347,17.606c-2.138,7.028-4.173,14.142-6.088,21.224
		c-2.345,8.669-4.518,17.281-6.51,25.601c-9.504,39.716-14.854,72.673-14.854,72.673s-12.585,28.186-5.158,38.768
		c0.353,0.502,0.776,1.011,1.232,1.524c0.138,0.15,0.289,0.306,0.433,0.459c0.358,0.379,0.741,0.759,1.152,1.14
		c0.166,0.155,0.329,0.311,0.505,0.467c0.577,0.514,1.185,1.03,1.85,1.551c0.02,0.015,0.043,0.032,0.061,0.048
		c0.658,0.513,1.367,1.028,2.102,1.542c0.235,0.165,0.477,0.325,0.722,0.49c0.561,0.383,1.143,0.763,1.742,1.147
		c0.26,0.164,0.516,0.331,0.783,0.494c0.82,0.506,1.661,1.013,2.538,1.517c0.088,0.05,0.177,0.1,0.263,0.148
		c0.861,0.495,1.754,0.983,2.668,1.469c0.319,0.171,0.641,0.339,0.966,0.508c0.701,0.368,1.415,0.733,2.141,1.096
		c0.341,0.171,0.679,0.342,1.027,0.513c0.976,0.478,1.966,0.953,2.976,1.423c0.164,0.078,0.333,0.155,0.501,0.232
		c0.976,0.452,1.972,0.897,2.976,1.34c0.394,0.17,0.792,0.341,1.187,0.513c0.774,0.335,1.555,0.666,2.345,0.995
		c0.406,0.169,0.811,0.341,1.221,0.506c1.051,0.432,2.111,0.857,3.18,1.276c0.245,0.097,0.496,0.194,0.743,0.288
		c1.026,0.397,2.058,0.79,3.093,1.177c0.433,0.16,0.868,0.317,1.305,0.478c0.803,0.294,1.614,0.584,2.422,0.87
		c0.441,0.156,0.881,0.314,1.325,0.467c1.054,0.364,2.106,0.723,3.161,1.075c0.333,0.109,0.663,0.216,1,0.327
		c0.998,0.327,1.996,0.649,2.992,0.959c0.452,0.142,0.9,0.278,1.348,0.416c0.794,0.243,1.583,0.484,2.37,0.716
		c0.443,0.131,0.886,0.262,1.323,0.389c1.045,0.304,2.084,0.595,3.114,0.88c0.308,0.081,0.611,0.162,0.917,0.245
		c0.962,0.26,1.916,0.511,2.861,0.751c0.429,0.109,0.851,0.21,1.277,0.316c0.739,0.182,1.474,0.357,2.201,0.526
		c0.415,0.098,0.833,0.195,1.24,0.288c0.951,0.214,1.885,0.419,2.808,0.607c0.296,0.061,0.588,0.119,0.881,0.179
		c0.855,0.169,1.696,0.328,2.515,0.475c0.378,0.07,0.748,0.129,1.122,0.192c0.644,0.112,1.28,0.209,1.904,0.307
		c0.353,0.05,0.709,0.105,1.054,0.153c0.821,0.114,1.621,0.212,2.397,0.296c0.065,0.005,0.123,0.007,0.19,0.017
		C226.807,261.737,224.488,261.129,222.128,260.468z"/>
	<path style="opacity:0.36;fill:#F4B7A9;" d="M204.242,53.621c-4.355,12.454-8.359,25.674-11.972,38.83
		c-2.373,8.641-4.576,17.251-6.598,25.601c-9.944,40.991-15.554,75.559-15.554,75.559s-12.583,28.187-5.156,38.769
		c5.425,7.729,23.526,16.657,42.361,23.289c0.098,0.035,0.193,0.07,0.289,0.105c0.596,0.208,1.193,0.412,1.788,0.617
		c0.231,0.077,0.462,0.161,0.694,0.239c0.476,0.162,0.953,0.318,1.43,0.475c0.35,0.118,0.703,0.237,1.052,0.353
		c0.368,0.119,0.733,0.235,1.099,0.352c0.46,0.15,0.922,0.3,1.381,0.445c0.258,0.08,0.514,0.158,0.77,0.238
		c0.568,0.178,1.134,0.355,1.698,0.527c0.146,0.044,0.29,0.086,0.434,0.131c1.492,0.449,2.975,0.883,4.443,1.295
		c0.029,0.006,0.057,0.015,0.087,0.024c2.361,0.661,4.682,1.269,6.938,1.816c7.828,0.818,12.988,0.016,13.121-3.107
		c0.875-20.808-53.127-51.186-53.127-51.186c10.751-15.25,35.164-51.544,58.801-89.939c5.232-8.499,10.424-17.1,15.424-25.601
		c15.455-26.282,29.026-51.565,36.119-69.814c-16.321-6.126-33.613-10.266-51.59-12.102
		C241.838,21.008,225.21,36.527,204.242,53.621z"/>
	<path style="fill:#EAEBED;" d="M25.505,170.028c0.564,0.778,1.149,1.568,1.769,2.368c0.063,0.078,0.127,0.16,0.187,0.236
		c0.609,0.785,1.248,1.577,1.908,2.375c0.23,0.278,0.463,0.558,0.699,0.837c0.509,0.609,1.03,1.216,1.561,1.829
		c0.251,0.287,0.5,0.574,0.757,0.866c0.718,0.813,1.454,1.629,2.208,2.448c0.123,0.135,0.249,0.272,0.375,0.406
		c0.731,0.789,1.481,1.579,2.24,2.374c0.3,0.305,0.603,0.615,0.903,0.924c0.59,0.606,1.185,1.21,1.789,1.812
		c0.31,0.315,0.62,0.627,0.936,0.936c0.809,0.797,1.625,1.595,2.454,2.392c0.189,0.184,0.385,0.366,0.576,0.548
		c0.798,0.759,1.604,1.515,2.413,2.265c0.339,0.313,0.682,0.623,1.026,0.941c0.628,0.576,1.269,1.154,1.908,1.727
		c0.347,0.309,0.696,0.625,1.045,0.935c0.835,0.738,1.671,1.472,2.514,2.197c0.265,0.229,0.531,0.453,0.801,0.685
		c0.797,0.682,1.597,1.36,2.399,2.026c0.366,0.304,0.727,0.597,1.088,0.898c0.642,0.528,1.279,1.05,1.92,1.565
		c0.359,0.288,0.718,0.581,1.073,0.862c0.852,0.68,1.7,1.346,2.544,2.002c0.253,0.192,0.501,0.381,0.755,0.576
		c0.791,0.607,1.577,1.201,2.359,1.781c0.357,0.267,0.708,0.52,1.06,0.779c0.615,0.452,1.228,0.894,1.837,1.326
		c0.346,0.248,0.694,0.497,1.037,0.74c0.796,0.558,1.582,1.104,2.363,1.629c0.252,0.171,0.498,0.335,0.746,0.501
		c0.729,0.484,1.443,0.952,2.147,1.401c0.322,0.205,0.643,0.404,0.963,0.603c0.554,0.348,1.103,0.681,1.643,1.009
		c0.309,0.181,0.615,0.366,0.917,0.542c0.715,0.418,1.418,0.815,2.104,1.188c0.058,0.032,0.109,0.053,0.17,0.088
		c-0.454-0.328-0.912-0.67-1.368-1.008c-0.176-0.129-0.35-0.256-0.527-0.386c-0.395-0.296-0.794-0.6-1.191-0.903
		c-0.254-0.191-0.504-0.378-0.76-0.571c-0.372-0.285-0.746-0.576-1.118-0.868c-0.283-0.216-0.562-0.432-0.846-0.653
		c-0.369-0.288-0.74-0.585-1.113-0.879c-0.287-0.228-0.573-0.453-0.861-0.683c-0.309-0.247-0.618-0.499-0.927-0.751
		c-0.355-0.288-0.709-0.571-1.065-0.863c-0.187-0.152-0.376-0.309-0.564-0.466c-0.477-0.393-0.955-0.786-1.43-1.183
		c-0.058-0.048-0.116-0.097-0.172-0.146c-17.13-14.36-33.924-32.409-36.268-42.84c-2.835-12.616,19.535-33.882,19.535-33.882
		s18.355-29.826,43.162-63.939c5.052-6.949,10.367-14.072,15.853-21.157c1.569-2.027,3.155-4.047,4.749-6.063
		c-45.115,28.492-78.483,73.883-91.221,127.284c0.135,0.194,0.259,0.386,0.397,0.583C25.147,169.523,25.321,169.773,25.505,170.028z
		"/>
	<path style="fill:#EAEBED;" d="M80.75,218.681c-0.015-0.011-0.03-0.022-0.043-0.033c-0.002,0-0.002-0.002-0.002-0.002
		C80.719,218.656,80.732,218.668,80.75,218.681z"/>
	<path style="opacity:0.44;fill:#F2AA99;" d="M80.75,218.681c-0.015-0.011-0.03-0.022-0.043-0.033c-0.002,0-0.002-0.002-0.002-0.002
		C80.719,218.656,80.732,218.668,80.75,218.681z"/>
	<path style="fill:#EAEBED;" d="M32.494,166.445c2.344,10.431,19.138,28.48,36.268,42.84
		C51.632,194.924,34.84,176.879,32.494,166.445z"/>
	<path style="fill:#F4B7A9;" d="M115.793,41.405c-1.593,2.015-3.18,4.036-4.749,6.063c-5.486,7.085-10.802,14.207-15.853,21.157
		c-24.807,34.114-43.162,63.939-43.162,63.939s-22.37,21.266-19.535,33.882c2.346,10.433,19.138,28.479,36.268,42.84
		c0.058,0.049,0.114,0.098,0.172,0.146c0.475,0.397,0.953,0.791,1.43,1.183c0.187,0.156,0.376,0.313,0.564,0.466
		c0.356,0.292,0.71,0.575,1.065,0.863c0.309,0.251,0.618,0.504,0.927,0.751c0.288,0.23,0.574,0.455,0.861,0.683
		c0.373,0.294,0.743,0.591,1.113,0.879c0.284,0.222,0.563,0.437,0.846,0.653c0.372,0.291,0.746,0.583,1.118,0.868
		c0.256,0.193,0.506,0.38,0.76,0.571c0.397,0.303,0.796,0.607,1.191,0.903c0.176,0.131,0.35,0.258,0.527,0.386
		c0.458,0.34,0.916,0.682,1.372,1.01c6.927,3.738,12.002,4.964,13.315,2.126c8.737-18.906-29.624-67.563-29.624-67.563
		c15.75-10.006,52.147-34.265,88.626-60.76c8.078-5.866,16.155-11.842,24.014-17.797c1.508-1.143,3.005-2.284,4.497-3.427
		c7.789-5.958,15.31-11.871,22.347-17.606c20.968-17.093,37.596-32.612,43.932-43.086c-7.014-0.716-14.132-1.084-21.335-1.084
		C185.784,9.451,147.832,21.171,115.793,41.405z"/>
	<path style="fill:#F2AA99;" d="M25.505,170.028c0.564,0.778,1.149,1.568,1.769,2.368c0.063,0.078,0.127,0.16,0.187,0.236
		c0.609,0.785,1.248,1.577,1.908,2.375c0.23,0.278,0.463,0.558,0.699,0.837c0.509,0.609,1.03,1.216,1.561,1.829
		c0.251,0.287,0.5,0.574,0.757,0.866c0.718,0.813,1.454,1.629,2.208,2.448c0.123,0.135,0.249,0.272,0.375,0.406
		c0.731,0.789,1.481,1.579,2.24,2.374c0.3,0.305,0.603,0.615,0.903,0.924c0.59,0.606,1.185,1.21,1.789,1.812
		c0.31,0.315,0.62,0.627,0.936,0.936c0.809,0.797,1.625,1.595,2.454,2.392c0.189,0.184,0.385,0.366,0.576,0.548
		c0.798,0.759,1.604,1.515,2.413,2.265c0.339,0.313,0.682,0.623,1.026,0.941c0.628,0.576,1.269,1.154,1.908,1.727
		c0.347,0.309,0.696,0.625,1.045,0.935c0.835,0.738,1.671,1.472,2.514,2.197c0.265,0.229,0.531,0.453,0.801,0.685
		c0.797,0.682,1.597,1.36,2.399,2.026c0.366,0.304,0.727,0.597,1.088,0.898c0.642,0.528,1.279,1.05,1.92,1.565
		c0.359,0.288,0.718,0.581,1.073,0.862c0.852,0.68,1.7,1.346,2.544,2.002c0.253,0.192,0.501,0.381,0.755,0.576
		c0.791,0.607,1.577,1.201,2.359,1.781c0.357,0.267,0.708,0.52,1.06,0.779c0.615,0.452,1.228,0.894,1.837,1.326
		c0.346,0.248,0.694,0.497,1.037,0.74c0.796,0.558,1.582,1.104,2.363,1.629c0.252,0.171,0.498,0.335,0.746,0.501
		c0.729,0.484,1.443,0.952,2.147,1.401c0.322,0.205,0.643,0.404,0.963,0.603c0.554,0.348,1.103,0.681,1.643,1.009
		c0.309,0.181,0.615,0.366,0.917,0.542c0.715,0.418,1.418,0.815,2.104,1.188c0.058,0.032,0.109,0.053,0.17,0.088
		c-0.454-0.328-0.912-0.67-1.368-1.008c-0.176-0.129-0.35-0.256-0.527-0.386c-0.395-0.296-0.794-0.6-1.191-0.903
		c-0.254-0.191-0.504-0.378-0.76-0.571c-0.372-0.285-0.746-0.576-1.118-0.868c-0.283-0.216-0.562-0.432-0.846-0.653
		c-0.369-0.288-0.74-0.585-1.113-0.879c-0.287-0.228-0.573-0.453-0.861-0.683c-0.309-0.247-0.618-0.499-0.927-0.751
		c-0.355-0.288-0.709-0.571-1.065-0.863c-0.187-0.152-0.376-0.309-0.564-0.466c-0.477-0.393-0.955-0.786-1.43-1.183
		c-0.058-0.048-0.114-0.097-0.172-0.146c-17.13-14.36-33.924-32.409-36.268-42.84c-2.835-12.616,19.535-33.882,19.535-33.882
		s18.355-29.826,43.162-63.939c5.052-6.949,10.367-14.072,15.853-21.157c1.569-2.027,3.155-4.047,4.749-6.063
		c-45.115,28.492-78.483,73.883-91.221,127.284c0.135,0.194,0.259,0.386,0.397,0.583C25.147,169.523,25.321,169.773,25.505,170.028z
		"/>
	<path style="fill:#F4B7A9;" d="M80.533,218.558c0.071,0.037,0.147,0.083,0.217,0.122c-0.017-0.013-0.03-0.024-0.047-0.035
		C80.642,218.611,80.591,218.59,80.533,218.558z"/>
	<path style="opacity:0.44;fill:#F2AA99;" d="M80.533,218.558c0.071,0.037,0.147,0.083,0.217,0.122
		c-0.017-0.013-0.03-0.024-0.047-0.035C80.642,218.611,80.591,218.59,80.533,218.558z"/>
	<path style="fill:#F4B7A9;" d="M68.762,209.285c0.056,0.049,0.114,0.098,0.172,0.146C68.876,209.383,68.82,209.334,68.762,209.285z
		"/>
	<path style="opacity:0.44;fill:#F2AA99;" d="M68.762,209.285c0.056,0.049,0.114,0.098,0.172,0.146
		C68.876,209.383,68.82,209.334,68.762,209.285z"/>
	<path style="fill:#F4B7A9;" d="M80.703,218.646c0,0,0.002,0.002,0.004,0.002c-0.456-0.328-0.914-0.67-1.372-1.01
		C79.79,217.976,80.249,218.318,80.703,218.646z"/>
	<path style="opacity:0.44;fill:#F2AA99;" d="M80.703,218.646c0,0,0.002,0.002,0.004,0.002c-0.456-0.328-0.914-0.67-1.372-1.01
		C79.79,217.976,80.249,218.318,80.703,218.646z"/>
	<path style="fill:#F4B7A9;" d="M77.616,216.349c0.397,0.303,0.796,0.607,1.191,0.903C78.413,216.956,78.014,216.652,77.616,216.349
		z"/>
	<path style="opacity:0.44;fill:#F2AA99;" d="M77.616,216.349c0.397,0.303,0.796,0.607,1.191,0.903
		C78.413,216.956,78.014,216.652,77.616,216.349z"/>
	<path style="fill:#F4B7A9;" d="M75.739,214.91c0.372,0.291,0.746,0.583,1.118,0.868C76.485,215.493,76.11,215.201,75.739,214.91z"
		/>
	<path style="opacity:0.44;fill:#F2AA99;" d="M75.739,214.91c0.372,0.291,0.746,0.583,1.118,0.868
		C76.485,215.493,76.11,215.201,75.739,214.91z"/>
	<path style="fill:#F4B7A9;" d="M70.364,210.614c0.187,0.156,0.376,0.313,0.564,0.466C70.74,210.928,70.551,210.771,70.364,210.614z
		"/>
	<path style="opacity:0.44;fill:#F2AA99;" d="M70.364,210.614c0.187,0.156,0.376,0.313,0.564,0.466
		C70.74,210.928,70.551,210.771,70.364,210.614z"/>
	<path style="fill:#F4B7A9;" d="M71.992,211.943c0.309,0.251,0.618,0.504,0.927,0.751C72.61,212.447,72.302,212.195,71.992,211.943z
		"/>
	<path style="opacity:0.44;fill:#F2AA99;" d="M71.992,211.943c0.309,0.251,0.618,0.504,0.927,0.751
		C72.61,212.447,72.302,212.195,71.992,211.943z"/>
	<path style="fill:#F4B7A9;" d="M73.781,213.377c0.373,0.294,0.743,0.591,1.113,0.879C74.524,213.968,74.154,213.672,73.781,213.377
		z"/>
	<path style="opacity:0.44;fill:#F2AA99;" d="M73.781,213.377c0.373,0.294,0.743,0.591,1.113,0.879
		C74.524,213.968,74.154,213.672,73.781,213.377z"/>
	<path style="fill:#505B66;" d="M19.098,157.803c4.782,21.277,69.692,74.285,74.923,62.971
		c8.737-18.906-29.624-67.563-29.624-67.563c0.502-0.317,1.029-0.657,1.569-1.001c-12.375-6.436-23.87-12.702-31.589-23.897
		C28.035,135.212,17.062,148.741,19.098,157.803z"/>
	<path style="fill:#F57078;" d="M74.306,162.714c-5.217-2.786-12.856,0.28-16.725,4.115c-1.018,1.004,0.748,2.348,1.746,1.357
		c3.217-3.185,9.856-5.708,14.135-3.422C74.721,165.435,75.555,163.381,74.306,162.714z"/>
	<path style="fill:#F57078;" d="M80.131,172.24c-5.449-1.702-10.929-0.777-15.352,2.897c-1.099,0.909,0.242,2.672,1.344,1.761
		c3.796-3.154,8.448-4.083,13.164-2.61C80.642,174.71,81.494,172.668,80.131,172.24z"/>
	<path style="fill:#F57078;" d="M86.412,181.579c-5.004-2.285-11.445-0.506-15.863,2.308c-1.205,0.767,0.148,2.521,1.342,1.761
		c3.775-2.399,9.413-3.97,13.679-2.022C86.869,184.221,87.708,182.172,86.412,181.579z"/>
	<path style="fill:#505B66;" d="M148.925,229.493c12.527,17.85,92.733,42.137,93.262,29.684
		c0.875-20.808-53.127-51.186-53.127-51.186c0.342-0.483,0.701-0.998,1.069-1.521c-13.892-1.238-26.909-2.652-38.312-10.064
		C148.584,205.201,143.59,221.889,148.925,229.493z"/>
	<path style="fill:#F57078;" d="M201.842,213.003c-5.884-0.588-11.78,5.157-13.898,10.176c-0.557,1.315,1.587,1.883,2.132,0.589
		c1.761-4.17,6.939-9.032,11.765-8.55C203.263,215.361,203.25,213.145,201.842,213.003z"/>
	<path style="fill:#F57078;" d="M210.857,219.593c-5.686,0.504-10.403,3.445-13.091,8.526c-0.671,1.258,1.241,2.378,1.912,1.114
		c2.308-4.36,6.256-6.988,11.179-7.425C212.27,221.683,212.279,219.467,210.857,219.593z"/>
	<path style="fill:#F57078;" d="M220.223,225.836c-5.499-0.209-10.777,3.89-13.787,8.176c-0.824,1.171,1.094,2.276,1.911,1.116
		c2.573-3.656,7.19-7.256,11.877-7.078C221.651,228.105,221.644,225.889,220.223,225.836z"/>
</g>
<g>
</g>
<g>
</g>
<g>
</g>
<g>
</g>
<g>
</g>
<g>
</g>
<g>
</g>
<g>
</g>
<g>
</g>
<g>
</g>
<g>
</g>
<g>
</g>
<g>
</g>
<g>
</g>
<g>
</g>
</svg>
