<?xml version="1.0" encoding="iso-8859-1"?>
<!-- Generator: Adobe Illustrator 19.1.0, SVG Export Plug-In . SVG Version: 6.00 Build 0)  -->
<svg version="1.1" id="Capa_1" xmlns="http://www.w3.org/2000/svg" xmlns:xlink="http://www.w3.org/1999/xlink" x="0px" y="0px"
	 viewBox="0 0 471.798 471.798" style="enable-background:new 0 0 471.798 471.798;" xml:space="preserve">
<g>
	<polygon style="fill:none;" points="471.305,212.31 471.305,212.31 471.305,212.31 	"/>
	<polygon style="fill:none;" points="325.551,299.988 324.326,296.899 325.55,299.988 325.551,299.988 	"/>
	<path style="fill:#EAEBED;" d="M467.636,266.929c-0.362,3.568-0.495,7.263-0.475,11.053c2.689-11.641,2.957-13.862,3.747-25.778
		c-1.256,3.341-2.143,6.867-2.731,10.553C467.958,264.126,467.779,265.518,467.636,266.929z"/>
	<path style="fill:#7C8783;" d="M304.329,105.773c11.467,2.586,23.399,5.418,35.433,8.387h92.57
		c-37.624-51.365-98.65-84.739-167.157-84.739c-43.816,0-84.427,13.669-117.845,36.948c51.367,8.569,104.645,22.571,157.01,39.38
		L304.329,105.773z"/>
	<path style="fill:#F9D363;" d="M451.323,144.898c-5.446-10.743-11.826-21.004-18.992-30.737h-92.57
		C380.372,124.179,422.164,135.773,451.323,144.898z"/>
	<path style="fill:#F9D363;" d="M268.946,202.885c-62.509-12.604-157.173-54.988-183.367-68.901
		c-16.753,29.459-26.466,63.44-26.853,99.663H286.59C279.99,223.285,273.934,213.084,268.946,202.885z"/>
	<path style="fill:#F9D363;" d="M462.9,219.553c0.651-0.634,1.317-1.267,1.999-1.889c2.166-1.976,4.428-3.852,6.406-5.355l0,0
		C468.462,214.411,465.661,216.826,462.9,219.553z"/>
	<path style="fill:#6DC0CF;" d="M342.63,326.914c-0.629-0.844-1.249-1.682-1.85-2.507c-8.479-11.638-14.125-21.199-15.786-24.101
		l0.033-0.019l0.522-0.299l-1.224-3.089l1.225,3.089l2.588-1.48c-13.211-23.078-28.444-44.286-41.549-64.861H58.726
		c-0.008,0.751-0.029,1.499-0.029,2.252c0,114.034,92.441,206.216,206.477,206.477c34.174,0.078,66.351-8.127,94.683-22.753
		C362.396,384.695,354.77,354.353,342.63,326.914z"/>
	<path style="fill:#E1E1E1;" d="M443.584,304.456c-0.08-0.951-0.161-1.908-0.24-2.868c-0.027-0.323-0.051-0.653-0.078-0.977
		c-14.241,4.59-49.813-3.307-72.919-16.876c-73.427-43.122-93-74.354-101.449-82.03l-0.515-3.293
		c-0.177-1.129-0.969-2.036-2.032-2.398c-7.682-7.107-9.157-16.322-12.504-30.705c-6.172,7.541,0.146,22.971,6.659,29.275
		C188.487,175.86,86.969,93.519,84.229,91.289c-0.038-0.031-0.067-0.055-0.067-0.055s-0.056,0.157-0.149,0.431
		c-0.167,0.492-0.464,1.401-0.839,2.652c-0.254,0.85-0.541,1.855-0.846,2.996c-0.366,1.37-0.754,2.931-1.135,4.644
		c-0.579,2.6-1.137,5.544-1.567,8.692c0,0.001,0,0.002,0,0.003c-0.846,6.184-1.196,13.138-0.207,19.759
		c1.055,0.759,3.169,1.983,6.161,3.573c26.194,13.913,120.859,56.297,183.367,68.901c4.988,10.199,11.044,20.401,17.644,30.762
		c13.105,20.575,28.338,41.783,41.549,64.861l18.642-10.669l-10.893,6.233l10.89-6.237c0,0,0.001,0.002,0.003,0.004
		c11.699,20.389,51.461,76.842,79.834,69.209c3.139-0.845,5.598-1.62,7.721-2.818c3.388-4.872,6.585-9.891,9.557-15.063
		c0.26-1.346,0.468-2.768,0.614-4.292C445.245,327.24,444.672,317.328,443.584,304.456z"/>
	<path style="fill:#E1E1E1;" d="M404.156,379.698c-0.674-0.234-1.347-0.48-2.018-0.738c-1.342-0.515-2.676-1.077-4.002-1.682
		c-3.315-1.512-6.578-3.293-9.775-5.29c-1.279-0.799-2.548-1.632-3.805-2.496c-1.257-0.864-2.503-1.759-3.737-2.682
		c-1.234-0.923-2.455-1.873-3.664-2.847c-0.604-0.487-1.205-0.98-1.803-1.479c-1.195-0.998-2.377-2.018-3.544-3.057
		c-1.751-1.559-3.47-3.16-5.154-4.792c-2.245-2.176-4.427-4.408-6.54-6.668c-1.056-1.13-2.095-2.266-3.116-3.406
		c-2.042-2.28-4.01-4.574-5.899-6.855c-1.889-2.281-3.698-4.547-5.42-6.773c-1-1.293-1.962-2.566-2.903-3.826
		c-0.047-0.064-0.099-0.13-0.146-0.193c12.14,27.439,19.766,57.781,17.227,92.709c19.153-9.888,36.544-22.712,51.603-37.907
		c-1.082-0.224-2.162-0.473-3.237-0.763C406.861,380.585,405.505,380.166,404.156,379.698z"/>
	<polygon style="fill:#505B66;" points="335.887,294.072 346.78,287.839 346.777,287.835 	"/>
	<polygon style="fill:#7C8783;" points="325.55,299.988 325.028,300.287 325.551,299.988 	"/>
	<polygon style="opacity:0.16;fill:#505B66;" points="325.55,299.988 325.028,300.287 325.551,299.988 	"/>
	<path style="fill:#505B66;" d="M346.78,287.839l-18.642,10.669c14.471,22.108,44.1,66.36,79.557,71.326
		c4.941,0.692,9.512,1.073,14.482,0.195c4.296-5.059,8.354-10.33,12.158-15.799c-2.123,1.198-4.582,1.972-7.721,2.818
		C398.242,364.681,358.48,308.228,346.78,287.839z"/>
	<path style="fill:#505B66;" d="M342.777,327.107c-0.678-0.909-1.35-1.814-1.996-2.7c0.601,0.825,1.22,1.663,1.85,2.507
		C342.677,326.977,342.729,327.044,342.777,327.107z"/>
	<polygon style="opacity:0.16;fill:#505B66;" points="325.551,299.988 325.551,299.989 325.551,299.988 	"/>
	<polygon style="fill:#6DC0CF;" points="324.995,300.306 325.025,300.289 325.028,300.287 	"/>
	<polygon style="opacity:0.16;fill:#505B66;" points="324.995,300.306 325.025,300.289 325.028,300.287 	"/>
	<polygon style="fill:#6DC0CF;" points="325.551,299.989 328.138,298.508 325.551,299.988 	"/>
	<polygon style="opacity:0.16;fill:#505B66;" points="325.551,299.989 328.138,298.508 325.551,299.988 	"/>
	<polygon style="fill:#7C8783;" points="325.028,300.287 325.025,300.289 325.365,300.094 325.551,299.989 325.551,299.988 	"/>
	<polygon style="opacity:0.16;fill:#505B66;" points="325.028,300.287 325.025,300.289 325.365,300.094 325.551,299.989 
		325.551,299.988 	"/>
	<polygon style="opacity:0.16;fill:#505B66;" points="325.028,300.287 325.025,300.289 325.365,300.094 325.551,299.989 
		325.551,299.988 	"/>
	<path style="fill:#505B66;" d="M407.695,369.834c-35.457-4.966-65.086-49.218-79.557-71.326l-2.587,1.481l-0.185,0.106l-0.34,0.194
		l-0.031,0.017c1.661,2.902,7.306,12.463,15.786,24.101c0.646,0.887,1.318,1.791,1.996,2.7c0.941,1.26,1.903,2.533,2.903,3.826
		c1.722,2.226,3.531,4.493,5.42,6.773c1.889,2.281,3.857,4.575,5.899,6.855c1.021,1.14,2.06,2.277,3.116,3.406
		c2.113,2.259,4.295,4.491,6.54,6.668c1.684,1.632,3.403,3.234,5.154,4.792c1.167,1.039,2.349,2.059,3.544,3.057
		c0.598,0.499,1.199,0.992,1.803,1.479c1.208,0.974,2.43,1.925,3.664,2.847c1.234,0.923,2.48,1.818,3.737,2.682
		c1.257,0.864,2.526,1.697,3.805,2.496c3.198,1.997,6.46,3.778,9.775,5.29c1.326,0.605,2.66,1.167,4.002,1.682
		c0.671,0.258,1.344,0.504,2.018,0.738c1.349,0.468,2.705,0.888,4.067,1.255c1.075,0.29,2.155,0.539,3.237,0.763
		c3.719-3.753,7.292-7.653,10.718-11.687C417.207,370.907,412.636,370.526,407.695,369.834z"/>
	<path style="opacity:0.16;fill:#505B66;" d="M407.695,369.834c-35.457-4.966-65.086-49.218-79.557-71.326l-2.587,1.481
		l-0.185,0.106l-0.34,0.194l-0.031,0.017c1.661,2.902,7.306,12.463,15.786,24.101c0.646,0.887,1.318,1.791,1.996,2.7
		c0.941,1.26,1.903,2.533,2.903,3.826c1.722,2.226,3.531,4.493,5.42,6.773c1.889,2.281,3.857,4.575,5.899,6.855
		c1.021,1.14,2.06,2.277,3.116,3.406c2.113,2.259,4.295,4.491,6.54,6.668c1.684,1.632,3.403,3.234,5.154,4.792
		c1.167,1.039,2.349,2.059,3.544,3.057c0.598,0.499,1.199,0.992,1.803,1.479c1.208,0.974,2.43,1.925,3.664,2.847
		c1.234,0.923,2.48,1.818,3.737,2.682c1.257,0.864,2.526,1.697,3.805,2.496c3.198,1.997,6.46,3.778,9.775,5.29
		c1.326,0.605,2.66,1.167,4.002,1.682c0.671,0.258,1.344,0.504,2.018,0.738c1.349,0.468,2.705,0.888,4.067,1.255
		c1.075,0.29,2.155,0.539,3.237,0.763c3.719-3.753,7.292-7.653,10.718-11.687C417.207,370.907,412.636,370.526,407.695,369.834z"/>
	<path style="fill:#F4B7A9;" d="M34.127,67.739c-0.746,3.511-1.787,6.878-3.036,10.011l20.57,0.47l32.353,13.445
		c0.093-0.275,0.149-0.431,0.149-0.431s0.029,0.024,0.067,0.055c4.248-11.669,10.778-23.394,17.165-31.029
		c-14.769-2.681-28.323-4.62-39.371-5.317L28.28,34.044C34.376,38.754,37.331,52.652,34.127,67.739z"/>
	<path style="fill:#F4B7A9;" d="M72.797,105.904c-0.185-0.133-0.371-0.266-0.554-0.399
		C72.426,105.638,72.611,105.771,72.797,105.904z"/>
	<path style="fill:#F4B7A9;" d="M68.538,102.778c-0.073-0.054-0.147-0.11-0.219-0.164C68.391,102.668,68.466,102.724,68.538,102.778
		z"/>
	<path style="fill:#F4B7A9;" d="M54.391,91.278c-0.223-0.198-0.433-0.386-0.646-0.576C53.958,90.892,54.167,91.08,54.391,91.278z"/>
	<path style="fill:#F4B7A9;" d="M64.663,99.811c-0.119-0.093-0.234-0.184-0.352-0.277C64.429,99.626,64.544,99.717,64.663,99.811z"
		/>
	<path style="fill:#F4B7A9;" d="M79.383,110.488c-0.121-0.082-0.239-0.163-0.36-0.244C79.144,110.326,79.262,110.406,79.383,110.488
		z"/>
	<path style="fill:#F4B7A9;" d="M53.364,90.361c-0.217-0.196-0.425-0.384-0.63-0.571C52.939,89.977,53.146,90.165,53.364,90.361z"/>
	<path style="fill:#F4B7A9;" d="M63.012,98.508c-0.175-0.14-0.345-0.277-0.518-0.415C62.667,98.231,62.837,98.368,63.012,98.508z"/>
	<path style="fill:#F4B7A9;" d="M77.124,108.949c-0.18-0.124-0.356-0.247-0.534-0.37C76.768,108.702,76.944,108.825,77.124,108.949z
		"/>
	<path style="fill:#F4B7A9;" d="M70.692,104.376c-0.152-0.112-0.306-0.224-0.457-0.335C70.386,104.152,70.54,104.264,70.692,104.376
		z"/>
	<path style="fill:#F4B7A9;" d="M52.421,89.506c-0.21-0.192-0.412-0.377-0.609-0.559C52.009,89.129,52.21,89.314,52.421,89.506z"/>
	<path style="fill:#F4B7A9;" d="M61.435,97.24c-0.187-0.151-0.371-0.301-0.554-0.451C61.064,96.939,61.248,97.088,61.435,97.24z"/>
	<path style="fill:#F4B7A9;" d="M58.528,94.842c-0.184-0.154-0.369-0.31-0.549-0.461C58.159,94.533,58.344,94.688,58.528,94.842z"/>
	<path style="fill:#F4B7A9;" d="M57.179,93.701c-0.167-0.143-0.339-0.289-0.502-0.429C56.84,93.412,57.011,93.558,57.179,93.701z"/>
	<path style="fill:#F4B7A9;" d="M55.887,92.589c-0.295-0.256-0.582-0.507-0.863-0.753C55.305,92.082,55.592,92.332,55.887,92.589z"
		/>
	<path style="fill:#F4B7A9;" d="M59.941,96.018c-0.189-0.156-0.377-0.311-0.561-0.464C59.564,95.707,59.752,95.862,59.941,96.018z"
		/>
	<path style="fill:#F4B7A9;" d="M74.928,107.42c-0.193-0.136-0.385-0.271-0.576-0.407C74.543,107.149,74.735,107.284,74.928,107.42z
		"/>
	<path style="fill:#F4B7A9;" d="M51.574,88.727c-0.207-0.192-0.408-0.379-0.6-0.559C51.167,88.348,51.366,88.534,51.574,88.727z"/>
	<path style="fill:#F4B7A9;" d="M50.223,87.46l-33.618,9.273c0,0,0,0,0,0L50.223,87.46c0.193,0.184,0.398,0.377,0.611,0.577
		C50.622,87.837,50.416,87.643,50.223,87.46z"/>
	<path style="opacity:0.44;fill:#F2AA99;" d="M26.678,33.052l1.601,0.992C27.767,33.647,27.233,33.313,26.678,33.052z"/>
	<path style="opacity:0.44;fill:#F2AA99;" d="M13.04,97.735c1.158-0.072,2.354-0.415,3.564-1.002l-3.09,0.852
		C13.356,97.641,13.198,97.689,13.04,97.735z"/>
	<path style="fill:#F4B7A9;" d="M31.225,67.823c-0.739,3.477-1.697,6.791-2.819,9.866l2.684,0.061
		c1.249-3.133,2.291-6.5,3.036-10.011c3.204-15.087,0.249-28.985-5.847-33.695l-1.601-0.992c-0.001-0.001-0.003-0.001-0.004-0.002
		C32.436,38.019,34.506,52.373,31.225,67.823z"/>
	<path style="opacity:0.44;fill:#F2AA99;" d="M31.225,67.823c-0.739,3.477-1.697,6.791-2.819,9.866l2.684,0.061
		c1.249-3.133,2.291-6.5,3.036-10.011c3.204-15.087,0.249-28.985-5.847-33.695l-1.601-0.992c-0.001-0.001-0.003-0.001-0.004-0.002
		C32.436,38.019,34.506,52.373,31.225,67.823z"/>
	<rect x="15.059" y="95.556" style="fill:#F4B7A9;" width="0.001" height="3.206"/>
	<rect x="15.059" y="95.556" style="opacity:0.44;fill:#F2AA99;" width="0.001" height="3.206"/>
	<path style="opacity:0.51;fill:#D6A194;" d="M59.379,95.553c-0.29-0.24-0.572-0.477-0.851-0.711
		C58.807,95.077,59.09,95.313,59.379,95.553z"/>
	<path style="opacity:0.51;fill:#D6A194;" d="M62.495,98.093c-0.359-0.287-0.714-0.573-1.06-0.853
		C61.781,97.52,62.136,97.806,62.495,98.093z"/>
	<path style="opacity:0.51;fill:#D6A194;" d="M79.383,110.488c0.082,0.055,0.16,0.109,0.242,0.164c0-0.001,0-0.002,0-0.003
		C79.546,110.596,79.463,110.542,79.383,110.488z"/>
	<path style="opacity:0.51;fill:#D6A194;" d="M60.881,96.789c-0.319-0.26-0.633-0.517-0.94-0.771
		C60.249,96.272,60.562,96.529,60.881,96.789z"/>
	<path style="opacity:0.51;fill:#D6A194;" d="M72.243,105.506c-0.525-0.38-1.041-0.756-1.55-1.13
		C71.202,104.75,71.717,105.126,72.243,105.506z"/>
	<path style="opacity:0.51;fill:#D6A194;" d="M76.589,108.579c-0.561-0.388-1.116-0.775-1.661-1.159
		C75.474,107.804,76.028,108.19,76.589,108.579z"/>
	<path style="opacity:0.51;fill:#D6A194;" d="M70.235,104.041c-0.576-0.425-1.142-0.846-1.697-1.263
		C69.094,103.195,69.659,103.616,70.235,104.041z"/>
	<path style="opacity:0.51;fill:#D6A194;" d="M79.023,110.244c-0.642-0.434-1.276-0.866-1.9-1.295
		C77.747,109.378,78.381,109.81,79.023,110.244z"/>
	<path style="opacity:0.51;fill:#D6A194;" d="M64.311,99.534c-0.44-0.346-0.875-0.689-1.299-1.026
		C63.436,98.845,63.871,99.188,64.311,99.534z"/>
	<path style="opacity:0.51;fill:#D6A194;" d="M74.352,107.013c-0.526-0.372-1.044-0.742-1.555-1.109
		C73.308,106.272,73.826,106.641,74.352,107.013z"/>
	<path style="opacity:0.51;fill:#D6A194;" d="M55.025,91.836c-0.213-0.187-0.43-0.377-0.634-0.558
		C54.595,91.459,54.812,91.649,55.025,91.836z"/>
	<path style="opacity:0.51;fill:#D6A194;" d="M53.745,90.702c-0.127-0.114-0.258-0.23-0.381-0.341
		C53.487,90.472,53.618,90.588,53.745,90.702z"/>
	<path style="opacity:0.51;fill:#D6A194;" d="M52.733,89.79c-0.105-0.095-0.211-0.191-0.313-0.284
		C52.522,89.599,52.629,89.695,52.733,89.79z"/>
	<path style="opacity:0.51;fill:#D6A194;" d="M57.979,94.381c-0.273-0.231-0.537-0.456-0.8-0.68
		C57.442,93.925,57.706,94.15,57.979,94.381z"/>
	<path style="opacity:0.51;fill:#D6A194;" d="M56.677,93.272c-0.271-0.233-0.53-0.458-0.789-0.683
		C56.146,92.814,56.406,93.039,56.677,93.272z"/>
	<path style="opacity:0.51;fill:#D6A194;" d="M50.974,88.168c-0.047-0.044-0.094-0.088-0.14-0.131
		C50.88,88.08,50.926,88.123,50.974,88.168z"/>
	<path style="opacity:0.51;fill:#D6A194;" d="M68.319,102.614c-1.275-0.959-2.493-1.895-3.656-2.804
		C65.825,100.72,67.044,101.655,68.319,102.614z"/>
	<path style="opacity:0.51;fill:#D6A194;" d="M51.812,88.947c-0.08-0.074-0.16-0.148-0.238-0.22
		C51.652,88.799,51.732,88.873,51.812,88.947z"/>
	<path style="fill:#F4B7A9;" d="M11.818,98.053l0.503-0.139c-0.165,0.033-0.329,0.066-0.493,0.088L11.818,98.053z"/>
	<path style="opacity:0.51;fill:#D6A194;" d="M11.818,98.053l0.503-0.139c-0.165,0.033-0.329,0.066-0.493,0.088L11.818,98.053z"/>
	<path style="fill:#F4B7A9;" d="M81.193,101.958c-0.143-0.147-0.287-0.287-0.429-0.443c-0.074-0.081-0.148-0.166-0.222-0.25
		c-0.18-0.201-0.358-0.411-0.535-0.627c-0.076-0.093-0.15-0.183-0.226-0.278c-0.231-0.29-0.462-0.592-0.691-0.906
		c-0.026-0.034-0.05-0.07-0.074-0.104c-0.224-0.31-0.445-0.634-0.667-0.966c-0.081-0.121-0.16-0.245-0.24-0.369
		c0.081,0.124,0.16,0.248,0.24,0.369c0.222,0.332,0.444,0.656,0.667,0.966c0.024,0.034,0.048,0.07,0.074,0.104
		c0.229,0.315,0.46,0.616,0.691,0.906c0.076,0.095,0.15,0.185,0.226,0.278c0.177,0.216,0.355,0.426,0.535,0.627
		c0.074,0.084,0.148,0.169,0.222,0.25C80.907,101.671,81.05,101.811,81.193,101.958c0.381-1.713,0.769-3.274,1.135-4.644
		c-0.03-0.01-0.053-0.018-0.085-0.029c0.289-0.984,0.604-1.974,0.931-2.967c0.374-1.252,0.672-2.161,0.839-2.652L51.661,78.22
		l-20.57-0.47C27.404,87,21.881,94.17,16.604,96.733l33.618-9.273c0.193,0.183,0.399,0.378,0.611,0.577
		c0.047,0.044,0.093,0.087,0.14,0.131c0.192,0.18,0.393,0.367,0.6,0.559c0.078,0.072,0.158,0.146,0.238,0.22
		c0.197,0.182,0.399,0.367,0.609,0.559c0.102,0.093,0.208,0.189,0.313,0.284c0.206,0.187,0.413,0.375,0.63,0.571
		c0.123,0.111,0.254,0.227,0.381,0.341c0.213,0.19,0.423,0.379,0.646,0.576c0.204,0.181,0.421,0.371,0.634,0.558
		c0.28,0.246,0.568,0.497,0.863,0.753c0.26,0.225,0.518,0.45,0.789,0.683c0.163,0.14,0.335,0.286,0.502,0.429
		c0.263,0.224,0.527,0.45,0.8,0.68c0.179,0.152,0.365,0.307,0.549,0.461c0.279,0.234,0.562,0.471,0.851,0.711
		c0.185,0.153,0.373,0.309,0.561,0.464c0.308,0.254,0.622,0.511,0.94,0.771c0.183,0.149,0.367,0.299,0.554,0.451
		c0.346,0.281,0.701,0.566,1.06,0.853c0.172,0.138,0.343,0.275,0.518,0.415c0.424,0.337,0.858,0.68,1.299,1.026
		c0.118,0.093,0.233,0.184,0.352,0.277c1.162,0.909,2.381,1.845,3.656,2.804c0.072,0.054,0.147,0.11,0.219,0.164
		c0.555,0.417,1.121,0.838,1.697,1.263c0.151,0.111,0.305,0.223,0.457,0.335c0.509,0.374,1.025,0.75,1.55,1.13
		c0.183,0.132,0.369,0.266,0.554,0.399c0.511,0.367,1.029,0.737,1.555,1.109c0.191,0.135,0.383,0.271,0.576,0.407
		c0.546,0.384,1.1,0.771,1.661,1.159c0.178,0.123,0.355,0.246,0.534,0.37c0.623,0.429,1.258,0.861,1.9,1.295
		c0.121,0.081,0.239,0.162,0.36,0.244c0.08,0.054,0.163,0.108,0.243,0.162C80.057,107.502,80.615,104.558,81.193,101.958z"/>
	<path style="opacity:0.51;fill:#D6A194;" d="M81.193,101.958c-0.143-0.147-0.287-0.287-0.429-0.443
		c-0.074-0.081-0.148-0.166-0.222-0.25c-0.18-0.201-0.358-0.411-0.535-0.627c-0.076-0.093-0.15-0.183-0.226-0.278
		c-0.231-0.29-0.462-0.592-0.691-0.906c-0.026-0.034-0.05-0.07-0.074-0.104c-0.224-0.31-0.445-0.634-0.667-0.966
		c-0.081-0.121-0.16-0.245-0.24-0.369c0.081,0.124,0.16,0.248,0.24,0.369c0.222,0.332,0.444,0.656,0.667,0.966
		c0.024,0.034,0.048,0.07,0.074,0.104c0.229,0.315,0.46,0.616,0.691,0.906c0.076,0.095,0.15,0.185,0.226,0.278
		c0.177,0.216,0.355,0.426,0.535,0.627c0.074,0.084,0.148,0.169,0.222,0.25C80.907,101.671,81.05,101.811,81.193,101.958
		c0.381-1.713,0.769-3.274,1.135-4.644c-0.03-0.01-0.053-0.018-0.085-0.029c0.289-0.984,0.604-1.974,0.931-2.967
		c0.374-1.252,0.672-2.161,0.839-2.652L51.661,78.22l-20.57-0.47C27.404,87,21.881,94.17,16.604,96.733l33.618-9.273
		c0.193,0.183,0.399,0.378,0.611,0.577c0.047,0.044,0.093,0.087,0.14,0.131c0.192,0.18,0.393,0.367,0.6,0.559
		c0.078,0.072,0.158,0.146,0.238,0.22c0.197,0.182,0.399,0.367,0.609,0.559c0.102,0.093,0.208,0.189,0.313,0.284
		c0.206,0.187,0.413,0.375,0.63,0.571c0.123,0.111,0.254,0.227,0.381,0.341c0.213,0.19,0.423,0.379,0.646,0.576
		c0.204,0.181,0.421,0.371,0.634,0.558c0.28,0.246,0.568,0.497,0.863,0.753c0.26,0.225,0.518,0.45,0.789,0.683
		c0.163,0.14,0.335,0.286,0.502,0.429c0.263,0.224,0.527,0.45,0.8,0.68c0.179,0.152,0.365,0.307,0.549,0.461
		c0.279,0.234,0.562,0.471,0.851,0.711c0.185,0.153,0.373,0.309,0.561,0.464c0.308,0.254,0.622,0.511,0.94,0.771
		c0.183,0.149,0.367,0.299,0.554,0.451c0.346,0.281,0.701,0.566,1.06,0.853c0.172,0.138,0.343,0.275,0.518,0.415
		c0.424,0.337,0.858,0.68,1.299,1.026c0.118,0.093,0.233,0.184,0.352,0.277c1.162,0.909,2.381,1.845,3.656,2.804
		c0.072,0.054,0.147,0.11,0.219,0.164c0.555,0.417,1.121,0.838,1.697,1.263c0.151,0.111,0.305,0.223,0.457,0.335
		c0.509,0.374,1.025,0.75,1.55,1.13c0.183,0.132,0.369,0.266,0.554,0.399c0.511,0.367,1.029,0.737,1.555,1.109
		c0.191,0.135,0.383,0.271,0.576,0.407c0.546,0.384,1.1,0.771,1.661,1.159c0.178,0.123,0.355,0.246,0.534,0.37
		c0.623,0.429,1.258,0.861,1.9,1.295c0.121,0.081,0.239,0.162,0.36,0.244c0.08,0.054,0.163,0.108,0.243,0.162
		C80.057,107.502,80.615,104.558,81.193,101.958z"/>
	<path style="fill:#F4B7A9;" d="M13.514,97.585l3.09-0.852C21.881,94.17,27.404,87,31.091,77.75l-2.684-0.061
		C24.636,88.026,19.002,95.648,13.514,97.585z"/>
	<path style="opacity:0.44;fill:#F2AA99;" d="M13.514,97.585l3.09-0.852C21.881,94.17,27.404,87,31.091,77.75l-2.684-0.061
		C24.636,88.026,19.002,95.648,13.514,97.585z"/>
	<path style="opacity:0.51;fill:#D6A194;" d="M13.514,97.585l3.09-0.852C21.881,94.17,27.404,87,31.091,77.75l-2.684-0.061
		C24.636,88.026,19.002,95.648,13.514,97.585z"/>
	<path style="fill:#F4B7A9;" d="M13.514,97.585c5.488-1.937,11.122-9.559,14.892-19.896c1.122-3.076,2.08-6.389,2.819-9.866
		c3.281-15.45,1.211-29.804-4.551-34.773c0.001,0.001,0.003,0.001,0.004,0.002l-0.006-0.004c-0.993-0.856-2.092-1.441-3.296-1.696
		c-8.192-1.74-17.97,12.058-21.817,30.171C-2.288,79.635,1.228,96.184,9.42,97.924c0.79,0.168,1.595,0.188,2.407,0.078l-0.01,0.051
		l0.503-0.139c0.239-0.048,0.479-0.108,0.719-0.179C13.198,97.689,13.356,97.641,13.514,97.585
		C13.514,97.585,13.514,97.585,13.514,97.585z M11.818,98.053l0.01-0.051c0.164-0.022,0.329-0.055,0.493-0.088L11.818,98.053z"/>
	<path style="fill:#EAEBED;" d="M260.506,194.585c-6.514-6.304-12.831-21.734-6.659-29.275c3.347,14.383,4.822,23.599,12.504,30.705
		c1.063,0.362,1.855,1.269,2.032,2.398l0.515,3.293c8.449,7.676,28.022,38.908,101.449,82.03
		c23.106,13.57,58.679,21.466,72.919,16.876c-0.15-1.811-0.299-3.629-0.435-5.463c-0.158-2.136-0.303-4.285-0.422-6.444
		c-1.04-18.761-0.208-38.18,9.501-55.058c2.478-4.308,5.525-8.452,9.277-12.375c0.545-0.57,1.124-1.144,1.713-1.718
		c2.761-2.728,5.562-5.143,8.405-7.244l0,0c-1.979-22.411-8.979-47.411-19.979-67.411c-0.001,0-0.002-0.001-0.003-0.001
		c-29.159-9.125-70.951-20.719-111.562-30.737c-12.034-2.969-23.966-5.801-35.433-8.387l0.01-0.024
		c-52.365-16.809-105.643-30.811-157.01-39.38c-15.486-2.583-30.8-4.679-45.861-6.202c-0.025,0.03-0.05,0.063-0.075,0.092
		c-6.386,7.635-12.916,19.36-17.165,31.029C86.969,93.519,188.487,175.86,260.506,194.585z M254.14,162.355
		c-7.695-2.058-0.023-33.708,13.386-34.58C258.951,140.546,253.584,151.17,254.14,162.355z"/>
	<path style="fill:#EAEBED;" d="M82.328,97.314c0.305-1.141,0.592-2.146,0.846-2.996c-0.327,0.993-0.642,1.983-0.931,2.967
		C82.276,97.296,82.298,97.304,82.328,97.314z"/>
	<path style="fill:none;stroke:#F4B7A9;stroke-width:0;stroke-linecap:round;stroke-linejoin:round;" d="M79.015,99.35
		c0.024,0.034,0.048,0.07,0.074,0.104"/>
	<path style="fill:none;stroke:#F4B7A9;stroke-width:0;stroke-linecap:round;stroke-linejoin:round;" d="M80.542,101.266
		c0.074,0.084,0.148,0.169,0.222,0.25"/>
	<path style="fill:none;stroke:#F4B7A9;stroke-width:0;stroke-linecap:round;stroke-linejoin:round;" d="M78.107,98.015
		c0.081,0.124,0.16,0.248,0.24,0.369"/>
	<path style="fill:none;stroke:#F4B7A9;stroke-width:0;stroke-linecap:round;stroke-linejoin:round;" d="M79.781,100.361
		c0.076,0.095,0.15,0.185,0.226,0.278"/>
	<path style="opacity:0.44;fill:none;stroke:#F2AA99;stroke-width:0;stroke-linecap:round;stroke-linejoin:round;" d="
		M80.007,100.639c0.177,0.216,0.355,0.426,0.535,0.627"/>
	<path style="opacity:0.44;fill:none;stroke:#F2AA99;stroke-width:0;stroke-linecap:round;stroke-linejoin:round;" d="M79.09,99.455
		c0.229,0.315,0.46,0.616,0.691,0.906"/>
	<path style="opacity:0.44;fill:none;stroke:#F2AA99;stroke-width:0;stroke-linecap:round;stroke-linejoin:round;" d="
		M78.348,98.384c0.222,0.332,0.444,0.656,0.667,0.966"/>
	<path style="opacity:0.44;fill:none;stroke:#F2AA99;stroke-width:0;stroke-linecap:round;stroke-linejoin:round;" d="
		M80.764,101.516c0.142,0.155,0.286,0.296,0.429,0.443"/>
	<path style="fill:#E1E1E1;" d="M254.14,162.355c-0.556-11.186,4.811-21.809,13.386-34.58
		C254.117,128.647,246.445,160.297,254.14,162.355z"/>
	<path style="fill:#505B66;" d="M471.305,212.31L471.305,212.31c-1.977,1.503-4.24,3.378-6.406,5.355
		c-0.682,0.622-1.348,1.255-1.999,1.889c-0.589,0.574-1.167,1.148-1.713,1.718c-3.753,3.923-6.799,8.068-9.277,12.375
		c-9.709,16.878-10.541,36.297-9.501,55.058c0.12,2.159,0.264,4.308,0.422,6.444c0.136,1.834,0.285,3.652,0.435,5.463
		c0.027,0.324,0.051,0.654,0.078,0.977c0.079,0.96,0.16,1.916,0.24,2.868c1.088,12.872,1.661,22.784,0.923,30.419
		c-0.146,1.524-0.354,2.946-0.614,4.292c10.746-18.699,18.691-39.282,23.268-61.185c-0.02-3.79,0.114-7.485,0.475-11.053
		c0.143-1.411,0.322-2.802,0.54-4.172c0.588-3.685,1.476-7.211,2.731-10.553c0.449-5.377,0.701-10.813,0.744-16.305
		C471.713,228.127,472.096,219.859,471.305,212.31z"/>
</g>
<g>
</g>
<g>
</g>
<g>
</g>
<g>
</g>
<g>
</g>
<g>
</g>
<g>
</g>
<g>
</g>
<g>
</g>
<g>
</g>
<g>
</g>
<g>
</g>
<g>
</g>
<g>
</g>
<g>
</g>
</svg>
