<?xml version="1.0" encoding="iso-8859-1"?>
<!-- Generator: Adobe Illustrator 19.1.0, SVG Export Plug-In . SVG Version: 6.00 Build 0)  -->
<svg version="1.1" id="Capa_1" xmlns="http://www.w3.org/2000/svg" xmlns:xlink="http://www.w3.org/1999/xlink" x="0px" y="0px"
	 viewBox="0 0 436.553 436.553" style="enable-background:new 0 0 436.553 436.553;" xml:space="preserve">
<g>
	<circle style="fill:#9FBE5B;" cx="209.609" cy="218.276" r="209.609"/>
	<path style="fill:#FFFFFF;" d="M32.63,105.926c-9.6,15.09-17.316,31.49-22.834,48.872h399.627
		c-5.518-17.383-13.236-33.783-22.834-48.872H32.63z"/>
	<path style="fill:#FFFFFF;" d="M6.746,271.21c2.389,9.176,5.391,18.105,8.947,26.75l17.632-26.75H6.746z"/>
	<path style="fill:#FFFFFF;" d="M349.004,320.08h43.855c8.478-15.226,15.121-31.612,19.612-48.87h-31.251L349.004,320.08z"/>
	<polygon style="fill:#FFFFFF;" points="167.376,271.21 135.16,320.08 214.954,320.08 247.17,271.21 	"/>
	<g>
		<path style="fill:#EA7053;" d="M411.512,198.075c22.596-11.548,31.544-39.23,19.996-61.823
			c-11.553-22.6-39.234-31.553-61.829-20.001c-22.599,11.552-31.551,39.232-19.999,61.832
			C361.232,200.679,388.913,209.627,411.512,198.075z"/>
		<path style="opacity:0.49;fill:#B0543E;" d="M435.475,167.032c-4.092,9.447-11.36,17.581-21.243,22.631
			c-22.597,11.553-50.279,2.604-61.829-19.996c-5.052-9.881-6.182-20.728-3.97-30.782c-5.26,12.157-5.251,26.48,1.246,39.197
			c11.552,22.597,39.233,31.544,61.832,19.992C424.224,191.577,432.62,179.965,435.475,167.032z"/>
	</g>
	<path style="opacity:0.36;fill:#778F44;" d="M271.27,360.617c-19.521,0-36.629,3.417-46.212,8.546
		c-7.561-0.801-15.806-1.245-24.449-1.245c-36.374,0-65.86,7.801-65.86,17.427c0,9.623,29.485,17.429,65.86,17.429
		c21.699,0,40.943-2.779,52.942-7.064c5.556,0.636,11.513,0.986,17.719,0.986c30.013,0,54.344-8.079,54.344-18.041
		C325.615,368.692,301.283,360.617,271.27,360.617z"/>
	<g>
		<path style="fill:#505B66;" d="M124.25,160.354L80.526,53.123c-6.903,5.402-13.456,11.23-19.624,17.441l40.424,99.137
			L124.25,160.354z"/>
		<g>
			<path style="fill:#00B5AE;" d="M113.843,263.415c1.228,3.805,1.98,6.882,2.428,9.412l36.529-3.017l-38.328,31.757
				c-0.08,0.483-0.159,0.968-0.239,1.448c-0.736,4.447-1.435,8.675-1.849,12.724l2.842-2.355l53.539-4.423l-41.366,34.276
				l-9.105,0.752c2.532,4.353,5.534,8.315,8.919,11.842l3.976-3.294l53.539-4.425l-29.67,24.584
				c3.975,1.165,8.073,1.943,12.233,2.306l34.116-28.267l25.2-2.082c1.907-3.191,3.526-6.543,4.845-10.014l-17.157,1.418
				l20.946-17.355c0.427-4.113,0.448-8.291,0.042-12.478l-37.666,31.212l-53.539,4.424l41.366-34.275l49.515-4.091
				c-0.447-3.159-1.142-6.313-2.093-9.441l-34.536,2.852l24.358-20.181c-2.209-2.197-4.683-4.282-7.342-6.359l-33.695,27.919
				l-53.538,4.423l41.367-34.274l38.986-3.221c-0.182-0.134-0.362-0.265-0.544-0.399c-3.595-2.634-7.262-5.326-10.866-8.273
				l-14.689,1.213l8.283-6.862c-0.244-0.233-0.492-0.459-0.734-0.697c-1.458-1.428-3.237-3.44-5.34-6.711l-18.889,15.65
				L113.843,263.415z"/>
			<path style="fill:#00B5AE;" d="M168.388,204.515l-18.665,15.465l-53.505,4.42c1.324,2.465,2.991,5.633,4.798,9.218l35.82-2.959
				l-26.882,22.273c1.473,3.574,2.639,6.717,3.565,9.489l39.997-33.141l23.003-1.899c-1.141-2.765-2.336-5.853-3.586-9.316
				l-6.53,0.538l5.201-4.308c-0.046-0.13-0.09-0.255-0.134-0.385C170.338,210.619,169.303,207.434,168.388,204.515z"/>
			<path style="fill:#00B5AE;" d="M162.92,188.033c-1.865-3.407-4.197-6.441-6.888-9.044l-5.594,0.462l3.157-2.616
				c-2.636-2.148-5.54-3.923-8.623-5.296l-11.213,9.291l-34.988,2.891c-2.262,3.076-4.044,6.467-5.302,10.051l27.401-2.263
				L92.33,215.155c0.383,1.616,0.864,3.226,1.472,4.817c0.51,0.914,1.348,2.436,2.41,4.411l41.341-34.254L162.92,188.033z"/>
			<path style="fill:#88928F;" d="M234.644,266.818c-4.358-4.523-9.346-8.41-14.456-12.19c-5.965-4.414-12.083-8.693-17.534-13.684
				c-0.646-0.591-1.287-1.189-1.911-1.802c-1.37-1.342-2.76-3.28-4.143-5.622c-1.29-2.188-2.571-4.73-3.819-7.482
				c-1.327-2.924-2.618-6.08-3.842-9.296c-1.671-4.389-3.217-8.881-4.566-13.028c-1.196-3.678-2.239-7.085-3.068-9.898
				c-1.029-3.484-1.739-6.057-2.03-7.132c-0.098-0.362-0.15-0.558-0.15-0.558c-1.254-3.075-2.764-5.97-4.49-8.673
				c-2.542-3.98-5.56-7.542-8.945-10.636c-2.437-2.23-5.064-4.216-7.842-5.944c-14.105-8.783-32.077-10.911-48.638-4.158
				c-13.598,5.544-23.689,16.035-29.047,28.545c-1.36,3.176-2.417,6.483-3.146,9.873c-2.135,9.913-1.485,20.528,2.45,30.654
				c0.109,0.281,0.217,0.561,0.331,0.842c0,0,1.88,3.32,4.528,8.37c3.874,7.382,9.392,18.466,13.102,28.312
				c1.468,3.897,2.651,7.598,3.337,10.799c0.448,2.087,0.684,3.958,0.651,5.535c-0.183,8.558-1.867,17.052-3.211,25.534
				c-0.512,3.243-0.973,6.48-1.282,9.72c-0.042,0.436-0.08,0.872-0.116,1.308c-0.339,4.139-0.404,8.279,0.015,12.428
				c0.447,4.418,1.442,8.845,3.255,13.289c0.477,1.167,0.979,2.315,1.506,3.449c1.49,3.213,3.175,6.281,5.035,9.197
				c0.82,1.284,1.677,2.538,2.564,3.764c1.887,2.609,3.921,5.078,6.082,7.402c6.636,7.127,14.491,12.885,23.092,17.067
				c8.108,3.944,16.876,6.492,25.911,7.473c9.662,1.049,19.626,0.305,29.407-2.429c2.881-0.805,5.748-1.779,8.585-2.936
				c14.508-5.916,26.282-15.683,34.631-27.637c3.097-4.433,5.72-9.166,7.837-14.116c1.376-3.216,2.538-6.524,3.475-9.901
				c2.45-8.821,3.378-18.106,2.596-27.444c-0.364-4.355-1.102-8.722-2.226-13.056c-0.873-3.369-1.975-6.719-3.325-10.029
				C242.683,276.436,238.975,271.314,234.644,266.818z M234.959,303.492c0.129,0.91,0.236,1.821,0.324,2.73
				c0.406,4.187,0.385,8.365-0.042,12.478c-0.566,5.476-1.849,10.833-3.789,15.937c-1.319,3.471-2.938,6.822-4.845,10.014
				c-6.755,11.302-17.086,20.587-30.19,25.93c-9.545,3.893-19.501,5.262-29.126,4.419c-4.16-0.363-8.258-1.141-12.233-2.306
				c-10.502-3.072-20.153-8.848-27.845-16.865c-3.385-3.526-6.387-7.489-8.919-11.842c-1.46-2.51-2.766-5.148-3.892-7.91
				c-2.583-6.333-2.766-13.043-2.018-20.339c0.414-4.049,1.113-8.277,1.849-12.724c0.079-0.48,0.158-0.965,0.239-1.448
				c1.139-6.903,2.25-14.034,2.412-21.592c0.037-1.784-0.064-4.06-0.613-7.148c-0.448-2.529-1.2-5.606-2.428-9.412
				c-0.105-0.327-0.213-0.657-0.324-0.995c-0.926-2.772-2.092-5.914-3.565-9.489c-1.443-3.499-3.175-7.411-5.257-11.798
				c-1.248-2.63-2.494-5.16-3.681-7.515c-1.806-3.585-3.474-6.753-4.798-9.218c-0.002-0.005-0.005-0.011-0.007-0.017
				c-1.062-1.974-1.899-3.496-2.41-4.411c-0.607-1.591-1.089-3.201-1.472-4.817c-1.718-7.249-1.221-14.652,1.14-21.384
				c1.258-3.584,3.04-6.975,5.302-10.051c4.025-5.468,9.546-9.936,16.279-12.682c10.006-4.079,20.753-3.581,29.922,0.501
				c3.083,1.373,5.987,3.149,8.623,5.296c0.84,0.682,1.655,1.399,2.436,2.154c2.691,2.603,5.023,5.636,6.888,9.044
				c0.554,1.012,1.072,2.051,1.538,3.127c0.58,2.113,1.976,7.119,3.93,13.355c0.914,2.919,1.95,6.104,3.081,9.394
				c0.044,0.13,0.088,0.255,0.134,0.385c0.449,1.303,0.893,2.56,1.329,3.77c1.25,3.463,2.445,6.552,3.586,9.316
				c3.077,7.455,5.761,12.531,8.058,16.102c2.103,3.272,3.882,5.283,5.34,6.711c0.242,0.239,0.49,0.464,0.734,0.697
				c2.093,2.004,4.236,3.876,6.405,5.649c3.604,2.947,7.272,5.639,10.866,8.273c0.183,0.134,0.363,0.265,0.544,0.399
				c2.388,1.75,4.697,3.449,6.88,5.153c2.659,2.077,5.134,4.163,7.342,6.359c3.534,3.517,6.389,7.32,8.233,11.844
				c0.739,1.814,1.383,3.644,1.944,5.484C233.817,297.179,234.512,300.333,234.959,303.492z"/>
		</g>
	</g>
	<path style="fill:#88928F;" d="M173.337,214.952l6.53-0.538c-0.436-1.21-0.88-2.467-1.329-3.77L173.337,214.952z"/>
	<path style="fill:#88928F;" d="M237.856,284.918c-1.844-4.524-4.699-8.327-8.233-11.844l-5.808,4.812
		c3.013,3.194,5.463,6.65,7.106,10.681c0.337,0.827,0.648,1.658,0.947,2.49l7.933-0.654
		C239.239,288.562,238.596,286.732,237.856,284.918z"/>
	<path style="fill:#88928F;" d="M157.373,175.802l5.594-0.462c-0.782-0.755-1.597-1.472-2.436-2.154L157.373,175.802z"/>
	<path style="fill:#88928F;" d="M242.176,315.051l-7.225,5.986c-0.503,3.55-1.31,7.039-2.399,10.433l5.834-0.482
		C240.327,325.884,241.611,320.527,242.176,315.051z"/>
	<path style="fill:#88928F;" d="M191.851,251.992c0.632,0.585,1.261,1.18,1.902,1.743l10.237-0.845
		c-2.169-1.773-4.312-3.645-6.405-5.649L191.851,251.992z"/>
	<path style="fill:#88928F;" d="M226.607,344.651c-5.124,8.572-12.309,15.98-21.197,21.391c12.127-5.45,21.735-14.339,28.131-25.041
		l-25.2,2.082l-4.124,3.417"/>
	<path style="opacity:0.28;fill:#666E6B;" d="M209.194,381.258c-2.837,1.157-5.704,2.13-8.585,2.936
		c-9.782,2.734-19.745,3.478-29.407,2.429c-9.035-0.981-17.803-3.528-25.911-7.473c-8.601-4.182-16.455-9.94-23.092-17.067
		c-2.161-2.324-4.196-4.793-6.082-7.402c-0.887-1.226-1.743-2.479-2.564-3.764c-1.86-2.915-3.546-5.984-5.035-9.197
		c-0.527-1.134-1.029-2.282-1.506-3.449c-1.813-4.444-2.807-8.871-3.255-13.289c-0.419-4.149-0.354-8.289-0.015-12.428
		c0.035-0.436,0.074-0.872,0.116-1.308c0.309-3.24,0.77-6.477,1.282-9.72c1.343-8.481,3.028-16.975,3.211-25.534
		c0.033-1.576-0.203-3.448-0.651-5.535c-0.685-3.201-1.868-6.902-3.337-10.799c-3.709-9.846-9.228-20.93-13.102-28.312
		c-2.648-5.05-4.528-8.37-4.528-8.37c-0.113-0.28-0.221-0.56-0.331-0.842c-3.935-10.126-4.585-20.741-2.45-30.654
		c0.729-3.389,1.786-6.696,3.147-9.873c3.826-8.932,10.074-16.822,18.279-22.63L67.836,66.914
		c4.253-4.282,8.702-8.368,13.309-12.273l-0.619-1.519c-6.903,5.402-13.456,11.23-19.624,17.441l37.541,92.065
		c-8.205,5.808-14.453,13.698-18.279,22.63c-1.36,3.176-2.417,6.483-3.146,9.873c-2.135,9.913-1.485,20.528,2.45,30.654
		c0.109,0.281,0.217,0.561,0.331,0.842c0,0,1.88,3.32,4.528,8.37c3.874,7.382,9.392,18.466,13.102,28.312
		c1.468,3.897,2.651,7.598,3.337,10.799c0.448,2.087,0.684,3.958,0.651,5.535c-0.183,8.558-1.867,17.052-3.211,25.534
		c-0.512,3.243-0.973,6.48-1.282,9.72c-0.042,0.436-0.08,0.872-0.116,1.308c-0.339,4.139-0.404,8.279,0.015,12.428
		c0.447,4.418,1.442,8.845,3.255,13.289c0.477,1.167,0.979,2.315,1.506,3.449c1.49,3.213,3.175,6.281,5.035,9.197
		c0.82,1.284,1.677,2.538,2.564,3.764c1.887,2.609,3.921,5.078,6.082,7.402c6.636,7.127,14.491,12.885,23.092,17.067
		c8.108,3.944,16.876,6.492,25.911,7.473c9.662,1.049,19.626,0.305,29.407-2.429c2.881-0.805,5.748-1.779,8.585-2.936
		c3.674-1.498,7.171-3.246,10.485-5.211C211.576,380.24,210.398,380.767,209.194,381.258z"/>
</g>
<g>
</g>
<g>
</g>
<g>
</g>
<g>
</g>
<g>
</g>
<g>
</g>
<g>
</g>
<g>
</g>
<g>
</g>
<g>
</g>
<g>
</g>
<g>
</g>
<g>
</g>
<g>
</g>
<g>
</g>
</svg>
