<?xml version="1.0" encoding="iso-8859-1"?>
<!-- Generator: Adobe Illustrator 19.1.0, SVG Export Plug-In . SVG Version: 6.00 Build 0)  -->
<svg version="1.1" id="Capa_1" xmlns="http://www.w3.org/2000/svg" xmlns:xlink="http://www.w3.org/1999/xlink" x="0px" y="0px"
	 viewBox="0 0 431.431 431.431" style="enable-background:new 0 0 431.431 431.431;" xml:space="preserve">
<g>
	<circle style="fill:#518066;" cx="215.715" cy="207.464" r="207.464"/>
	<g>
		<g>
			<path style="fill:#6DC0CF;" d="M309.06,416.19c-10.203,15.574-31.097,19.927-46.668,9.722l-78.651-51.532
				c-15.569-10.206-19.919-31.1-9.72-46.67l102.898-157.038c10.203-15.572,31.099-19.923,46.668-9.72l78.649,51.532
				c15.571,10.204,19.925,31.096,9.722,46.668L309.06,416.19z"/>
			<path style="fill:#299DB2;" d="M309.06,416.19c-10.203,15.574-31.097,19.927-46.668,9.722l-78.651-51.532
				c-15.569-10.206-19.919-31.1-9.72-46.67l102.898-157.038c10.203-15.572,31.099-19.923,46.668-9.72l78.649,51.532
				c15.571,10.204,19.925,31.096,9.722,46.668L309.06,416.19z"/>
			<polygon style="fill:#6DC0CF;" points="308.225,270.18 301.694,238.813 333.062,232.277 339.593,263.645 			"/>
			
				<rect x="257.95" y="306.437" transform="matrix(0.204 0.979 -0.979 0.204 533.7744 -11.522)" style="fill:#6DC0CF;" width="32.044" height="32.042"/>
		</g>
		<g>
			<path style="fill:#6DC0CF;" d="M320.346,379.378c-6.003,17.622-25.155,27.042-42.777,21.038l-89.005-30.314
				c-17.622-6.002-27.042-25.156-21.042-42.778l60.538-177.721c6.003-17.621,25.153-27.041,42.777-21.037l89.005,30.314
				c17.62,6.005,27.044,25.156,21.04,42.779L320.346,379.378z"/>
			<path style="opacity:0.8;fill:#299DB2;" d="M320.346,379.378c-6.003,17.622-25.155,27.042-42.777,21.038l-89.005-30.314
				c-17.622-6.002-27.042-25.156-21.042-42.778l60.538-177.721c6.003-17.621,25.153-27.041,42.777-21.037l89.005,30.314
				c17.62,6.005,27.044,25.156,21.04,42.779L320.346,379.378z"/>
			<polygon style="fill:#6DC0CF;" points="283.168,238.173 269.023,209.427 297.774,195.282 311.916,224.035 			"/>
			<polygon style="fill:#6DC0CF;" points="255.708,318.785 241.569,290.036 270.318,275.893 284.462,304.647 			"/>
		</g>
		<g>
			<path style="fill:#6DC0CF;" d="M322.107,340.912c-1.422,18.563-17.626,32.458-36.187,31.03l-93.753-7.185
				c-18.562-1.426-32.456-17.628-31.034-36.189l14.359-187.196c1.422-18.566,17.624-32.457,36.187-31.031l93.753,7.189
				c18.561,1.424,32.456,17.622,31.03,36.185L322.107,340.912z"/>
			<path style="opacity:0.43;fill:#299DB2;" d="M322.107,340.912c-1.422,18.563-17.626,32.458-36.187,31.03l-93.753-7.185
				c-18.562-1.426-32.456-17.628-31.034-36.189l14.359-187.196c1.422-18.566,17.624-32.457,36.187-31.031l93.753,7.189
				c18.561,1.424,32.456,17.622,31.03,36.185L322.107,340.912z"/>
			<polygon style="fill:#6DC0CF;" points="250.925,213.42 230.066,189.101 254.388,168.242 275.245,192.567 			"/>
			
				<rect x="230.124" y="259.723" transform="matrix(0.6509 0.7591 -0.7591 0.6509 295.254 -90.6035)" style="fill:#6DC0CF;" width="32.04" height="32.038"/>
		</g>
		<g>
			<path style="fill:#6DC0CF;" d="M314.229,303.223c3.247,18.332-8.985,35.827-27.318,39.067l-92.587,16.395
				c-18.331,3.241-35.823-8.989-39.069-27.322l-32.728-184.869c-3.243-18.333,8.989-35.824,27.32-39.068l92.585-16.394
				c18.331-3.241,35.823,8.985,39.069,27.318L314.229,303.223z"/>
			<path style="opacity:0.33;fill:#6DC0CF;" d="M314.229,303.223c3.247,18.332-8.985,35.827-27.318,39.067l-92.587,16.395
				c-18.331,3.241-35.823-8.989-39.069-27.322l-32.728-184.869c-3.243-18.333,8.989-35.824,27.32-39.068l92.585-16.394
				c18.331-3.241,35.823,8.985,39.069,27.318L314.229,303.223z"/>
			<polygon style="fill:#6DC0CF;" points="213.532,197.482 187.27,179.125 205.634,152.866 231.894,171.224 			"/>
			<polygon style="fill:#6DC0CF;" points="228.376,281.338 202.12,262.978 220.478,236.72 246.742,255.08 			"/>
		</g>
		<g>
			<path style="fill:#F1F3E0;" d="M297.212,268.683c7.709,16.947,0.221,36.934-16.725,44.639l-85.585,38.941
				c-16.95,7.71-36.932,0.221-44.644-16.723L72.512,164.647c-7.707-16.945-0.221-36.935,16.723-44.642l85.587-38.941
				c16.946-7.705,36.934-0.221,44.641,16.723L297.212,268.683z"/>
			<polygon style="fill:#E96660;" points="173.348,191.358 143.344,180.123 154.585,150.117 184.59,161.358 			"/>
			<polygon style="fill:#E96660;" points="208.613,268.874 178.613,257.633 189.852,227.63 219.858,238.869 			"/>
		</g>
	</g>
</g>
<g>
</g>
<g>
</g>
<g>
</g>
<g>
</g>
<g>
</g>
<g>
</g>
<g>
</g>
<g>
</g>
<g>
</g>
<g>
</g>
<g>
</g>
<g>
</g>
<g>
</g>
<g>
</g>
<g>
</g>
</svg>
