<?xml version="1.0" encoding="iso-8859-1"?>
<!-- Generator: Adobe Illustrator 19.1.0, SVG Export Plug-In . SVG Version: 6.00 Build 0)  -->
<svg version="1.1" id="Capa_1" xmlns="http://www.w3.org/2000/svg" xmlns:xlink="http://www.w3.org/1999/xlink" x="0px" y="0px"
	 viewBox="0 0 472.642 472.642" style="enable-background:new 0 0 472.642 472.642;" xml:space="preserve">
<g>
	<g>
		<circle style="fill:#AFEBFF;" cx="264.913" cy="236.321" r="207.729"/>
		<path style="fill:#29546C;" d="M395.366,74.672c-0.003,0.211-0.016,0.42-0.016,0.632v66.097c0,24.584,19.93,44.514,44.514,44.514
			c9.101,0,17.56-2.737,24.611-7.424C452.504,137.109,428.011,101.051,395.366,74.672z"/>
		<path style="fill:#AFEBFF;" d="M92.619,345.499c0.152,0.106,0.307,0.206,0.46,0.308c0.347,0.233,0.696,0.458,1.048,0.674
			c0.174,0.106,0.349,0.211,0.525,0.314c0.36,0.21,0.724,0.413,1.09,0.607c0.154,0.082,0.306,0.167,0.461,0.246
			c0.52,0.265,1.044,0.519,1.574,0.751c0.018,0.008,0.036,0.014,0.055,0.022c0.513,0.224,1.031,0.431,1.553,0.625
			c0.157,0.058,0.315,0.111,0.473,0.167c0.394,0.14,0.791,0.272,1.189,0.394c0.17,0.052,0.34,0.104,0.511,0.154
			c0.422,0.121,0.846,0.233,1.271,0.336c0.131,0.031,0.262,0.067,0.393,0.097c1.13,0.258,2.271,0.45,3.416,0.576
			c0.124,0.013,0.249,0.023,0.373,0.035c0.458,0.045,0.916,0.081,1.375,0.105c0.133,0.007,0.267,0.014,0.4,0.019
			c0.501,0.02,1.002,0.028,1.502,0.023c0.069,0,0.137,0.002,0.205,0.001c0.011,0,0.021-0.001,0.032-0.001c0.01,0,0.019,0,0.028,0
			c0.069,0,0.136,0.002,0.205,0.001c1.181-0.019,2.36-0.107,3.53-0.262c0.076-0.01,0.152-0.022,0.227-0.032
			c0.511-0.071,1.019-0.156,1.525-0.253c0.084-0.015,0.168-0.031,0.252-0.048c0.563-0.112,1.123-0.238,1.679-0.382h0.002
			c0.595-0.154,1.184-0.326,1.768-0.516c-0.082-0.006-0.164-0.02-0.246-0.027c5.548-1.804,10.646-5.193,14.523-10.123l40.711-51.765
			l27.377-34.809l1.081-1.375c4.417-5.617,6.54-12.301,6.521-18.931c-0.027-9.008-4.014-17.916-11.645-23.917l-5.985-4.707
			l10.209-12.981l18.128-23.051l17.266-21.954l34.132-47.504l-4.343-13.272c-5.168-1.168,0.04-10.079-5.265-10.854l-31.466,57.557
			l-28.332,36.026l-8.823,11.218l-12.633,16.064l-5.986-4.708c-4.891-3.847-10.592-5.933-16.363-6.4
			c0.035-0.011,0.068-0.026,0.103-0.037c-0.611-0.046-1.223-0.075-1.835-0.084c-0.006,0-0.013,0-0.019,0
			c-0.063-0.001-0.125,0.003-0.187,0.003c-0.019-0.001-0.039-0.003-0.058-0.003c-0.006,0-0.013,0-0.019,0
			c-0.57-0.009-1.14,0.001-1.709,0.024c-0.085,0.003-0.171,0.008-0.257,0.012c-0.517,0.025-1.033,0.064-1.547,0.115
			c-0.073,0.007-0.146,0.013-0.219,0.02c-1.177,0.126-2.347,0.319-3.503,0.58c-0.057,0.013-0.113,0.028-0.17,0.041
			c-0.499,0.115-0.995,0.245-1.488,0.386c-0.12,0.034-0.24,0.07-0.359,0.105c-0.452,0.135-0.901,0.281-1.348,0.438
			c-0.107,0.037-0.214,0.073-0.321,0.111c-1.09,0.395-2.16,0.853-3.206,1.374c-0.108,0.055-0.214,0.113-0.322,0.168
			c-0.402,0.206-0.801,0.423-1.195,0.647c-0.146,0.084-0.29,0.169-0.435,0.255c-0.369,0.219-0.735,0.449-1.096,0.684
			c-0.13,0.085-0.262,0.168-0.391,0.256c-0.958,0.647-1.886,1.353-2.777,2.118c-0.126,0.108-0.249,0.222-0.374,0.333
			c-0.316,0.281-0.627,0.567-0.933,0.862c-0.143,0.139-0.285,0.278-0.426,0.419c-0.295,0.296-0.584,0.601-0.869,0.911
			c-0.123,0.134-0.248,0.266-0.369,0.402c-0.396,0.447-0.784,0.905-1.158,1.38l-30.739,39.085l-14.299,18.182l-24.129,30.68
			c-0.105,0.133-0.203,0.271-0.303,0.406c4.592,19.629,11.968,38.186,21.688,55.234l6.836,5.375
			C91.645,344.806,92.13,345.158,92.619,345.499z"/>
		<path style="opacity:0.56;fill:#90C1D1;" d="M92.619,345.499c0.152,0.106,0.307,0.206,0.46,0.308
			c0.347,0.233,0.696,0.458,1.048,0.674c0.174,0.106,0.349,0.211,0.525,0.314c0.36,0.21,0.724,0.413,1.09,0.607
			c0.154,0.082,0.306,0.167,0.461,0.246c0.52,0.265,1.044,0.519,1.574,0.751c0.018,0.008,0.036,0.014,0.055,0.022
			c0.513,0.224,1.031,0.431,1.553,0.625c0.157,0.058,0.315,0.111,0.473,0.167c0.394,0.14,0.791,0.272,1.189,0.394
			c0.17,0.052,0.34,0.104,0.511,0.154c0.422,0.121,0.846,0.233,1.271,0.336c0.131,0.031,0.262,0.067,0.393,0.097
			c1.13,0.258,2.271,0.45,3.416,0.576c0.124,0.013,0.249,0.023,0.373,0.035c0.458,0.045,0.916,0.081,1.375,0.105
			c0.133,0.007,0.267,0.014,0.4,0.019c0.501,0.02,1.002,0.028,1.502,0.023c0.069,0,0.137,0.002,0.205,0.001
			c0.011,0,0.021-0.001,0.032-0.001c0.01,0,0.019,0,0.028,0c0.069,0,0.136,0.002,0.205,0.001c1.181-0.019,2.36-0.107,3.53-0.262
			c0.076-0.01,0.152-0.022,0.227-0.032c0.511-0.071,1.019-0.156,1.525-0.253c0.084-0.015,0.168-0.031,0.252-0.048
			c0.563-0.112,1.123-0.238,1.679-0.382h0.002c0.595-0.154,1.184-0.326,1.768-0.516c-0.082-0.006-0.164-0.02-0.246-0.027
			c5.548-1.804,10.646-5.193,14.523-10.123l40.711-51.765l27.377-34.809l1.081-1.375c4.417-5.617,6.54-12.301,6.521-18.931
			c-0.027-9.008-4.014-17.916-11.645-23.917l-5.985-4.707l10.209-12.981l18.128-23.051l17.266-21.954l34.132-47.504l-4.343-13.272
			c-5.168-1.168,0.04-10.079-5.265-10.854l-31.466,57.557l-28.332,36.026l-8.823,11.218l-12.633,16.064l-5.986-4.708
			c-4.891-3.847-10.592-5.933-16.363-6.4c0.035-0.011,0.068-0.026,0.103-0.037c-0.611-0.046-1.223-0.075-1.835-0.084
			c-0.006,0-0.013,0-0.019,0c-0.063-0.001-0.125,0.003-0.187,0.003c-0.019-0.001-0.039-0.003-0.058-0.003c-0.006,0-0.013,0-0.019,0
			c-0.57-0.009-1.14,0.001-1.709,0.024c-0.085,0.003-0.171,0.008-0.257,0.012c-0.517,0.025-1.033,0.064-1.547,0.115
			c-0.073,0.007-0.146,0.013-0.219,0.02c-1.177,0.126-2.347,0.319-3.503,0.58c-0.057,0.013-0.113,0.028-0.17,0.041
			c-0.499,0.115-0.995,0.245-1.488,0.386c-0.12,0.034-0.24,0.07-0.359,0.105c-0.452,0.135-0.901,0.281-1.348,0.438
			c-0.107,0.037-0.214,0.073-0.321,0.111c-1.09,0.395-2.16,0.853-3.206,1.374c-0.108,0.055-0.214,0.113-0.322,0.168
			c-0.402,0.206-0.801,0.423-1.195,0.647c-0.146,0.084-0.29,0.169-0.435,0.255c-0.369,0.219-0.735,0.449-1.096,0.684
			c-0.13,0.085-0.262,0.168-0.391,0.256c-0.958,0.647-1.886,1.353-2.777,2.118c-0.126,0.108-0.249,0.222-0.374,0.333
			c-0.316,0.281-0.627,0.567-0.933,0.862c-0.143,0.139-0.285,0.278-0.426,0.419c-0.295,0.296-0.584,0.601-0.869,0.911
			c-0.123,0.134-0.248,0.266-0.369,0.402c-0.396,0.447-0.784,0.905-1.158,1.38l-30.739,39.085l-14.299,18.182l-24.129,30.68
			c-0.105,0.133-0.203,0.271-0.303,0.406c4.592,19.629,11.968,38.186,21.688,55.234l6.836,5.375
			C91.645,344.806,92.13,345.158,92.619,345.499z"/>
		<polygon style="fill:#AFEBFF;" points="262.206,74.192 262.206,74.192 264.913,69.242 		"/>
		<polygon style="opacity:0.32;fill:#505B66;" points="262.206,74.192 262.206,74.192 264.913,69.242 		"/>
		<path style="fill:#E2F8FF;" d="M121.806,108.036c7.024,8.687,20.758,22.168,38.736,22.822c0.46,0.016,0.917,0.025,1.375,0.025
			c13.865,0,27.173-7.675,39.654-22.848c7.025,8.687,20.76,22.168,38.738,22.822c0.459,0.016,0.916,0.025,1.375,0.025
			c13.865,0,27.174-7.675,39.654-22.848c7.024,8.687,20.76,22.168,38.739,22.822c0.458,0.016,0.916,0.025,1.374,0.025
			c15.818,0,30.914-9.989,44.882-29.707c1.837-2.594,1.222-6.185-1.37-8.023c-2.598-1.837-6.185-1.223-8.022,1.369
			c-11.685,16.497-23.63,24.851-35.522,24.851c-0.294,0-0.588-0.003-0.885-0.014c-16.08-0.56-28.696-16.162-32.968-22.166
			c-0.182-1.569-0.982-3.056-2.37-4.04c-1.103-0.78-2.386-1.094-3.637-1.024c-1.169-0.099-2.377,0.141-3.457,0.796
			c-1.497,0.905-2.409,2.387-2.675,3.986c-11.127,14.904-22.474,22.462-33.774,22.462c-0.294,0-0.588-0.003-0.885-0.014
			c-16.08-0.56-28.696-16.162-32.968-22.166c-0.182-1.569-0.982-3.056-2.37-4.04c-1.105-0.78-2.386-1.094-3.637-1.024
			c-1.169-0.099-2.377,0.141-3.458,0.796c-1.497,0.905-2.409,2.387-2.675,3.986c-11.127,14.904-22.473,22.462-33.774,22.462
			c-0.294,0-0.588-0.003-0.884-0.014c-16.081-0.56-28.695-16.162-32.969-22.166c-0.18-1.569-0.982-3.056-2.368-4.04
			c-1.105-0.78-2.386-1.094-3.637-1.024c-1.169-0.099-2.379,0.141-3.458,0.796c-1.499,0.905-2.409,2.387-2.675,3.986
			c-6.642,8.895-13.36,15.151-20.103,18.768c-3.457,4.84-6.705,9.842-9.748,14.978C98.508,129.352,110.496,121.783,121.806,108.036z
			"/>
		<path style="fill:#E2F8FF;" d="M164.2,411.881c13.865,0,27.173-7.677,39.654-22.85c7.024,8.688,20.76,22.168,38.738,22.822
			c0.459,0.017,0.916,0.027,1.375,0.027c15.818,0,30.913-9.99,44.881-29.709c1.838-2.594,1.223-6.184-1.369-8.022
			c-2.598-1.838-6.185-1.223-8.023,1.369c-11.685,16.497-23.629,24.85-35.522,24.85c-0.294,0-0.587-0.003-0.884-0.015
			c-16.081-0.56-28.696-16.16-32.968-22.166c-0.182-1.567-0.982-3.055-2.37-4.038c-1.104-0.78-2.387-1.094-3.638-1.025
			c-1.169-0.099-2.377,0.141-3.457,0.797c-1.496,0.905-2.409,2.386-2.674,3.986c-11.127,14.904-22.474,22.461-33.775,22.461
			c-0.293,0-0.588-0.003-0.884-0.015c-16.08-0.56-28.696-16.16-32.966-22.166c-0.184-1.567-0.982-3.055-2.372-4.038
			c-1.105-0.78-2.387-1.094-3.637-1.025c-1.17-0.099-2.376,0.141-3.458,0.797c-1.494,0.905-2.408,2.386-2.674,3.986
			c-0.784,1.052-1.57,2.057-2.361,3.038c10.07,10.377,21.208,19.714,33.242,27.817c4.241,1.746,8.837,2.91,13.767,3.091
			C163.284,411.871,163.741,411.881,164.2,411.881z"/>
		<path style="fill:#E2F8FF;" d="M461.41,277.012c-0.293,0-0.587-0.004-0.884-0.014c-16.08-0.56-28.696-16.161-32.969-22.166
			c-0.181-1.568-0.981-3.055-2.369-4.039c-1.104-0.781-2.387-1.094-3.637-1.024c-1.17-0.099-2.378,0.139-3.458,0.796
			c-1.496,0.905-2.408,2.387-2.675,3.986c-11.126,14.904-22.474,22.461-33.774,22.461c-0.294,0-0.587-0.004-0.884-0.014
			c-16.081-0.56-28.696-16.161-32.968-22.166c-0.182-1.568-0.982-3.055-2.37-4.039c-1.106-0.781-2.387-1.094-3.638-1.024
			c-1.169-0.099-2.377,0.139-3.458,0.796c-1.496,0.905-2.409,2.387-2.674,3.986c-11.127,14.904-22.475,22.461-33.775,22.461
			c-0.293,0-0.588-0.004-0.884-0.014c-16.08-0.56-28.696-16.161-32.969-22.166c-0.182-1.568-0.981-3.055-2.369-4.039
			c-1.105-0.781-2.387-1.094-3.637-1.024c-1.17-0.099-2.378,0.139-3.458,0.796c-1.496,0.905-2.408,2.387-2.675,3.986
			c-11.126,14.904-22.474,22.461-33.773,22.461c-0.295,0-0.588-0.004-0.885-0.014c-19.759-0.687-34.292-24.09-34.534-24.489
			c-1.645-2.715-5.18-3.593-7.9-1.944c-2.719,1.643-3.592,5.179-1.948,7.901c0.716,1.187,17.865,29.084,43.923,30.031
			c0.459,0.017,0.916,0.026,1.375,0.026c13.864,0,27.173-7.675,39.654-22.848c7.024,8.688,20.76,22.168,38.738,22.821
			c0.459,0.017,0.916,0.026,1.375,0.026c13.864,0,27.173-7.675,39.654-22.848c7.024,8.688,20.76,22.168,38.738,22.821
			c0.459,0.017,0.916,0.026,1.375,0.026c13.864,0,27.173-7.675,39.654-22.848c7.024,8.688,20.759,22.168,38.738,22.821
			c0.459,0.017,0.916,0.026,1.375,0.026c1.564,0,3.119-0.125,4.667-0.319c1.041-4.054,1.95-8.158,2.75-12.301
			C466.376,276.628,463.893,277.012,461.41,277.012z"/>
		<path style="fill:#AFEBFF;" d="M286.747,29.732c0.878,3.075,1.461,6.272,1.718,9.564l6.689-8.506"/>
		<path style="fill:#F9D363;" d="M186.455,152.429h13.034l28.332-36.026l60.643-77.107c-0.256-3.292-0.839-6.488-1.718-9.564
			c-7.176-0.75-14.459-1.14-21.834-1.14c-28.279,0-55.235,5.66-79.806,15.894v96.579
			C185.107,144.979,185.582,148.781,186.455,152.429z"/>
		<path style="fill:#F9D363;" d="M217.498,152.429h69.783c0.873-3.648,1.348-7.45,1.348-11.364V61.983l-53.866,68.492
			L217.498,152.429z"/>
		<g>
			<path style="fill:#9FBE5B;" d="M454.99,152.429H287.281h-69.783l-18.128,23.051l-10.209,12.981l5.985,4.707
				c7.63,6.001,11.618,14.91,11.645,23.917c23.993,4.872,38.835-1.29,60.107-6.502c25.009-6.128,54.14,13.84,81.02,11.407
				c26.553-2.4,41.906-16.14,72.155-8.294c13.699,3.552,22.518,8.588,36.171,9.737c5.563-4.193,10.465-9.211,14.549-14.861
				C468.158,188.845,462.756,169.999,454.99,152.429z"/>
			<path style="fill:#9FBE5B;" d="M199.49,152.429h-13.034H74.835c-8.562,19.37-14.257,40.29-16.531,62.227
				c12.637,0.507,27.128,2.996,40.155,4.552l30.739-39.085c0.374-0.475,0.762-0.933,1.158-1.38c0.121-0.137,0.246-0.268,0.369-0.402
				c0.285-0.31,0.574-0.615,0.869-0.911c0.141-0.142,0.283-0.281,0.426-0.419c0.305-0.295,0.617-0.581,0.933-0.862
				c0.125-0.11,0.247-0.224,0.374-0.333c0.891-0.765,1.819-1.471,2.777-2.118c0.129-0.088,0.26-0.171,0.391-0.256
				c0.361-0.236,0.727-0.465,1.096-0.684c0.145-0.086,0.289-0.171,0.435-0.255c0.394-0.224,0.793-0.441,1.195-0.647
				c0.108-0.056,0.214-0.113,0.322-0.168c1.045-0.521,2.116-0.979,3.206-1.374c0.107-0.038,0.214-0.074,0.32-0.111
				c0.446-0.157,0.896-0.302,1.348-0.438c0.119-0.035,0.239-0.071,0.359-0.105c0.493-0.142,0.989-0.27,1.488-0.386
				c0.057-0.013,0.114-0.028,0.17-0.041c1.156-0.262,2.325-0.454,3.503-0.58c0.073-0.007,0.146-0.013,0.219-0.02
				c0.515-0.052,1.031-0.09,1.547-0.115c0.086-0.004,0.172-0.009,0.257-0.012c0.569-0.023,1.139-0.033,1.709-0.024
				c0.007,0,0.013,0,0.019,0c6.443,0.101,12.905,2.231,18.36,6.522l5.986,4.708l12.633-16.064L199.49,152.429z"/>
		</g>
		<path style="fill:#EA7053;" d="M295.154,30.79l-6.689,8.506l-60.643,77.107l-28.332,36.026l-8.823,11.218l-12.633,16.064
			l11.127,8.75l10.209-12.981l18.128-23.051l17.266-21.954l53.866-68.492l22.241-28.279C305.702,32.535,300.46,31.564,295.154,30.79
			z"/>
		<path style="fill:#52615C;" d="M107.37,335.607c-0.5,0.005-1.001-0.003-1.502-0.023
			C106.369,335.604,106.87,335.612,107.37,335.607z"/>
		<path style="fill:#52615C;" d="M105.468,335.564c-0.459-0.024-0.917-0.06-1.375-0.105
			C104.551,335.505,105.009,335.54,105.468,335.564z"/>
		<path style="fill:#52615C;" d="M98.129,334.261c-0.399-0.122-0.795-0.255-1.189-0.394
			C97.334,334.006,97.73,334.139,98.129,334.261z"/>
		<path style="fill:#52615C;" d="M103.72,335.424c-1.145-0.126-2.286-0.318-3.416-0.576
			C101.434,335.105,102.575,335.296,103.72,335.424z"/>
		<path style="fill:#52615C;" d="M92.824,332.056c-0.366-0.194-0.73-0.396-1.09-0.607C92.094,331.66,92.458,331.862,92.824,332.056z
			"/>
		<path style="fill:#52615C;" d="M91.209,331.135c-0.353-0.216-0.702-0.442-1.048-0.674
			C90.508,330.694,90.856,330.919,91.209,331.135z"/>
		<path style="fill:#52615C;" d="M96.466,333.7c-0.522-0.194-1.04-0.4-1.553-0.625C95.426,333.3,95.944,333.505,96.466,333.7z"/>
		<path style="fill:#52615C;" d="M99.91,334.75c-0.425-0.103-0.849-0.214-1.271-0.336C99.062,334.536,99.486,334.647,99.91,334.75z"
			/>
		<path style="fill:#52615C;" d="M111.105,335.346c-1.17,0.155-2.348,0.243-3.53,0.262
			C108.756,335.589,109.935,335.501,111.105,335.346z"/>
		<path style="fill:#52615C;" d="M89.701,330.153c-0.49-0.341-0.975-0.692-1.449-1.067C88.726,329.46,89.211,329.812,89.701,330.153
			z"/>
		<path style="fill:#52615C;" d="M94.859,333.053c-0.53-0.233-1.054-0.486-1.574-0.751C93.805,332.567,94.329,332.82,94.859,333.053
			z"/>
		<path style="fill:#52615C;" d="M112.857,335.061c-0.506,0.097-1.015,0.182-1.525,0.253
			C111.843,335.243,112.351,335.158,112.857,335.061z"/>
		<path style="fill:#52615C;" d="M114.789,334.63c-0.556,0.145-1.116,0.27-1.679,0.382
			C113.673,334.9,114.233,334.775,114.789,334.63z"/>
		<path style="fill:#52615C;" d="M139.543,171.688c1.045-0.521,2.116-0.979,3.206-1.374
			C141.659,170.71,140.588,171.168,139.543,171.688z"/>
		<path style="fill:#52615C;" d="M138.025,172.503c0.394-0.224,0.793-0.441,1.195-0.647
			C138.819,172.062,138.42,172.279,138.025,172.503z"/>
		<path style="fill:#52615C;" d="M136.494,173.442c0.361-0.236,0.727-0.465,1.096-0.684
			C137.221,172.977,136.856,173.207,136.494,173.442z"/>
		<path style="fill:#52615C;" d="M129.198,180.124c0.374-0.475,0.762-0.933,1.158-1.38
			C129.961,179.191,129.572,179.649,129.198,180.124z"/>
		<path style="fill:#52615C;" d="M132.02,177.011c0.305-0.295,0.617-0.581,0.933-0.862
			C132.637,176.43,132.326,176.716,132.02,177.011z"/>
		<path style="fill:#52615C;" d="M133.327,175.816c0.891-0.765,1.819-1.471,2.777-2.118
			C135.145,174.345,134.218,175.051,133.327,175.816z"/>
		<path style="fill:#52615C;" d="M130.725,178.341c0.285-0.31,0.574-0.615,0.869-0.911
			C131.299,177.727,131.01,178.031,130.725,178.341z"/>
		<path style="fill:#52615C;" d="M146.434,169.233c1.156-0.261,2.326-0.454,3.503-0.58
			C148.759,168.779,147.59,168.971,146.434,169.233z"/>
		<path style="fill:#52615C;" d="M144.776,169.66c0.493-0.142,0.989-0.271,1.488-0.386
			C145.764,169.39,145.269,169.519,144.776,169.66z"/>
		<path style="fill:#52615C;" d="M151.96,168.505c0.569-0.023,1.139-0.033,1.709-0.024
			C153.099,168.472,152.529,168.482,151.96,168.505z"/>
		<path style="fill:#52615C;" d="M143.069,170.203c0.446-0.157,0.896-0.302,1.348-0.438
			C143.965,169.901,143.515,170.047,143.069,170.203z"/>
		<path style="fill:#52615C;" d="M150.155,168.632c0.515-0.052,1.031-0.09,1.547-0.115
			C151.186,168.542,150.67,168.581,150.155,168.632z"/>
		<g>
			<path style="fill:#52615C;" d="M116.559,334.115c-0.014-0.001-0.028-0.004-0.043-0.005c-0.572,0.185-1.144,0.37-1.725,0.521
				C115.385,334.477,115.975,334.305,116.559,334.115z"/>
			<path style="fill:#52615C;" d="M153.688,168.481c0.598,0.009,1.196,0.055,1.793,0.099c0.014-0.005,0.027-0.011,0.041-0.015
				C154.912,168.518,154.3,168.49,153.688,168.481z"/>
		</g>
		<path style="fill:#AFEBFF;" d="M96.939,333.867c-0.158-0.056-0.316-0.109-0.473-0.167
			C96.623,333.758,96.781,333.811,96.939,333.867z"/>
		<path style="opacity:0.32;fill:#505B66;" d="M96.939,333.867c-0.158-0.056-0.316-0.109-0.473-0.167
			C96.623,333.758,96.781,333.811,96.939,333.867z"/>
		<path style="fill:#AFEBFF;" d="M114.792,334.63h-0.003C114.789,334.63,114.791,334.63,114.792,334.63z"/>
		<path style="opacity:0.32;fill:#505B66;" d="M114.792,334.63h-0.003C114.789,334.63,114.791,334.63,114.792,334.63z"/>
		<path style="fill:#AFEBFF;" d="M94.913,333.075c-0.018-0.008-0.036-0.014-0.055-0.022
			C94.877,333.061,94.895,333.067,94.913,333.075z"/>
		<path style="opacity:0.32;fill:#505B66;" d="M94.913,333.075c-0.018-0.008-0.036-0.014-0.055-0.022
			C94.877,333.061,94.895,333.067,94.913,333.075z"/>
		<path style="fill:#AFEBFF;" d="M105.868,335.583c-0.133-0.005-0.267-0.012-0.4-0.019
			C105.601,335.571,105.735,335.578,105.868,335.583z"/>
		<path style="opacity:0.32;fill:#505B66;" d="M105.868,335.583c-0.133-0.005-0.267-0.012-0.4-0.019
			C105.601,335.571,105.735,335.578,105.868,335.583z"/>
		<path style="fill:#AFEBFF;" d="M107.575,335.608c-0.068,0.001-0.136-0.001-0.205-0.001
			C107.439,335.607,107.507,335.609,107.575,335.608z"/>
		<path style="opacity:0.32;fill:#505B66;" d="M107.575,335.608c-0.068,0.001-0.136-0.001-0.205-0.001
			C107.439,335.607,107.507,335.609,107.575,335.608z"/>
		<path style="fill:#AFEBFF;" d="M104.093,335.459c-0.124-0.012-0.249-0.022-0.373-0.035
			C103.844,335.437,103.968,335.447,104.093,335.459z"/>
		<path style="opacity:0.32;fill:#505B66;" d="M104.093,335.459c-0.124-0.012-0.249-0.022-0.373-0.035
			C103.844,335.437,103.968,335.447,104.093,335.459z"/>
		<path style="fill:#AFEBFF;" d="M98.64,334.415c-0.171-0.05-0.341-0.101-0.511-0.154C98.299,334.314,98.469,334.365,98.64,334.415z
			"/>
		<path style="opacity:0.32;fill:#505B66;" d="M98.64,334.415c-0.171-0.05-0.341-0.101-0.511-0.154
			C98.299,334.314,98.469,334.365,98.64,334.415z"/>
		<path style="fill:#AFEBFF;" d="M113.109,335.012c-0.084,0.017-0.168,0.033-0.252,0.049
			C112.942,335.046,113.026,335.029,113.109,335.012z"/>
		<path style="opacity:0.32;fill:#505B66;" d="M113.109,335.012c-0.084,0.017-0.168,0.033-0.252,0.049
			C112.942,335.046,113.026,335.029,113.109,335.012z"/>
		<path style="fill:#AFEBFF;" d="M111.332,335.314c-0.076,0.01-0.151,0.022-0.227,0.032
			C111.181,335.336,111.256,335.324,111.332,335.314z"/>
		<path style="opacity:0.32;fill:#505B66;" d="M111.332,335.314c-0.076,0.01-0.151,0.022-0.227,0.032
			C111.181,335.336,111.256,335.324,111.332,335.314z"/>
		<path style="fill:#AFEBFF;" d="M100.304,334.848c-0.131-0.03-0.262-0.066-0.393-0.097
			C100.042,334.782,100.172,334.817,100.304,334.848z"/>
		<path style="opacity:0.32;fill:#505B66;" d="M100.304,334.848c-0.131-0.03-0.262-0.066-0.393-0.097
			C100.042,334.782,100.172,334.817,100.304,334.848z"/>
		<path style="fill:#AFEBFF;" d="M90.161,330.461c-0.153-0.102-0.308-0.202-0.46-0.308
			C89.853,330.259,90.008,330.359,90.161,330.461z"/>
		<path style="opacity:0.32;fill:#505B66;" d="M90.161,330.461c-0.153-0.102-0.308-0.202-0.46-0.308
			C89.853,330.259,90.008,330.359,90.161,330.461z"/>
		<path style="fill:#AFEBFF;" d="M93.285,332.302c-0.155-0.079-0.307-0.164-0.461-0.246
			C92.977,332.138,93.13,332.223,93.285,332.302z"/>
		<path style="opacity:0.32;fill:#505B66;" d="M93.285,332.302c-0.155-0.079-0.307-0.164-0.461-0.246
			C92.977,332.138,93.13,332.223,93.285,332.302z"/>
		<path style="fill:#AFEBFF;" d="M91.734,331.45c-0.176-0.103-0.35-0.208-0.525-0.314C91.384,331.241,91.558,331.347,91.734,331.45z
			"/>
		<path style="opacity:0.32;fill:#505B66;" d="M91.734,331.45c-0.176-0.103-0.35-0.208-0.525-0.314
			C91.384,331.241,91.558,331.347,91.734,331.45z"/>
		<path style="fill:#9FBE5B;" d="M146.263,169.274c0.057-0.013,0.114-0.028,0.17-0.041
			C146.377,169.246,146.32,169.261,146.263,169.274z"/>
		<path style="opacity:0.32;fill:#505B66;" d="M146.263,169.274c0.057-0.013,0.114-0.028,0.17-0.041
			C146.377,169.246,146.32,169.261,146.263,169.274z"/>
		<path style="fill:#9FBE5B;" d="M149.937,168.652c0.073-0.007,0.146-0.013,0.219-0.02
			C150.083,168.639,150.009,168.645,149.937,168.652z"/>
		<path style="opacity:0.32;fill:#505B66;" d="M149.937,168.652c0.073-0.007,0.146-0.013,0.219-0.02
			C150.083,168.639,150.009,168.645,149.937,168.652z"/>
		<path style="fill:#9FBE5B;" d="M144.417,169.766c0.119-0.035,0.239-0.071,0.359-0.105
			C144.655,169.695,144.536,169.73,144.417,169.766z"/>
		<path style="opacity:0.32;fill:#505B66;" d="M144.417,169.766c0.119-0.035,0.239-0.071,0.359-0.105
			C144.655,169.695,144.536,169.73,144.417,169.766z"/>
		<path style="fill:#9FBE5B;" d="M153.669,168.481c0.007,0,0.013,0,0.019,0C153.682,168.481,153.676,168.481,153.669,168.481z"/>
		<path style="opacity:0.32;fill:#505B66;" d="M153.669,168.481c0.007,0,0.013,0,0.019,0
			C153.682,168.481,153.676,168.481,153.669,168.481z"/>
		<path style="fill:#9FBE5B;" d="M142.749,170.315c0.107-0.038,0.214-0.074,0.32-0.111
			C142.962,170.241,142.855,170.276,142.749,170.315z"/>
		<path style="opacity:0.32;fill:#505B66;" d="M142.749,170.315c0.107-0.038,0.214-0.074,0.32-0.111
			C142.962,170.241,142.855,170.276,142.749,170.315z"/>
		<path style="fill:#9FBE5B;" d="M151.703,168.517c0.086-0.004,0.172-0.009,0.257-0.012
			C151.875,168.508,151.789,168.513,151.703,168.517z"/>
		<path style="opacity:0.32;fill:#505B66;" d="M151.703,168.517c0.086-0.004,0.172-0.009,0.257-0.012
			C151.875,168.508,151.789,168.513,151.703,168.517z"/>
		<path style="fill:#9FBE5B;" d="M130.356,178.744c0.121-0.137,0.246-0.268,0.369-0.402
			C130.602,178.476,130.478,178.607,130.356,178.744z"/>
		<path style="opacity:0.32;fill:#505B66;" d="M130.356,178.744c0.121-0.137,0.246-0.268,0.369-0.402
			C130.602,178.476,130.478,178.607,130.356,178.744z"/>
		<path style="fill:#9FBE5B;" d="M139.221,171.856c0.108-0.055,0.214-0.113,0.322-0.168
			C139.435,171.743,139.329,171.801,139.221,171.856z"/>
		<path style="opacity:0.32;fill:#505B66;" d="M139.221,171.856c0.108-0.055,0.214-0.113,0.322-0.168
			C139.435,171.743,139.329,171.801,139.221,171.856z"/>
		<path style="fill:#9FBE5B;" d="M132.953,176.149c0.125-0.11,0.248-0.224,0.374-0.333
			C133.2,175.924,133.078,176.039,132.953,176.149z"/>
		<path style="opacity:0.32;fill:#505B66;" d="M132.953,176.149c0.125-0.11,0.248-0.224,0.374-0.333
			C133.2,175.924,133.078,176.039,132.953,176.149z"/>
		<path style="fill:#9FBE5B;" d="M131.594,177.431c0.141-0.142,0.283-0.281,0.426-0.419
			C131.877,177.15,131.735,177.289,131.594,177.431z"/>
		<path style="opacity:0.32;fill:#505B66;" d="M131.594,177.431c0.141-0.142,0.283-0.281,0.426-0.419
			C131.877,177.15,131.735,177.289,131.594,177.431z"/>
		<path style="fill:#9FBE5B;" d="M136.104,173.698c0.129-0.088,0.26-0.171,0.391-0.256
			C136.364,173.527,136.233,173.61,136.104,173.698z"/>
		<path style="opacity:0.32;fill:#505B66;" d="M136.104,173.698c0.129-0.088,0.26-0.171,0.391-0.256
			C136.364,173.527,136.233,173.61,136.104,173.698z"/>
		<path style="fill:#9FBE5B;" d="M137.591,172.758c0.145-0.086,0.289-0.171,0.435-0.255
			C137.88,172.587,137.735,172.672,137.591,172.758z"/>
		<path style="opacity:0.32;fill:#505B66;" d="M137.591,172.758c0.145-0.086,0.289-0.171,0.435-0.255
			C137.88,172.587,137.735,172.672,137.591,172.758z"/>
		<path style="fill:#52615C;" d="M195.145,193.167l-5.985-4.707l-11.127-8.75l-5.986-4.708c-4.949-3.892-10.726-5.989-16.566-6.423
			c0.014-0.005,0.027-0.011,0.041-0.015c-0.611-0.046-1.223-0.075-1.835-0.084c-0.006,0-0.013,0-0.019,0
			c-0.57-0.009-1.14,0.001-1.709,0.024c-0.085,0.003-0.171,0.008-0.257,0.012c-0.517,0.025-1.033,0.064-1.547,0.115
			c-0.073,0.007-0.146,0.013-0.219,0.02c-1.177,0.126-2.347,0.319-3.503,0.58c-0.057,0.013-0.113,0.028-0.17,0.041
			c-0.499,0.115-0.995,0.245-1.488,0.386c-0.12,0.034-0.24,0.07-0.359,0.105c-0.452,0.136-0.901,0.281-1.348,0.438
			c-0.107,0.037-0.214,0.073-0.32,0.111c-1.09,0.395-2.16,0.853-3.206,1.374c-0.108,0.055-0.214,0.113-0.322,0.168
			c-0.402,0.206-0.801,0.423-1.195,0.647c-0.146,0.084-0.29,0.169-0.435,0.255c-0.37,0.219-0.735,0.449-1.096,0.684
			c-0.13,0.085-0.262,0.168-0.391,0.256c-0.958,0.647-1.886,1.353-2.777,2.118c-0.126,0.108-0.249,0.222-0.374,0.333
			c-0.316,0.281-0.627,0.567-0.933,0.862c-0.144,0.138-0.285,0.278-0.426,0.419c-0.295,0.296-0.584,0.601-0.869,0.911
			c-0.123,0.134-0.248,0.266-0.369,0.402c-0.396,0.447-0.784,0.905-1.158,1.38L98.46,219.208L84.16,237.39l-24.129,30.68
			c-0.123,0.157-0.237,0.318-0.356,0.477c-0.954,1.262-1.794,2.574-2.524,3.927c-6.919,12.82-3.839,29.136,8.003,38.448l8.563,6.734
			l14.535,11.43c0.475,0.374,0.959,0.726,1.449,1.067c0.152,0.106,0.307,0.206,0.46,0.308c0.347,0.233,0.695,0.458,1.048,0.674
			c0.174,0.106,0.349,0.211,0.525,0.314c0.36,0.21,0.724,0.413,1.09,0.607c0.154,0.082,0.306,0.167,0.461,0.246
			c0.52,0.265,1.044,0.519,1.574,0.751c0.018,0.008,0.036,0.014,0.055,0.022c0.513,0.224,1.031,0.431,1.553,0.625
			c0.157,0.058,0.315,0.111,0.473,0.167c0.394,0.14,0.791,0.272,1.189,0.394c0.17,0.053,0.34,0.104,0.511,0.154
			c0.422,0.121,0.846,0.233,1.271,0.336c0.131,0.031,0.262,0.067,0.393,0.097c1.13,0.258,2.271,0.45,3.416,0.576
			c0.124,0.013,0.249,0.023,0.373,0.035c0.458,0.045,0.916,0.081,1.375,0.105c0.133,0.007,0.267,0.014,0.4,0.019
			c0.501,0.02,1.002,0.028,1.502,0.023c0.069,0,0.136,0.002,0.205,0.001c1.181-0.019,2.36-0.107,3.53-0.262
			c0.076-0.01,0.152-0.022,0.227-0.032c0.511-0.071,1.019-0.156,1.525-0.253c0.084-0.015,0.168-0.031,0.252-0.049
			c0.563-0.112,1.123-0.238,1.679-0.382h0.002c0.594-0.154,1.184-0.326,1.768-0.516c-1.467-0.111-2.929-0.329-4.375-0.654
			c1.433,0.322,2.881,0.537,4.333,0.649c5.572-1.798,10.693-5.197,14.585-10.145l40.711-51.765l27.377-34.809l1.081-1.375
			c4.417-5.617,6.54-12.301,6.521-18.931C206.763,208.077,202.776,199.168,195.145,193.167z"/>
		<path style="opacity:0.32;fill:#2C3238;" d="M153.953,168.481c-0.006,0-0.013,0-0.019,0c-0.57-0.009-1.14,0.001-1.709,0.024
			c-0.085,0.003-0.171,0.008-0.257,0.012c-0.517,0.025-1.033,0.064-1.547,0.115c-0.073,0.007-0.146,0.013-0.219,0.02
			c-1.177,0.126-2.347,0.319-3.503,0.58c-0.057,0.013-0.113,0.028-0.17,0.041c-0.499,0.115-0.995,0.245-1.488,0.386
			c-0.12,0.034-0.24,0.07-0.359,0.105c-0.452,0.136-0.901,0.281-1.348,0.438c-0.107,0.037-0.214,0.073-0.321,0.111
			c-1.09,0.395-2.16,0.853-3.206,1.374c-0.108,0.055-0.214,0.113-0.322,0.168c-0.402,0.206-0.801,0.423-1.195,0.647
			c-0.146,0.084-0.29,0.169-0.435,0.255c-0.369,0.219-0.735,0.449-1.096,0.684c-0.13,0.085-0.262,0.168-0.391,0.256
			c-0.958,0.647-1.886,1.353-2.777,2.118c-0.126,0.108-0.249,0.222-0.374,0.333c-0.316,0.281-0.627,0.567-0.933,0.862
			c-0.144,0.138-0.285,0.278-0.426,0.419c-0.295,0.296-0.584,0.601-0.869,0.911c-0.123,0.134-0.248,0.266-0.369,0.402
			c-0.396,0.447-0.784,0.905-1.158,1.38l-30.739,39.085L84.425,237.39l-24.129,30.68c-0.123,0.157-0.237,0.318-0.356,0.477
			c-0.954,1.262-1.794,2.574-2.524,3.927c-6.919,12.82-3.839,29.136,8.003,38.448l8.563,6.734l14.535,11.43
			c0.475,0.374,0.959,0.726,1.449,1.067c0.152,0.106,0.307,0.206,0.46,0.308c0.347,0.233,0.696,0.458,1.048,0.674
			c0.174,0.106,0.349,0.211,0.525,0.314c0.36,0.21,0.724,0.413,1.09,0.607c0.154,0.082,0.306,0.167,0.461,0.246
			c0.52,0.265,1.044,0.519,1.574,0.751c0.018,0.008,0.036,0.014,0.055,0.022c0.513,0.224,1.031,0.431,1.553,0.625
			c0.157,0.058,0.315,0.111,0.473,0.167c0.394,0.14,0.79,0.272,1.189,0.394c0.17,0.053,0.34,0.104,0.511,0.154
			c0.422,0.121,0.846,0.233,1.271,0.336c0.131,0.031,0.262,0.067,0.393,0.097c1.13,0.258,2.271,0.45,3.416,0.576
			c0.124,0.013,0.249,0.023,0.373,0.035c0.458,0.045,0.916,0.081,1.375,0.105c0.133,0.007,0.267,0.014,0.4,0.019
			c0.501,0.02,1.002,0.028,1.502,0.023c0.069,0,0.137,0.002,0.205,0.001c1.181-0.019,2.36-0.107,3.53-0.262
			c0.076-0.01,0.152-0.022,0.227-0.032c0.511-0.071,1.019-0.156,1.525-0.253c0.084-0.015,0.168-0.031,0.252-0.049
			c0.563-0.112,1.123-0.238,1.679-0.382h0.003c0.593-0.154,1.183-0.326,1.767-0.516c-5.825-0.442-11.587-2.555-16.523-6.437
			l-23.1-18.165c-11.16-8.778-14.544-23.78-9.102-36.208c1.017-2.322,2.34-4.555,3.98-6.641l23.022-29.273l13.531-17.206
			l32.614-41.47c3.884-4.938,8.984-8.346,14.542-10.15C155.177,168.518,154.565,168.49,153.953,168.481z"/>
		<path style="opacity:0.56;fill:#90C1D1;" d="M400.763,203.433l-5.985-4.707l-11.127-8.75l-5.986-4.708
			c-4.891-3.847-10.592-5.933-16.363-6.4c0.035-0.011,0.068-0.026,0.103-0.037c-0.611-0.047-1.223-0.075-1.835-0.084
			c-0.006,0-0.013,0-0.019,0c-0.063-0.001-0.125,0.003-0.187,0.003c-0.019-0.001-0.039-0.003-0.058-0.003c-0.006,0-0.013,0-0.019,0
			c-0.57-0.009-1.14,0.001-1.709,0.024c-0.085,0.003-0.171,0.008-0.257,0.012c-0.517,0.025-1.033,0.064-1.547,0.115
			c-0.073,0.007-0.146,0.013-0.219,0.02c-1.177,0.126-2.347,0.319-3.503,0.58c-0.057,0.013-0.113,0.028-0.17,0.041
			c-0.499,0.115-0.995,0.245-1.488,0.386c-0.12,0.034-0.24,0.07-0.359,0.105c-0.452,0.136-0.901,0.281-1.348,0.438
			c-0.107,0.037-0.214,0.073-0.32,0.111c-1.09,0.395-2.16,0.853-3.206,1.374c-0.108,0.055-0.214,0.113-0.322,0.168
			c-0.402,0.206-0.801,0.423-1.195,0.647c-0.146,0.084-0.29,0.169-0.435,0.255c-0.369,0.219-0.735,0.449-1.096,0.684
			c-0.13,0.085-0.262,0.168-0.391,0.256c-0.958,0.647-1.886,1.353-2.777,2.118c-0.126,0.108-0.249,0.222-0.374,0.333
			c-0.316,0.281-0.627,0.567-0.933,0.862c-0.144,0.139-0.285,0.278-0.426,0.42c-0.295,0.296-0.584,0.601-0.869,0.911
			c-0.123,0.134-0.248,0.266-0.369,0.402c-0.396,0.447-0.784,0.905-1.158,1.38l-30.739,39.085l-14.299,18.182l-24.129,30.681
			c-0.123,0.157-0.237,0.318-0.356,0.477c-0.954,1.262-1.794,2.574-2.524,3.927c-6.919,12.82-3.839,29.136,8.003,38.448l8.563,6.734
			l14.535,11.43c0.475,0.374,0.959,0.726,1.449,1.067c0.152,0.106,0.307,0.206,0.46,0.308c0.347,0.233,0.696,0.458,1.048,0.674
			c0.174,0.106,0.349,0.211,0.525,0.314c0.36,0.21,0.724,0.413,1.09,0.607c0.154,0.082,0.306,0.167,0.461,0.246
			c0.52,0.265,1.044,0.519,1.574,0.751c0.018,0.008,0.036,0.014,0.055,0.022c0.513,0.224,1.031,0.431,1.553,0.625
			c0.157,0.058,0.315,0.111,0.473,0.167c0.394,0.139,0.791,0.272,1.189,0.394c0.17,0.053,0.34,0.104,0.511,0.154
			c0.422,0.121,0.846,0.232,1.271,0.336c0.131,0.031,0.262,0.067,0.393,0.097c1.13,0.258,2.271,0.45,3.416,0.576
			c0.124,0.013,0.249,0.023,0.373,0.035c0.458,0.045,0.916,0.081,1.375,0.105c0.133,0.007,0.267,0.014,0.4,0.019
			c0.501,0.02,1.002,0.028,1.502,0.023c0.069,0,0.136,0.002,0.205,0.001c0.011,0,0.021-0.001,0.032-0.001c0.01,0,0.019,0,0.028,0
			c0.069,0,0.136,0.002,0.205,0.001c1.181-0.019,2.36-0.107,3.53-0.262c0.076-0.01,0.152-0.022,0.228-0.032
			c0.51-0.071,1.019-0.156,1.525-0.253c0.084-0.015,0.168-0.031,0.252-0.049c0.563-0.112,1.123-0.238,1.679-0.382h0.003
			c0.593-0.154,1.183-0.326,1.767-0.516c-0.082-0.006-0.164-0.02-0.246-0.027c5.548-1.804,10.646-5.193,14.523-10.123l40.711-51.765
			l27.377-34.809l1.081-1.375c4.417-5.617,6.54-12.301,6.521-18.931C412.381,218.343,408.393,209.434,400.763,203.433z"/>
		<circle style="fill:#F4B7A9;" cx="239.998" cy="121.273" r="19.126"/>
		<path style="fill:#52615C;" d="M394.702,193.167l-5.985-4.707l-11.127-8.75l-5.986-4.708c-4.949-3.892-10.726-5.989-16.566-6.423
			c0.014-0.005,0.027-0.011,0.041-0.015c-0.611-0.046-1.223-0.075-1.835-0.084c-0.006,0-0.013,0-0.019,0
			c-0.57-0.009-1.14,0.001-1.709,0.024c-0.085,0.003-0.171,0.008-0.257,0.012c-0.517,0.025-1.033,0.064-1.547,0.115
			c-0.073,0.007-0.146,0.013-0.219,0.02c-1.177,0.126-2.347,0.319-3.503,0.58c-0.057,0.013-0.113,0.028-0.17,0.041
			c-0.499,0.115-0.995,0.245-1.488,0.386c-0.12,0.034-0.24,0.07-0.359,0.105c-0.452,0.136-0.901,0.281-1.348,0.438
			c-0.107,0.037-0.214,0.073-0.32,0.111c-1.09,0.395-2.16,0.853-3.206,1.374c-0.108,0.055-0.214,0.113-0.322,0.168
			c-0.402,0.206-0.801,0.423-1.195,0.647c-0.146,0.084-0.29,0.169-0.435,0.255c-0.369,0.219-0.735,0.449-1.096,0.684
			c-0.13,0.085-0.262,0.168-0.391,0.256c-0.958,0.647-1.886,1.353-2.777,2.118c-0.126,0.108-0.249,0.222-0.374,0.333
			c-0.316,0.281-0.627,0.567-0.933,0.862c-0.144,0.138-0.285,0.278-0.426,0.419c-0.295,0.296-0.584,0.601-0.869,0.911
			c-0.123,0.134-0.248,0.266-0.369,0.402c-0.396,0.447-0.784,0.905-1.158,1.38l-30.739,39.085l-14.299,18.182l-24.129,30.68
			c-0.123,0.157-0.237,0.318-0.356,0.477c-0.954,1.262-1.794,2.574-2.524,3.927c-6.919,12.82-3.839,29.136,8.003,38.448l8.563,6.734
			l14.535,11.43c0.475,0.374,0.959,0.726,1.449,1.067c0.152,0.106,0.307,0.206,0.46,0.308c0.347,0.233,0.696,0.458,1.048,0.674
			c0.174,0.106,0.349,0.211,0.525,0.314c0.36,0.21,0.724,0.413,1.09,0.607c0.154,0.082,0.306,0.167,0.461,0.246
			c0.52,0.265,1.044,0.519,1.574,0.751c0.018,0.008,0.036,0.014,0.055,0.022c0.513,0.224,1.031,0.431,1.553,0.625
			c0.157,0.058,0.315,0.111,0.473,0.167c0.394,0.14,0.791,0.272,1.189,0.394c0.17,0.053,0.34,0.104,0.511,0.154
			c0.422,0.121,0.846,0.233,1.271,0.336c0.131,0.031,0.262,0.067,0.393,0.097c1.13,0.258,2.271,0.45,3.416,0.576
			c0.124,0.013,0.249,0.023,0.373,0.035c0.458,0.045,0.916,0.081,1.375,0.105c0.133,0.007,0.267,0.014,0.4,0.019
			c0.501,0.02,1.002,0.028,1.502,0.023c0.069,0,0.136,0.002,0.205,0.001c1.181-0.019,2.36-0.107,3.53-0.262
			c0.076-0.01,0.152-0.022,0.227-0.032c0.511-0.071,1.019-0.156,1.525-0.253c0.084-0.015,0.168-0.031,0.252-0.049
			c0.563-0.112,1.123-0.238,1.679-0.382h0.003c0.593-0.154,1.183-0.326,1.767-0.516c-1.467-0.111-2.929-0.329-4.375-0.654
			c1.433,0.322,2.881,0.537,4.333,0.649c5.572-1.798,10.693-5.197,14.585-10.145l40.711-51.765l27.377-34.809l1.081-1.375
			c4.417-5.617,6.54-12.301,6.521-18.931C406.32,208.077,402.332,199.168,394.702,193.167z"/>
		<path style="opacity:0.32;fill:#2C3238;" d="M353.51,168.481c-0.006,0-0.013,0-0.019,0c-0.57-0.009-1.14,0.001-1.709,0.024
			c-0.085,0.003-0.171,0.008-0.257,0.012c-0.517,0.025-1.033,0.064-1.547,0.115c-0.073,0.007-0.146,0.013-0.219,0.02
			c-1.177,0.126-2.347,0.319-3.503,0.58c-0.057,0.013-0.113,0.028-0.17,0.041c-0.499,0.115-0.995,0.245-1.488,0.386
			c-0.12,0.034-0.24,0.07-0.359,0.105c-0.452,0.136-0.901,0.281-1.348,0.438c-0.107,0.037-0.214,0.073-0.32,0.111
			c-1.09,0.395-2.16,0.853-3.206,1.374c-0.108,0.055-0.214,0.113-0.322,0.168c-0.402,0.206-0.801,0.423-1.195,0.647
			c-0.146,0.084-0.29,0.169-0.435,0.255c-0.369,0.219-0.735,0.449-1.096,0.684c-0.13,0.085-0.262,0.168-0.391,0.256
			c-0.958,0.647-1.886,1.353-2.777,2.118c-0.126,0.108-0.249,0.222-0.374,0.333c-0.316,0.281-0.627,0.567-0.933,0.862
			c-0.143,0.138-0.285,0.278-0.426,0.419c-0.295,0.296-0.584,0.601-0.869,0.911c-0.123,0.134-0.248,0.266-0.369,0.402
			c-0.396,0.447-0.784,0.905-1.158,1.38l-30.739,39.085l-14.299,18.182l-24.129,30.68c-0.123,0.157-0.237,0.318-0.356,0.477
			c-0.954,1.262-1.794,2.574-2.524,3.927c-6.919,12.82-3.839,29.136,8.003,38.448l8.563,6.734l14.535,11.43
			c0.475,0.374,0.959,0.726,1.449,1.067c0.152,0.106,0.307,0.206,0.46,0.308c0.347,0.233,0.696,0.458,1.048,0.674
			c0.174,0.106,0.349,0.211,0.525,0.314c0.36,0.21,0.724,0.413,1.09,0.607c0.154,0.082,0.306,0.167,0.461,0.246
			c0.52,0.265,1.044,0.519,1.574,0.751c0.018,0.008,0.036,0.014,0.055,0.022c0.513,0.224,1.031,0.431,1.553,0.625
			c0.157,0.058,0.315,0.111,0.473,0.167c0.394,0.14,0.791,0.272,1.189,0.394c0.17,0.053,0.34,0.104,0.511,0.154
			c0.422,0.121,0.846,0.233,1.271,0.336c0.131,0.031,0.262,0.067,0.393,0.097c1.13,0.258,2.271,0.45,3.416,0.576
			c0.124,0.013,0.249,0.023,0.373,0.035c0.458,0.045,0.916,0.081,1.375,0.105c0.133,0.007,0.267,0.014,0.4,0.019
			c0.501,0.02,1.002,0.028,1.502,0.023c0.069,0,0.137,0.002,0.205,0.001c1.181-0.019,2.36-0.107,3.53-0.262
			c0.076-0.01,0.152-0.022,0.228-0.032c0.51-0.071,1.019-0.156,1.525-0.253c0.084-0.015,0.168-0.031,0.252-0.049
			c0.563-0.112,1.123-0.238,1.679-0.382h0.002c0.594-0.154,1.184-0.326,1.768-0.516c-5.825-0.442-11.587-2.555-16.523-6.437
			l-23.1-18.165c-11.16-8.778-14.544-23.78-9.102-36.208c1.016-2.322,2.34-4.555,3.98-6.641l23.022-29.273l13.531-17.206
			l32.614-41.47c3.884-4.938,8.984-8.346,14.542-10.15C354.733,168.518,354.121,168.49,353.51,168.481z"/>
		<path style="fill:#EA7053;" d="M427.378,116.402l-28.332,36.026l-8.823,11.218l-12.633,16.064l11.127,8.75l10.209-12.981
			l18.128-23.051l17.266-21.954l5.239-6.661c-2.68-4.151-5.501-8.201-8.461-12.141L427.378,116.402z"/>
	</g>
	<path style="fill:#9FBE5B;" d="M74.835,152.429c0,0-38.005,1.667-58.436-16.007c-2.116-1.83-5.048-2.538-7.651-1.51
		c-22.631,8.941-0.007,81.538,52.32,79.706"/>
</g>
<g>
</g>
<g>
</g>
<g>
</g>
<g>
</g>
<g>
</g>
<g>
</g>
<g>
</g>
<g>
</g>
<g>
</g>
<g>
</g>
<g>
</g>
<g>
</g>
<g>
</g>
<g>
</g>
<g>
</g>
</svg>
