<?xml version="1.0" encoding="iso-8859-1"?>
<!-- Generator: Adobe Illustrator 19.1.0, SVG Export Plug-In . SVG Version: 6.00 Build 0)  -->
<svg version="1.1" id="Capa_1" xmlns="http://www.w3.org/2000/svg" xmlns:xlink="http://www.w3.org/1999/xlink" x="0px" y="0px"
	 viewBox="0 0 480.517 480.517" style="enable-background:new 0 0 480.517 480.517;" xml:space="preserve">
<g>
	<path style="fill:#AFEBFF;" d="M446.935,273.842c0-114.139-92.531-206.672-206.675-206.672
		c-114.147,0-206.677,92.532-206.677,206.672c0,114.143,92.53,206.675,206.677,206.675
		C354.404,480.517,446.935,387.985,446.935,273.842z"/>
	<path style="fill:#E2F8FF;" d="M97.877,146.212c6.989,8.644,20.653,22.056,38.539,22.706c0.457,0.017,0.912,0.026,1.369,0.026
		c13.795,0,27.034-7.637,39.453-22.733c6.987,8.644,20.654,22.056,38.541,22.706c0.457,0.017,0.912,0.026,1.368,0.026
		c13.794,0,27.035-7.637,39.453-22.733c6.989,8.644,20.655,22.056,38.542,22.706c0.455,0.017,0.911,0.026,1.367,0.026
		c15.739,0,30.757-9.939,44.653-29.557c1.829-2.581,1.218-6.154-1.36-7.982c-2.585-1.828-6.154-1.217-7.983,1.362
		c-11.625,16.413-23.509,24.725-35.341,24.725c-0.293,0-0.585-0.004-0.881-0.015c-15.998-0.557-28.55-16.079-32.802-22.054
		c-0.179-1.56-0.975-3.04-2.356-4.018c-1.097-0.777-2.374-1.088-3.618-1.019c-1.164-0.099-2.367,0.139-3.441,0.792
		c-1.49,0.9-2.397,2.374-2.662,3.966c-11.07,14.829-22.359,22.348-33.602,22.348c-0.292,0-0.585-0.004-0.88-0.015
		c-16.001-0.557-28.551-16.079-32.802-22.054c-0.181-1.56-0.977-3.04-2.359-4.018c-1.098-0.777-2.373-1.088-3.618-1.019
		c-1.163-0.099-2.365,0.139-3.44,0.792c-1.489,0.9-2.396,2.374-2.661,3.966c-11.07,14.829-22.36,22.348-33.603,22.348
		c-0.293,0-0.585-0.004-0.88-0.015c-15.999-0.557-28.549-16.079-32.802-22.054c-0.178-1.56-0.976-3.04-2.355-4.018
		c-1.1-0.777-2.374-1.088-3.62-1.019c-1.162-0.099-2.367,0.139-3.44,0.792c-1.49,0.9-2.396,2.374-2.66,3.966
		c-6.61,8.85-13.291,15.075-20,18.673c-3.44,4.816-6.672,9.791-9.699,14.902C74.696,167.42,86.625,159.889,97.877,146.212z"/>
	<path style="fill:#E2F8FF;" d="M435.758,314.326c-0.292,0-0.584-0.004-0.879-0.015c-15.999-0.558-28.55-16.079-32.801-22.055
		c-0.18-1.559-0.976-3.038-2.357-4.018c-1.098-0.777-2.376-1.088-3.621-1.019c-1.161-0.099-2.364,0.139-3.439,0.792
		c-1.489,0.9-2.397,2.375-2.661,3.966c-11.07,14.828-22.36,22.349-33.603,22.349c-0.293,0-0.585-0.004-0.88-0.015
		c-15.999-0.558-28.55-16.079-32.802-22.055c-0.18-1.559-0.976-3.038-2.357-4.018c-1.1-0.777-2.374-1.088-3.619-1.019
		c-1.163-0.099-2.366,0.139-3.44,0.792c-1.49,0.9-2.397,2.375-2.662,3.966c-11.07,14.828-22.359,22.349-33.602,22.349
		c-0.293,0-0.585-0.004-0.88-0.015c-16-0.558-28.551-16.079-32.802-22.055c-0.182-1.559-0.977-3.038-2.358-4.018
		c-1.099-0.777-2.374-1.088-3.619-1.019c-1.163-0.099-2.365,0.139-3.44,0.792c-1.489,0.9-2.396,2.375-2.661,3.966
		c-11.071,14.828-22.36,22.349-33.605,22.349c-0.292,0-0.585-0.004-0.879-0.015c-19.66-0.685-34.117-23.968-34.358-24.365
		c-1.636-2.702-5.153-3.575-7.86-1.935c-2.706,1.634-3.574,5.153-1.938,7.861c0.712,1.18,17.773,28.937,43.698,29.88
		c0.457,0.017,0.913,0.026,1.369,0.026c13.794,0,27.036-7.637,39.454-22.733c6.988,8.644,20.654,22.056,38.541,22.706
		c0.457,0.017,0.912,0.026,1.368,0.026c13.795,0,27.035-7.637,39.453-22.733c6.988,8.644,20.655,22.056,38.541,22.706
		c0.457,0.017,0.911,0.026,1.368,0.026c13.794,0,27.036-7.637,39.453-22.733c6.99,8.644,20.656,22.056,38.542,22.706
		c0.456,0.017,0.912,0.026,1.368,0.026c1.556,0,3.103-0.125,4.645-0.319c1.036-4.033,1.94-8.116,2.735-12.238
		C440.7,313.942,438.228,314.326,435.758,314.326z"/>
	<path style="fill:#E2F8FF;" d="M140.056,448.51c13.795,0,27.036-7.637,39.453-22.733c6.989,8.644,20.655,22.056,38.542,22.705
		c0.456,0.018,0.912,0.027,1.368,0.027c15.738,0,30.756-9.939,44.654-29.557c1.827-2.582,1.216-6.155-1.364-7.983
		c-2.583-1.829-6.152-1.217-7.98,1.361c-11.626,16.414-23.511,24.726-35.342,24.726c-0.293,0-0.585-0.004-0.88-0.016
		c-15.999-0.558-28.55-16.078-32.802-22.054c-0.18-1.56-0.976-3.039-2.357-4.018c-1.098-0.778-2.373-1.088-3.621-1.02
		c-1.162-0.098-2.364,0.14-3.438,0.792c-1.489,0.901-2.397,2.375-2.661,3.967c-11.07,14.828-22.36,22.348-33.604,22.348
		c-0.293,0-0.585-0.004-0.88-0.016c-15.999-0.558-28.55-16.078-32.799-22.054c-0.182-1.56-0.976-3.039-2.359-4.018
		c-1.1-0.778-2.376-1.088-3.62-1.02c-1.162-0.098-2.363,0.14-3.44,0.792c-1.487,0.901-2.397,2.375-2.661,3.967
		c-0.78,1.047-1.562,2.048-2.348,3.023c10.019,10.323,21.099,19.614,33.074,27.677c4.218,1.736,8.792,2.896,13.697,3.074
		C139.144,448.501,139.6,448.51,140.056,448.51z"/>
	<path style="fill:#505B66;" d="M106.059,241.109H60.547l-2.161,5.725h47.155C105.709,244.946,105.887,243.018,106.059,241.109z"/>
	<path style="fill:#FCE8AC;" d="M186.244,74.317c-21.748-29.53-38.674-49.362-45.259-56.859v75.08v362.611
		c1.621,0.889,3.253,1.761,4.898,2.608h188.749c6.725-3.456,13.226-7.279,19.495-11.427
		C328.847,288.69,241.863,149.843,186.244,74.317z"/>
	<path style="fill:#F0DDA4;" d="M186.244,74.317c-21.748-29.53-38.674-49.362-45.259-56.859v20.726
		c7.3,9.086,16.044,20.33,25.763,33.526c55.62,75.525,142.604,214.373,167.884,372.012c-6.269,4.148-12.771,7.971-19.495,11.427
		H140.985c1.621,0.889,3.253,1.761,4.898,2.608h188.749c6.725-3.456,13.226-7.279,19.495-11.427
		C328.847,288.69,241.863,149.843,186.244,74.317z"/>
	<path style="fill:#FCE8AC;" d="M240.259,480.517c29.238,0,57.051-6.085,82.261-17.034H157.996
		C183.206,474.432,211.02,480.517,240.259,480.517z"/>
	<path style="fill:#505B66;" d="M157.996,463.483H322.52c4.108-1.785,8.15-3.688,12.112-5.726H145.883
		C149.847,459.795,153.889,461.698,157.996,463.483z"/>
	<path style="fill:#FCE8AC;" d="M93.007,418.848c0.716,0.727,1.436,1.449,2.163,2.165c0.015-0.712,0.032-1.447,0.048-2.165H93.007z"
		/>
	<path style="fill:#FCE8AC;" d="M95.336,413.124c-0.025,1.17-0.049,2.307-0.071,3.456c1.043-48.679,4.718-111.095,12.178-190.479
		V116.744L36.075,305.993c6.395,40.931,24.795,77.878,51.494,107.131H95.336z"/>
	<path style="fill:#F0DDA4;" d="M99.587,137.576l-1.972,82.212c-9.09,76.886-14.223,137.826-16.538,185.83
		c2.112,2.547,4.26,5.063,6.491,7.507h7.767c-0.025,1.17-0.049,2.307-0.071,3.456c1.043-48.679,4.718-111.095,12.178-190.479
		V116.744L99.587,137.576z"/>
	<path style="fill:#505B66;" d="M95.218,418.848c0.015-0.751,0.031-1.515,0.047-2.268C95.249,417.339,95.232,418.097,95.218,418.848
		L95.218,418.848z"/>
	<path style="fill:#505B66;" d="M95.264,416.58c0.022-1.149,0.046-2.286,0.071-3.456h-7.767c1.775,1.944,3.591,3.85,5.438,5.724
		h2.211C95.232,418.097,95.249,417.339,95.264,416.58z"/>
	<path style="fill:#EA7053;" d="M108.129,114.927c-0.231,0.192-0.456,0.386-0.687,0.58v1.238L108.129,114.927z"/>
	<path style="fill:#505B66;" d="M237.937,151.093h-99.962v5.725h103.449C240.259,154.897,239.098,152.984,237.937,151.093z"/>
	<path style="fill:#505B66;" d="M322.763,325.778H137.975v5.724h186.786C324.097,329.593,323.439,327.677,322.763,325.778z"/>
	<path style="fill:#EA7053;" d="M124.212,0c-9.261,0-16.77,7.509-16.77,16.773v98.734c0.23-0.194,0.455-0.388,0.687-0.58
		l-0.687,1.817v109.357v206.079c9.492,7.969,19.703,15.105,30.533,21.286c0.997,0.569,2.002,1.129,3.01,1.683V92.538v-75.08v-0.686
		C140.985,7.509,133.478,0,124.212,0z"/>
</g>
<g>
</g>
<g>
</g>
<g>
</g>
<g>
</g>
<g>
</g>
<g>
</g>
<g>
</g>
<g>
</g>
<g>
</g>
<g>
</g>
<g>
</g>
<g>
</g>
<g>
</g>
<g>
</g>
<g>
</g>
</svg>
