<?xml version="1.0" encoding="iso-8859-1"?>
<!-- Generator: Adobe Illustrator 19.1.0, SVG Export Plug-In . SVG Version: 6.00 Build 0)  -->
<svg version="1.1" id="Capa_1" xmlns="http://www.w3.org/2000/svg" xmlns:xlink="http://www.w3.org/1999/xlink" x="0px" y="0px"
	 viewBox="0 0 425.693 425.693" style="enable-background:new 0 0 425.693 425.693;" xml:space="preserve">
<g>
	<circle style="fill:#71BE5B;" cx="206.744" cy="212.847" r="206.744"/>
	<rect x="225.387" y="214.427" style="fill:#5C6771;" width="16.488" height="34.751"/>
	<path style="fill:#505B66;" d="M171.488,189.881v7.813h107.795v-22.056h-13.547v-5.037h14.317v-14.487h-46.077v14.487h15.533v5.037
		h-78.021v7.675H2.109c-0.311,2.179-0.59,4.368-0.831,6.568H171.488z"/>
	<path style="fill:#505B66;" d="M171.488,207.877h107.795v-10.182H171.488v-7.813H1.278c-0.375,3.37-0.665,6.765-0.874,10.182
		h171.085V207.877z"/>
	<path style="opacity:0.42;fill:#282A2C;" d="M171.488,207.877h107.795v-10.182H171.488v-7.813H1.278
		c-0.375,3.37-0.665,6.765-0.874,10.182h171.085V207.877z"/>
	<path style="fill:#848C94;" d="M241.875,237.922v-23.495H0.02c0.06,7.946,0.565,15.786,1.497,23.495H241.875z"/>
	<path style="fill:#848C94;" d="M241.875,237.922H1.517c0.457,3.783,1.009,7.539,1.669,11.256h238.688V237.922z"/>
	<path style="opacity:0.42;fill:#282A2C;" d="M241.875,237.922H1.517c0.457,3.783,1.009,7.539,1.669,11.256h238.688V237.922z"/>
	<g>
		<path style="fill:#EA7053;" d="M425.693,232.485c0,7.751-6.285,14.041-14.042,14.041h-40.907c-7.753,0-14.037-6.29-14.037-14.041
			l0,0c0-7.755,6.284-14.042,14.037-14.042h40.907C419.408,218.443,425.693,224.73,425.693,232.485L425.693,232.485z"/>
		<rect x="348.227" y="218.443" style="fill:#F9D363;" width="26.013" height="28.083"/>
	</g>
	<path style="opacity:0.3;fill:#823E2E;" d="M348.227,246.526h22.518h3.495h37.412c7.757,0,14.042-6.29,14.042-14.041h-77.467
		V246.526z"/>
	<path style="fill:#71BE5B;" d="M270.947,355.836c0-6.513-81.053-11.794-181.035-11.794c-14.707,0-28.997,0.115-42.687,0.33
		c6.851,8.301,14.349,16.049,22.399,23.187c6.661,0.049,13.428,0.075,20.288,0.075C189.894,367.633,270.947,362.353,270.947,355.836
		z"/>
	<path style="opacity:0.38;fill:#538C43;" d="M270.947,355.836c0-6.513-81.053-11.794-181.035-11.794
		c-14.707,0-28.997,0.115-42.687,0.33c6.851,8.301,14.349,16.049,22.399,23.187c6.661,0.049,13.428,0.075,20.288,0.075
		C189.894,367.633,270.947,362.353,270.947,355.836z"/>
	<path style="fill:#71BE5B;" d="M364.395,346.583c-23.049,0.859-40.426,4.676-40.426,9.256c0,3.398,9.578,6.378,23.939,8.04
		C353.728,358.436,359.235,352.66,364.395,346.583z"/>
	<path style="opacity:0.38;fill:#538C43;" d="M364.395,346.583c-23.049,0.859-40.426,4.676-40.426,9.256
		c0,3.398,9.578,6.378,23.939,8.04C353.728,358.436,359.235,352.66,364.395,346.583z"/>
</g>
<g>
</g>
<g>
</g>
<g>
</g>
<g>
</g>
<g>
</g>
<g>
</g>
<g>
</g>
<g>
</g>
<g>
</g>
<g>
</g>
<g>
</g>
<g>
</g>
<g>
</g>
<g>
</g>
<g>
</g>
</svg>
