<?xml version="1.0" encoding="iso-8859-1"?>
<!-- Generator: Adobe Illustrator 19.1.0, SVG Export Plug-In . SVG Version: 6.00 Build 0)  -->
<svg version="1.1" id="Capa_1" xmlns="http://www.w3.org/2000/svg" xmlns:xlink="http://www.w3.org/1999/xlink" x="0px" y="0px"
	 viewBox="0 0 469.431 469.431" style="enable-background:new 0 0 469.431 469.431;" xml:space="preserve">
<g>
	<g>
		<path style="fill:#EAEBED;" d="M416.952,234.721c0.003-115.139-93.331-208.48-208.469-208.482
			C93.341,26.236,0.003,119.571,0,234.71s93.331,208.48,208.473,208.482C323.611,443.196,416.95,349.86,416.952,234.721z"/>
		<path style="fill:#F9D363;" d="M438.926,328.352c-33.347,40.724-93.395,46.706-134.118,13.359l8.935,7.316
			c40.726,33.349,100.771,27.366,134.118-13.358c33.347-40.723,27.369-100.768-13.356-134.117l-8.935-7.317
			C466.294,227.582,472.272,287.628,438.926,328.352z"/>
		<path style="opacity:0.66;fill:#D3B354;" d="M438.926,328.352c-33.347,40.724-93.395,46.706-134.118,13.359l8.935,7.316
			c40.726,33.349,100.771,27.366,134.118-13.358c33.347-40.723,27.369-100.768-13.356-134.117l-8.935-7.317
			C466.294,227.582,472.272,287.628,438.926,328.352z"/>
		<path style="fill:#F9D363;" d="M304.807,341.711c40.723,33.347,100.771,27.365,134.118-13.359
			c33.347-40.723,27.369-100.769-13.356-134.117L276.493,72.16l-62.738,194.99L304.807,341.711z"/>
		<path style="fill:#EB775C;" d="M304.807,341.711c9.028,7.393,19.012,12.846,29.439,16.422l60.781-188.907l-34.313-28.099
			l-62.739,194.99L304.807,341.711z"/>
		<path style="fill:#F9D363;" d="M314.475,102.371L221.57,26.66c-4.329-0.268-8.69-0.421-13.087-0.421
			C135.629,26.237,71.516,63.611,34.24,120.225L193.546,250.05L314.475,102.371z"/>
		<path style="fill:#EB775C;" d="M179.44,239.051l34.315,28.1l62.738-194.99l-34.444-28.205
			C238.402,61.216,179.44,239.051,179.44,239.051z"/>
		<polygon style="fill:#EB775C;" points="273.021,315.682 335.761,120.694 301.445,92.593 238.706,287.583 		"/>
		<path style="fill:#EAEBED;" d="M303.653,384.043c-56.853-0.001-102.941,11.646-102.942,26.015
			c0,11.222,28.105,20.784,67.495,24.436c31.28-9.338,59.474-25.817,82.694-47.552C336.749,385.09,320.686,384.043,303.653,384.043z
			"/>
		<path style="opacity:0.81;fill:#C5C6C7;" d="M303.653,384.043c-56.853-0.001-102.941,11.646-102.942,26.015
			c0,11.222,28.105,20.784,67.495,24.436c31.28-9.338,59.474-25.817,82.694-47.552C336.749,385.09,320.686,384.043,303.653,384.043z
			"/>
	</g>
	<g>
		<circle style="fill:#FFFFFF;" cx="282.232" cy="73.848" r="9.328"/>
		<circle style="fill:#FFFFFF;" cx="288.931" cy="81.861" r="6.219"/>
	</g>
	<g>
		<circle style="fill:#FFFFFF;" cx="381.411" cy="214.894" r="9.328"/>
	</g>
	<path style="fill:#FFFFFF;" d="M346.509,130.652l29.829,22.343c11.351-1.848,6.596-14,1.415-15.08
		c3.176-6.507-7.92-17.835-17.229-10.848C359.639,120.945,345.09,121.613,346.509,130.652z"/>
	<path style="fill:#FFFFFF;" d="M44.288,335.215c18.454,7.481,79.65-0.079,79.65-0.079c17.03-17.721-6.686-32.391-16.928-27.59
		c-2.92-15.198-36.419-20.324-43.365,3.562C54.276,301.779,26.165,327.868,44.288,335.215z"/>
	<path style="fill:#FFFFFF;" d="M84.347,344.351c17.944,8.631,61.333,7.733,79.649-0.079c22.607-9.642-6.686-32.392-16.928-27.59
		c-2.92-15.198-36.419-20.324-43.365,3.562C94.335,310.915,66.725,335.875,84.347,344.351z"/>
	<g>
		<path style="fill:#ABABAB;" d="M164.961,50.643c-3.037-2.613-7.618-2.27-10.231,0.767l-49.18,57.153
			c-2.613,3.037-2.27,7.618,0.767,10.231l32.014,27.548c3.037,2.613,7.618,2.27,10.231-0.767l49.18-57.153
			c2.613-3.037,2.27-7.618-0.767-10.231L164.961,50.643z"/>
		<path style="fill:#707070;" d="M207.696,94.77c-2.605,3.045-7.184,3.401-10.229,0.796L147.59,52.893
			c-3.044-2.605-3.401-7.185-0.796-10.229l5.39-6.3c2.605-3.045,7.185-3.401,10.229-0.796L212.29,78.24
			c3.045,2.605,3.401,7.184,0.796,10.229L207.696,94.77z"/>
		<path style="fill:#959595;" d="M165.035,67.818l32.432,27.748c3.045,2.605,7.624,2.248,10.229-0.796l5.39-6.3
			c2.605-3.045,2.248-7.624-0.796-10.229l-32.686-27.965C166.88,42.323,155.314,57.151,165.035,67.818z"/>
		<circle style="fill:#707070;" cx="173.931" cy="59.875" r="2.452"/>
		<circle style="fill:#707070;" cx="183.108" cy="67.629" r="2.452"/>
		<path style="fill:#707070;" d="M152.855,157.184c-2.605,3.045-7.185,3.401-10.229,0.796l-49.877-42.673
			c-3.045-2.605-3.401-7.184-0.796-10.229l5.39-6.3c2.605-3.045,7.185-3.401,10.229-0.796l49.877,42.672
			c3.045,2.605,3.401,7.185,0.796,10.229L152.855,157.184z"/>
		<path style="fill:#959595;" d="M110.193,130.232l32.432,27.748c3.045,2.605,7.624,2.248,10.229-0.796l5.39-6.3
			c2.605-3.045,2.248-7.624-0.796-10.229l-32.686-27.965C112.038,104.737,100.473,119.565,110.193,130.232z"/>
		<circle style="fill:#707070;" cx="119.089" cy="122.289" r="2.452"/>
		<circle style="fill:#707070;" cx="128.266" cy="130.043" r="2.452"/>
	</g>
</g>
<g>
</g>
<g>
</g>
<g>
</g>
<g>
</g>
<g>
</g>
<g>
</g>
<g>
</g>
<g>
</g>
<g>
</g>
<g>
</g>
<g>
</g>
<g>
</g>
<g>
</g>
<g>
</g>
<g>
</g>
</svg>
