<?xml version="1.0" encoding="iso-8859-1"?>
<!-- Generator: Adobe Illustrator 19.1.0, SVG Export Plug-In . SVG Version: 6.00 Build 0)  -->
<svg version="1.1" id="Capa_1" xmlns="http://www.w3.org/2000/svg" xmlns:xlink="http://www.w3.org/1999/xlink" x="0px" y="0px"
	 viewBox="0 0 460.666 460.666" style="enable-background:new 0 0 460.666 460.666;" xml:space="preserve">
<g>
	<g>
		<circle style="fill:#69AFF3;" cx="254.41" cy="230.333" r="206.256"/>
		<path style="fill:#F9F4ED;" d="M460.577,224.446H48.243c-0.055,1.957-0.089,3.917-0.089,5.887c0,13.133,1.243,25.973,3.588,38.422
			h405.337c2.345-12.45,3.587-25.29,3.587-38.422C460.666,228.363,460.633,226.403,460.577,224.446z"/>
		<ellipse style="opacity:0.4;fill:#5791C9;" cx="217.083" cy="340.14" rx="77.628" ry="21.633"/>
		<path style="fill:#EA7053;" d="M304.072,157.931c20.68,0,37.444-16.764,37.444-37.444V43.335
			c-22.976-10.721-48.251-17.332-74.888-18.888v96.04C266.628,141.167,283.392,157.931,304.072,157.931z"/>
	</g>
	<g>
		<path style="fill:#F9D363;" d="M220.493,211.462c1.52-5.639,2.581-11.294,3.208-16.925c-0.634,5.583-1.696,11.2-3.208,16.813
			c-9.527,35.39-34.919,62.245-66.438,74.97c-5.78,2.333-11.765,4.19-17.897,5.538c-0.025-0.076-0.051-0.151-0.076-0.227
			c-25.235,5.609-51.579,2.192-74.025-9.175h-0.002c-0.008-0.004-0.015-0.01-0.024-0.013c-1.546-0.795-3.076-1.626-4.589-2.497
			c-0.015-0.008-0.031-0.018-0.046-0.027c-1.505-0.866-2.989-1.767-4.458-2.708c-0.034-0.022-0.071-0.047-0.105-0.069
			c-1.449-0.93-2.881-1.895-4.292-2.897c-0.045-0.032-0.089-0.066-0.134-0.098c-1.406-1.003-2.795-2.038-4.162-3.111
			c0,0-0.007-0.006-0.011-0.009c-0.81-0.636-1.582-1.331-2.376-1.992c0.713,0.387,1.42,0.794,2.142,1.165
			c0.008,0.004,0.015,0.009,0.024,0.013h0.002c27.441,14.099,59.957,16.308,89.407,5.242c-0.057-8.74,2.011-17.755,6.483-26.381
			l37.817-72.952c5.996-11.566,15.403-20.712,26.449-26.803c-0.637-3.474-1.418-6.932-2.386-10.358
			c-0.012-0.038-0.024-0.076-0.035-0.115c-0.478-1.681-0.991-3.355-1.549-5.02c-0.002-0.007-0.003-0.015-0.007-0.023v0.003
			c-2.931-8.745-6.979-17.245-12.174-25.304c-0.825-1.281-1.658-2.561-2.54-3.816c-0.906-1.285-1.846-2.528-2.79-3.761l-0.002,0.001
			c-5.109-6.671-11.248-12.321-17.44-17.503c-7.417-3.974-15.4-7.171-23.874-9.455c-34.081-9.188-68.724-1.636-95.21,17.621
			c1.544,0.619,3.072,1.315,4.578,2.098l62.18,32.322c24.933,12.96,34.673,43.788,21.712,68.721
			c-12.96,24.932-43.788,34.673-68.72,21.712l-62.18-32.322c-1.292-0.672-2.533-1.402-3.742-2.166
			c-0.171,49.609,32.827,95.091,82.994,108.615C142.807,306.692,204.369,271.277,220.493,211.462z"/>
		<path style="fill:#F9D363;" d="M189.692,101.158c-5.34-5.111-11.215-9.723-17.573-13.737c0.097,0.085,0.189,0.166,0.205,0.176
			C173.343,88.252,181.045,93.042,189.692,101.158z"/>
		<path style="fill:#F9D363;" d="M210.432,128.15c0.29,0.534,0.584,1.067,0.864,1.604
			C211.012,129.217,210.725,128.681,210.432,128.15z"/>
		<path style="fill:#F9D363;" d="M167.866,84.869c-0.266-0.152-0.534-0.302-0.801-0.452c0.126,0.071,0.253,0.14,0.378,0.211
			C167.585,84.711,167.725,84.789,167.866,84.869z"/>
		<path style="fill:#F9D363;" d="M217.419,143.734c0.036-0.011,0.071-0.022,0.107-0.032c-1.718-4.679-3.747-9.231-6.062-13.631
			C213.773,134.529,215.75,139.095,217.419,143.734z"/>
		<path style="fill:#88928F;" d="M3.743,184.121l62.18,32.322c24.932,12.96,55.76,3.22,68.72-21.712
			c12.961-24.932,3.221-55.76-21.712-68.721l-62.18-32.322c-1.506-0.783-3.035-1.479-4.578-2.098
			c-4.972,3.615-9.656,7.641-13.994,12.047c3.963,0.552,7.841,1.78,11.49,3.676l62.179,32.322
			c8.419,4.377,14.636,11.789,17.505,20.872c2.87,9.083,2.04,18.721-2.336,27.139c-4.376,8.419-11.788,14.636-20.871,17.506
			c-9.083,2.87-18.721,2.04-27.14-2.336l-62.18-32.322c-3.533-1.837-6.622-4.194-9.238-6.92c-1.048,6.154-1.567,12.297-1.588,18.379
			C1.21,182.719,2.451,183.449,3.743,184.121z"/>
		<path style="fill:#29546C;" d="M10.826,170.495l62.18,32.322c8.419,4.376,18.057,5.205,27.14,2.336
			c9.083-2.87,16.495-9.086,20.871-17.506c4.377-8.418,5.206-18.057,2.336-27.139c-2.87-9.083-9.086-16.495-17.505-20.872
			l-62.179-32.322c-3.649-1.897-7.527-3.124-11.49-3.676c-13.115,13.32-23.08,30.101-28.293,49.437
			c-0.943,3.497-1.702,7.001-2.298,10.501C4.204,166.301,7.292,168.658,10.826,170.495z"/>
		<path style="fill:#88928F;" d="M156.445,255.755l37.817-72.951c2.867-5.53,6.893-10.372,11.79-14.281
			c-0.073-6.413-0.704-12.837-1.871-19.203c-11.045,6.091-20.453,15.237-26.449,26.803l-37.817,72.952
			c-4.472,8.626-6.54,17.64-6.483,26.381c6.628-2.491,13.104-5.643,19.328-9.496C153.507,262.492,154.729,259.065,156.445,255.755z"
			/>
		<path style="fill:#88928F;" d="M136.082,291.632c0.025,0.076,0.05,0.151,0.076,0.227c6.132-1.348,12.117-3.205,17.897-5.538
			c-0.035-0.097-0.064-0.196-0.098-0.293C148.107,288.425,142.128,290.288,136.082,291.632z"/>
		<path style="fill:#88928F;" d="M218.235,146.05v-0.003c0.003,0.008,0.005,0.016,0.007,0.023c0.558,1.666,1.072,3.339,1.549,5.02
			c0.011,0.039,0.022,0.077,0.035,0.115c0.84,2.972,1.547,5.97,2.14,8.983c0.085-0.026,0.171-0.051,0.256-0.077
			c-1.134-5.607-2.691-11.096-4.66-16.421c-0.012,0.004-0.025,0.007-0.037,0.011c-0.036,0.011-0.071,0.022-0.107,0.032
			C217.696,144.505,217.975,145.275,218.235,146.05z"/>
		<path style="fill:#29546C;" d="M206.052,168.523c-4.897,3.909-8.923,8.751-11.79,14.281l-37.817,72.951
			c-1.716,3.31-2.938,6.737-3.684,10.204c2.178-1.348,4.327-2.777,6.44-4.294C190.144,239.44,206.457,204.178,206.052,168.523z"/>
		<path style="fill:#29546C;" d="M221.966,160.188c8.308,42.191-7.513,87.51-45.36,113.296c-7.2,5.172-14.808,9.33-22.65,12.544
			c0.034,0.097,0.063,0.196,0.098,0.293c31.519-12.725,56.912-39.58,66.438-74.97c1.511-5.614,2.573-11.23,3.208-16.813
			c1.333-11.73,0.769-23.313-1.478-34.426C222.137,160.137,222.052,160.162,221.966,160.188z"/>
		<path style="opacity:0.48;fill:#C5C5C5;" d="M211.297,129.753c0.056,0.105,0.112,0.211,0.167,0.316
			C211.409,129.964,211.352,129.859,211.297,129.753z"/>
		<path style="opacity:0.48;fill:#C5C5C5;" d="M165.2,83.376c0.019,0.016,0.038,0.032,0.057,0.048
			c0.607,0.325,1.208,0.658,1.807,0.994C166.446,84.066,165.822,83.714,165.2,83.376z"/>
		<path style="opacity:0.48;fill:#C5C5C5;" d="M171.862,87.202c-1.324-0.849-2.646-1.565-3.996-2.332
			c1.44,0.822,2.859,1.672,4.253,2.552C172.004,87.321,171.882,87.214,171.862,87.202z"/>
		<path style="opacity:0.48;fill:#C5C5C5;" d="M210.432,128.15c-1.358-2.503-2.806-4.975-4.371-7.403
			c-0.825-1.281-1.658-2.561-2.54-3.816c-0.906-1.285-1.845-2.528-2.789-3.761l-0.002,0.001c-3.56-4.56-7.382-8.581-11.037-12.012
			C197.966,109.078,204.948,118.197,210.432,128.15z"/>
		<path style="fill:#F9D363;" d="M182.697,100.927l0.002-0.001c0.944,1.233,1.884,2.476,2.79,3.761
			c0.882,1.255,1.715,2.535,2.54,3.816c5.195,8.059,9.243,16.559,12.174,25.304v-0.003c0.004,0.008,0.006,0.016,0.007,0.023
			c0.558,1.665,1.072,3.339,1.549,5.02c0.01,0.039,0.022,0.077,0.035,0.115c0.968,3.426,1.75,6.884,2.386,10.358
			c4.207-2.32,8.651-4.193,13.238-5.586c-1.668-4.638-3.645-9.204-5.955-13.664c-0.056-0.106-0.111-0.211-0.167-0.316
			c-0.28-0.537-0.575-1.07-0.864-1.604c-5.484-9.952-12.466-19.072-20.74-26.991c-8.646-8.116-16.348-12.906-17.368-13.561
			c-0.016-0.01-0.108-0.091-0.205-0.176c-1.394-0.88-2.813-1.73-4.253-2.552c-0.141-0.08-0.281-0.158-0.423-0.24
			c-0.125-0.072-0.253-0.14-0.378-0.211c-0.599-0.335-1.201-0.668-1.807-0.994C171.45,88.606,177.589,94.256,182.697,100.927z"/>
		<path style="opacity:0.28;fill:#696969;" d="M182.697,100.927l0.002-0.001c0.944,1.233,1.884,2.476,2.79,3.761
			c0.882,1.255,1.715,2.535,2.54,3.816c5.195,8.059,9.243,16.559,12.174,25.304v-0.003c0.004,0.008,0.006,0.016,0.007,0.023
			c0.558,1.665,1.072,3.339,1.549,5.02c0.01,0.039,0.022,0.077,0.035,0.115c0.968,3.426,1.75,6.884,2.386,10.358
			c4.207-2.32,8.651-4.193,13.238-5.586c-1.668-4.638-3.645-9.204-5.955-13.664c-0.056-0.106-0.111-0.211-0.167-0.316
			c-0.28-0.537-0.575-1.07-0.864-1.604c-5.484-9.952-12.466-19.072-20.74-26.991c-8.646-8.116-16.348-12.906-17.368-13.561
			c-0.016-0.01-0.108-0.091-0.205-0.176c-1.394-0.88-2.813-1.73-4.253-2.552c-0.141-0.08-0.281-0.158-0.423-0.24
			c-0.125-0.072-0.253-0.14-0.378-0.211c-0.599-0.335-1.201-0.668-1.807-0.994C171.45,88.606,177.589,94.256,182.697,100.927z"/>
		<path style="fill:#F9D363;" d="M44.026,270.213h-0.002c-0.009-0.005-0.016-0.01-0.024-0.013c-0.722-0.371-1.428-0.778-2.142-1.165
			c0.794,0.662,1.566,1.356,2.376,1.992c0.004,0.003,0.007,0.005,0.007,0.005c1.37,1.077,2.759,2.112,4.165,3.115
			c0.045,0.032,0.089,0.066,0.134,0.098c1.412,1.002,2.843,1.967,4.292,2.897c0.035,0.022,0.071,0.047,0.105,0.069
			c1.468,0.94,2.953,1.841,4.458,2.708c0.016,0.008,0.031,0.018,0.046,0.027c1.513,0.871,3.043,1.701,4.589,2.497
			c0.009,0.004,0.016,0.009,0.024,0.013h0.002c22.446,11.367,48.79,14.785,74.025,9.175c-1.71-5.167-2.613-10.614-2.65-16.176
			C103.983,286.521,71.467,284.312,44.026,270.213z"/>
		<path style="opacity:0.28;fill:#696969;" d="M44.026,270.213h-0.002c-0.009-0.005-0.016-0.01-0.024-0.013
			c-0.722-0.371-1.428-0.778-2.142-1.165c0.794,0.662,1.566,1.356,2.376,1.992c0.004,0.003,0.007,0.005,0.007,0.005
			c1.37,1.077,2.759,2.112,4.165,3.115c0.045,0.032,0.089,0.066,0.134,0.098c1.412,1.002,2.843,1.967,4.292,2.897
			c0.035,0.022,0.071,0.047,0.105,0.069c1.468,0.94,2.953,1.841,4.458,2.708c0.016,0.008,0.031,0.018,0.046,0.027
			c1.513,0.871,3.043,1.701,4.589,2.497c0.009,0.004,0.016,0.009,0.024,0.013h0.002c22.446,11.367,48.79,14.785,74.025,9.175
			c-1.71-5.167-2.613-10.614-2.65-16.176C103.983,286.521,71.467,284.312,44.026,270.213z"/>
		<path style="fill:#88928F;" d="M152.761,265.959c-6.225,3.854-12.7,7.006-19.328,9.496c0.036,5.563,0.94,11.009,2.65,16.176
			c6.046-1.344,12.025-3.207,17.875-5.604C151.697,279.551,151.314,272.68,152.761,265.959z"/>
		<path style="opacity:0.28;fill:#696969;" d="M152.761,265.959c-6.225,3.854-12.7,7.006-19.328,9.496
			c0.036,5.563,0.94,11.009,2.65,16.176c6.046-1.344,12.025-3.207,17.875-5.604C151.697,279.551,151.314,272.68,152.761,265.959z"/>
		<path style="fill:#88928F;" d="M219.081,161.157c0.956-0.359,1.919-0.674,2.885-0.969c-0.593-3.012-1.3-6.01-2.14-8.983
			c-0.012-0.038-0.024-0.076-0.035-0.115c-0.477-1.681-0.991-3.354-1.549-5.02c-0.002-0.007-0.003-0.015-0.007-0.023v0.003
			c-0.26-0.775-0.539-1.546-0.817-2.317c-4.587,1.394-9.031,3.266-13.238,5.586c1.167,6.366,1.798,12.789,1.871,19.203
			C209.902,165.45,214.29,162.954,219.081,161.157z"/>
		<path style="opacity:0.28;fill:#696969;" d="M219.081,161.157c0.956-0.359,1.919-0.674,2.885-0.969
			c-0.593-3.012-1.3-6.01-2.14-8.983c-0.012-0.038-0.024-0.076-0.035-0.115c-0.477-1.681-0.991-3.354-1.549-5.02
			c-0.002-0.007-0.003-0.015-0.007-0.023v0.003c-0.26-0.775-0.539-1.546-0.817-2.317c-4.587,1.394-9.031,3.266-13.238,5.586
			c1.167,6.366,1.798,12.789,1.871,19.203C209.902,165.45,214.29,162.954,219.081,161.157z"/>
		<path style="fill:#29546C;" d="M206.052,168.523c0.405,35.656-15.908,70.917-46.852,93.142c-2.113,1.518-4.262,2.946-6.44,4.294
			c-1.447,6.721-1.063,13.592,1.196,20.069c7.842-3.214,15.451-7.372,22.65-12.544c37.846-25.785,53.668-71.105,45.36-113.296
			c-0.966,0.295-1.929,0.61-2.885,0.969C214.29,162.954,209.902,165.45,206.052,168.523z"/>
		<path style="opacity:0.28;fill:#696969;" d="M206.052,168.523c0.405,35.656-15.908,70.917-46.852,93.142
			c-2.113,1.518-4.262,2.946-6.44,4.294c-1.447,6.721-1.063,13.592,1.196,20.069c7.842-3.214,15.451-7.372,22.65-12.544
			c37.846-25.785,53.668-71.105,45.36-113.296c-0.966,0.295-1.929,0.61-2.885,0.969C214.29,162.954,209.902,165.45,206.052,168.523z
			"/>
	</g>
</g>
<g>
</g>
<g>
</g>
<g>
</g>
<g>
</g>
<g>
</g>
<g>
</g>
<g>
</g>
<g>
</g>
<g>
</g>
<g>
</g>
<g>
</g>
<g>
</g>
<g>
</g>
<g>
</g>
<g>
</g>
</svg>
