<?xml version="1.0" encoding="iso-8859-1"?>
<!-- Generator: Adobe Illustrator 19.1.0, SVG Export Plug-In . SVG Version: 6.00 Build 0)  -->
<svg version="1.1" id="Capa_1" xmlns="http://www.w3.org/2000/svg" xmlns:xlink="http://www.w3.org/1999/xlink" x="0px" y="0px"
	 viewBox="0 0 439.088 439.088" style="enable-background:new 0 0 439.088 439.088;" xml:space="preserve">
<g>
	<g>
		<circle style="fill:#AFEBFF;" cx="208.567" cy="232.919" r="206.168"/>
		<path style="fill:#E2F8FF;" d="M66.535,105.599c6.971,8.622,20.601,22.002,38.444,22.65c0.457,0.016,0.911,0.026,1.366,0.026
			c13.76,0,26.971-7.618,39.355-22.677c6.971,8.622,20.605,22.002,38.448,22.65c0.454,0.016,0.907,0.026,1.364,0.026
			c13.762,0,26.968-7.618,39.356-22.677c6.971,8.622,20.602,22.002,38.444,22.65c0.457,0.016,0.912,0.026,1.366,0.026
			c15.701,0,30.681-9.914,44.546-29.485c1.822-2.574,1.212-6.138-1.361-7.962c-2.577-1.824-6.139-1.213-7.96,1.359
			c-11.597,16.372-23.454,24.664-35.255,24.664c-0.293,0-0.583-0.003-0.878-0.014c-15.961-0.556-28.479-16.04-32.722-22
			c-0.178-1.555-0.974-3.032-2.35-4.008c-1.096-0.775-2.368-1.086-3.61-1.017c-1.161-0.098-2.361,0.14-3.433,0.79
			c-1.487,0.898-2.39,2.368-2.655,3.956c-11.042,14.792-22.304,22.293-33.522,22.293c-0.289,0-0.582-0.003-0.877-0.014
			c-15.959-0.556-28.48-16.04-32.719-22c-0.182-1.555-0.974-3.032-2.353-4.008c-1.096-0.775-2.368-1.086-3.61-1.017
			c-1.16-0.098-2.358,0.14-3.433,0.79c-1.483,0.898-2.39,2.368-2.655,3.956c-11.042,14.792-22.304,22.293-33.518,22.293
			c-0.293,0-0.583-0.003-0.878-0.014c-15.961-0.556-28.479-16.04-32.722-22c-0.178-1.555-0.974-3.032-2.35-4.008
			c-1.097-0.775-2.368-1.086-3.61-1.017c-1.16-0.098-2.361,0.14-3.432,0.79c-1.487,0.898-2.39,2.368-2.655,3.956
			c-6.592,8.829-13.259,15.038-19.951,18.628c-3.431,4.804-6.655,9.767-9.674,14.864C43.412,126.754,55.31,119.242,66.535,105.599z"
			/>
		<path style="fill:#E2F8FF;" d="M403.588,273.306c-0.293,0-0.583-0.004-0.878-0.015c-15.962-0.556-28.479-16.04-32.722-22
			c-0.178-1.556-0.974-3.032-2.351-4.008c-1.096-0.776-2.367-1.086-3.61-1.017c-1.16-0.098-2.362,0.14-3.432,0.79
			c-1.487,0.898-2.391,2.368-2.655,3.957c-11.043,14.792-22.304,22.293-33.522,22.293c-0.29,0-0.583-0.004-0.878-0.015
			c-15.958-0.556-28.48-16.04-32.719-22c-0.182-1.556-0.973-3.032-2.353-4.008c-1.096-0.776-2.368-1.086-3.61-1.017
			c-1.16-0.098-2.357,0.14-3.432,0.79c-1.483,0.898-2.391,2.368-2.655,3.957c-11.042,14.792-22.305,22.293-33.518,22.293
			c-0.294,0-0.584-0.004-0.878-0.015c-15.962-0.556-28.48-16.04-32.723-22c-0.178-1.556-0.973-3.032-2.349-4.008
			c-1.097-0.776-2.368-1.086-3.611-1.017c-1.159-0.098-2.36,0.14-3.431,0.79c-1.488,0.898-2.391,2.368-2.655,3.957
			c-11.043,14.792-22.305,22.293-33.523,22.293c-0.29,0-0.583-0.004-0.878-0.015c-19.608-0.682-34.03-23.909-34.273-24.305
			c-1.632-2.695-5.141-3.566-7.841-1.93c-2.699,1.63-3.565,5.14-1.933,7.841c0.71,1.177,17.732,28.865,43.594,29.807
			c0.453,0.016,0.907,0.025,1.364,0.025c13.761,0,26.968-7.618,39.356-22.676c6.971,8.622,20.601,22.002,38.445,22.651
			c0.457,0.016,0.911,0.025,1.365,0.025c13.76,0,26.971-7.618,39.355-22.676c6.972,8.622,20.606,22.002,38.449,22.651
			c0.453,0.016,0.906,0.025,1.364,0.025c13.762,0,26.968-7.618,39.357-22.676c6.971,8.622,20.601,22.002,38.444,22.651
			c0.457,0.016,0.911,0.025,1.366,0.025c1.553,0,3.096-0.124,4.632-0.318c1.034-4.022,1.937-8.096,2.728-12.208
			C408.515,272.923,406.049,273.306,403.588,273.306z"/>
		<path style="fill:#E2F8FF;" d="M108.612,407.159c13.761,0,26.967-7.618,39.355-22.677c6.972,8.622,20.602,22.002,38.445,22.65
			c0.457,0.017,0.912,0.027,1.365,0.027c15.701,0,30.681-9.915,44.546-29.484c1.821-2.575,1.212-6.139-1.362-7.963
			c-2.576-1.823-6.138-1.214-7.96,1.359c-11.596,16.372-23.454,24.664-35.255,24.664c-0.293,0-0.583-0.004-0.877-0.015
			c-15.961-0.556-28.48-16.039-32.722-22c-0.178-1.556-0.974-3.032-2.35-4.008c-1.097-0.775-2.368-1.085-3.611-1.017
			c-1.159-0.099-2.36,0.14-3.431,0.79c-1.487,0.897-2.391,2.368-2.655,3.956c-11.042,14.793-22.305,22.294-33.522,22.294
			c-0.29,0-0.583-0.004-0.878-0.015c-15.958-0.556-28.479-16.039-32.719-22c-0.181-1.556-0.973-3.032-2.353-4.008
			c-1.096-0.775-2.368-1.085-3.609-1.017c-1.161-0.099-2.358,0.14-3.433,0.79c-1.483,0.897-2.39,2.368-2.655,3.956
			c-0.776,1.046-1.557,2.044-2.342,3.016c9.995,10.299,21.049,19.566,32.995,27.608c4.208,1.732,8.77,2.889,13.664,3.067
			C107.701,407.15,108.155,407.159,108.612,407.159z"/>
	</g>
	<g>
		<g>
			<path style="fill:#F9D363;" d="M421.981,163.678c30.183-52.088,12.426-118.786-39.664-148.969
				C330.227-15.476,263.53,2.283,233.346,54.375c-30.183,52.088-12.425,118.786,39.668,148.969
				C325.1,233.528,391.799,215.768,421.981,163.678z"/>
			<path style="fill:#414141;" d="M233.346,54.375c-0.892,1.539-1.736,3.094-2.543,4.657l188.401,109.169
				c0.956-1.48,1.885-2.983,2.778-4.524c0.892-1.539,1.737-3.093,2.544-4.657L236.123,49.852
				C235.168,51.329,234.239,52.834,233.346,54.375z"/>
			<path style="fill:#414141;" d="M435.98,96.778L284.431,8.961c-3.874,1.671-7.647,3.587-11.317,5.705l163.547,94.764
				C436.672,105.193,436.456,100.966,435.98,96.778z"/>
			<path style="fill:#414141;" d="M219.348,121.274l151.555,87.817c3.87-1.668,7.645-3.587,11.314-5.703l-163.546-94.768
				C218.659,112.856,218.872,117.084,219.348,121.274z"/>
		</g>
		<path style="opacity:0.44;fill:#C4A64E;" d="M409.441,178.623c-0.012,0.005-0.019,0.008-0.031,0.015
			c-1.739,1.003-3.502,1.959-5.293,2.864c-0.134,0.069-0.268,0.14-0.402,0.209c-1.818,0.905-3.651,1.775-5.515,2.578
			c-0.026,0.013-0.049,0.024-0.074,0.037c-30.603,13.193-66.844,12.245-97.889-5.747c-31.054-17.991-49.893-48.959-53.663-82.07
			h-0.003c-0.004-0.043-0.007-0.088-0.011-0.131c-0.223-2-0.383-4.009-0.498-6.023c-0.008-0.148-0.011-0.295-0.018-0.446
			c-0.109-2.006-0.153-4.016-0.149-6.031c0-0.009,0-0.017,0-0.024c0.052-18.451,4.762-37.136,14.674-54.247
			c2.547-4.393,5.362-8.531,8.399-12.426c-14.233,9.074-26.573,21.576-35.623,37.192c-9.912,17.11-14.623,35.794-14.675,54.244
			c0,0.008,0,0.017,0,0.024c-0.004,2.015,0.041,4.025,0.149,6.032c0.006,0.149,0.01,0.296,0.018,0.445
			c0.115,2.013,0.275,4.023,0.498,6.025c0.004,0.041,0.008,0.085,0.012,0.128h0.003c3.77,33.113,22.609,64.081,53.662,82.071
			c31.045,17.991,67.286,18.942,97.889,5.746c0.026-0.011,0.049-0.024,0.075-0.035c1.863-0.805,3.695-1.674,5.514-2.581
			c0.134-0.069,0.267-0.139,0.402-0.208c1.792-0.903,3.555-1.859,5.294-2.862c0.011-0.005,0.019-0.012,0.03-0.017
			c11.917-6.875,22.654-16.067,31.458-27.391C412.273,176.894,410.876,177.794,409.441,178.623z"/>
	</g>
	<ellipse style="opacity:0.56;fill:#A1D8EA;" cx="269.985" cy="280.535" rx="57.68" ry="17.826"/>
</g>
<g>
</g>
<g>
</g>
<g>
</g>
<g>
</g>
<g>
</g>
<g>
</g>
<g>
</g>
<g>
</g>
<g>
</g>
<g>
</g>
<g>
</g>
<g>
</g>
<g>
</g>
<g>
</g>
<g>
</g>
</svg>
