<?xml version="1.0" encoding="iso-8859-1"?>
<!-- Generator: Adobe Illustrator 19.1.0, SVG Export Plug-In . SVG Version: 6.00 Build 0)  -->
<svg version="1.1" id="Capa_1" xmlns="http://www.w3.org/2000/svg" xmlns:xlink="http://www.w3.org/1999/xlink" x="0px" y="0px"
	 viewBox="0 0 476.408 476.408" style="enable-background:new 0 0 476.408 476.408;" xml:space="preserve">
<g>
	<g>
		<circle style="fill:#9FBE5B;" cx="238.203" cy="238.204" r="208.373"/>
		<path style="fill:#52615C;" d="M236.07,216.584c1.33,2.502,0.381,5.609-2.122,6.94l0,0c-2.501,1.33-5.608,0.382-6.939-2.12
			l-21.307-40.061c-1.33-2.504-0.382-5.611,2.121-6.941l0,0c2.502-1.331,5.609-0.381,6.939,2.119L236.07,216.584z"/>
		<path style="fill:#52615C;" d="M240.336,216.584c-1.33,2.502-0.382,5.609,2.121,6.94l0,0c2.501,1.33,5.609,0.382,6.939-2.12
			l21.307-40.061c1.331-2.504,0.381-5.611-2.121-6.941l0,0c-2.501-1.331-5.609-0.381-6.939,2.119L240.336,216.584z"/>
		<path style="fill:#F4B7A9;" d="M140.078,188.779c0,6.963-5.644,12.608-12.607,12.608H90.155c-6.963,0-12.608-5.645-12.608-12.608
			l0,0c0-6.963,5.645-12.607,12.608-12.607h37.315C134.434,176.172,140.078,181.816,140.078,188.779L140.078,188.779z"/>
		<path style="fill:#F4B7A9;" d="M336.327,188.779c0,6.963,5.645,12.608,12.608,12.608h37.315c6.963,0,12.607-5.645,12.607-12.608
			l0,0c0-6.963-5.644-12.607-12.607-12.607h-37.315C341.972,176.172,336.327,181.816,336.327,188.779L336.327,188.779z"/>
		<path style="opacity:0.21;fill:#BA8980;" d="M140.078,188.779c0,6.963-5.644,12.608-12.607,12.608H90.155
			c-6.963,0-12.608-5.645-12.608-12.608l0,0c0-6.963,5.645-12.607,12.608-12.607h37.315
			C134.434,176.172,140.078,181.816,140.078,188.779L140.078,188.779z"/>
		<path style="opacity:0.21;fill:#BA8980;" d="M336.327,188.779c0,6.963,5.645,12.608,12.608,12.608h37.315
			c6.963,0,12.607-5.645,12.607-12.608l0,0c0-6.963-5.644-12.607-12.607-12.607h-37.315
			C341.972,176.172,336.327,181.816,336.327,188.779L336.327,188.779z"/>
		<rect y="198.963" style="fill:#EA7053;" width="476.408" height="14.978"/>
		<path style="fill:#F4B7A9;" d="M113.142,204.188c0,15.472-12.544,28.016-28.016,28.016H52.013
			c-15.473,0-28.016-12.544-28.016-28.016l0,0c0-15.473,12.543-28.016,28.016-28.016h33.112
			C100.598,176.172,113.142,188.715,113.142,204.188L113.142,204.188z"/>
		<path style="fill:#F4B7A9;" d="M363.264,204.188c0,15.472,12.543,28.016,28.016,28.016h33.112
			c15.473,0,28.016-12.544,28.016-28.016l0,0c0-15.473-12.543-28.016-28.016-28.016H391.28
			C375.807,176.172,363.264,188.715,363.264,204.188L363.264,204.188z"/>
		<path style="fill:#52615C;" d="M262.253,325.887c0,13.282-10.767,24.049-24.049,24.049l0,0c-13.282,0-24.05-10.767-24.05-24.049
			v-89.788c0-13.282,10.768-24.05,24.05-24.05l0,0c13.282,0,24.049,10.767,24.049,24.05V325.887z"/>
		<path style="opacity:0.14;fill:#1A1F1E;" d="M249.83,215.053c1.909,3.445,3.003,7.406,3.003,11.626v89.787
			c0,13.282-10.768,24.05-24.05,24.05c-4.22,0-8.181-1.093-11.626-3.002c4.099,7.405,11.983,12.422,21.047,12.422
			c13.282,0,24.049-10.767,24.049-24.049v-89.788C262.253,227.035,257.235,219.152,249.83,215.053z"/>
		<path style="fill:#52615C;" d="M251.029,216.496c0,7.083-5.742,12.825-12.825,12.825l0,0c-7.086,0-12.828-5.742-12.828-12.825
			v-17.959c0-7.085,5.742-12.827,12.828-12.827l0,0c7.083,0,12.825,5.742,12.825,12.827V216.496z"/>
	</g>
	<ellipse style="opacity:0.36;fill:#687C3C;" cx="236.671" cy="388.695" rx="46.16" ry="14.751"/>
</g>
<g>
</g>
<g>
</g>
<g>
</g>
<g>
</g>
<g>
</g>
<g>
</g>
<g>
</g>
<g>
</g>
<g>
</g>
<g>
</g>
<g>
</g>
<g>
</g>
<g>
</g>
<g>
</g>
<g>
</g>
</svg>
